<?xml version="1.0" encoding="utf-8"?>
<!-- Generator: Adobe Illustrator 21.1.0, SVG Export Plug-In . SVG Version: 6.00 Build 0)  -->
<svg version="1.1" id="Layer_1" xmlns="http://www.w3.org/2000/svg" xmlns:xlink="http://www.w3.org/1999/xlink" x="0px" y="0px"
	 viewBox="0 0 128 128" style="enable-background:new 0 0 128 128;" xml:space="preserve">
<style type="text/css">
	.st0{fill:#FFFFFF;}
	.st1{fill:#B7B7B7;}
	.st2{fill:#1A1819;}
	.st3{fill:#286090;stroke:#FFFFFF;stroke-width:2.9086;stroke-miterlimit:10;}
	.st4{fill:#286090;}
</style>
<g>
	<g>
		<path class="st0" d="M18.2,107l0.4-0.4c0.6-0.6,1.8-3.2,2.6-4.6l0.4-0.8l-0.8,0.6c-2,1.4-4.4,2.4-6.1,2.8l0,0l0,0h-0.2l0,0l0,0
			l0,0c-1,0.2-1.8,0.4-2,0.4h-0.6l0.4-0.4c1.8-1.8,3.4-5,4.2-6.7l0.4-0.8l-0.8,0.4c-4.4,2.4-8.9,2.8-11.1,2.8c-1,0-1.6,0-1.6,0H3
			l0.4-0.2c2-1.6,3.8-3.6,5-5.2l0.6-0.6l-0.8,0.2C4.4,95.7,0.2,95.9-2,95.9c-1.2,0-2,0-2,0h-0.6l0.6-0.4c1.8-1,4.2-3.4,6.1-5.5
			l0.8-1l-1.2,0.6c-3.8,1.8-7.5,2-9.9,2c-3.2,0-5.5-0.6-5.5-0.6l-0.6-0.2l0.6-0.2c2.4-0.6,7.3-4.4,9.9-6.9L-3,83l-1,0.2
			c-2.8,0.8-5.9,1-8.9,1c-5.9,0-10.1-1.4-10.3-1.4l-0.8-0.2h0.8c2.2-0.2,6.5-2,12.1-5.5l0.8-0.4h-1c-0.2,0-0.4,0-0.6,0
			c-9.7,0-17.8-6.5-18-6.5l-0.6-0.4h0.6c1.4,0.2,2.8,0.2,4.2,0.2c4.2,0,7.3-0.8,8.9-1.4l0.8-0.4l-0.8-0.2
			c-12.5-2.2-23.8-12.5-23.8-12.5l-0.2-0.2l0.6,0.2l25.8,5.5l1.2,0.2l-1-0.8c-3.6-2.4-6.5-5.5-6.9-6.1l0,0l0,0
			c-17-3-29.1-19-29.3-19.2l-1-1.2l1.2,0.8c6.7,5.5,23,10.3,29.7,12.3l0.8,0.2l-0.6-0.6c-0.4-0.4-0.8-1-1.2-1.4l-0.2-0.2l-0.2,0.2
			c-0.2,0.2-0.4,0.4-0.4,0.4l0,0h-0.2c-4.6-2.2-10.1-9.5-10.7-10.5l0,0l0,0c-10.1-3.2-16.8-9.1-20.6-13.5c-4.2-4.8-5.9-8.9-5.9-8.9
			l-0.4-0.8l0.6,0.6c6.7,6.3,22.2,13.5,28.7,16.4l1,0.4l-0.6-0.8c-3.6-4.4-4.6-7.9-4.8-8.5l0,0l0,0C-55.7,4.8-63.4-17.8-63.6-18
			l-0.6-1.4l0.8,1.4c6.9,10.3,24.2,25.4,33.9,33.5l1.6,1.2l-1.2-1.6c-4.4-6.1-5.5-10.5-5.7-11.3l0,0l0,0l-2-1.8l0,0l0,0v-2.6l0,0
			l0,0l-0.4-1l-0.2-0.6l-0.2,0.6c-0.6,1-1.2,1.4-1.4,1.4h-0.2v-0.2c-14.9-16.6-20-35.3-20-35.5l-0.2-1l0.4,0.8
			C-43-12.9-31.9-2.8-28.1,0.6l0.8,0.6l-0.4-1c-0.2-0.2-0.2-0.6-0.4-0.8c0-0.2-0.2-0.2-0.2-0.4c-0.2-0.6-0.4-1.2-0.4-1.6l0,0l0,0
			C-44.6-23.8-46.8-41-46.8-41.2l-0.2-1.2l0.6,1C-38-23-28.3-11.3-23.2-6.1l1,1l-0.6-1.4v-0.2l-0.8-1.8l1,1.6
			C-19.4-2-11.3,5.5-6.9,9.3l1.2,1.2l-0.8-1.4C-11.1,1.4-12.1-5-12.3-5.2l-0.2-1.2l0.6,1.2C-9.7-0.6-4.2,5.9,3,12.3
			c3.6,3.2,7.1,7.1,9.3,9.9c0.6,0.8,1.4,1.6,2,2.4l0.2,0.2c0.2,0.2,0.2,0.4,0.4,0.6c4.4,6.7,6.1,13.5,6.3,14.7
			c0.6,3,0.4,5.2,0.2,5.9c-0.6,1.4-1.4,2.6-2.2,3.4l0,0l0,0c-0.2,0.2-0.4,0.6-0.4,0.8c-0.2,0.4-0.2,0.4-0.4,0.6c0,0,0,0.2-0.2,0.2
			l-0.4,0.6l0,0l0,0c-0.8,9.9,5,16.1,7.5,18.4c3.8,3,9.3,3.2,12.3,3.4c0.8,0,1.4,0,1.8,0.2c1.2,0.4,2.2,1,3,2l0,0l0,0
			c1.4,0.2,3.4,0.8,4.8,1.8c4.4,3.2,5.2,8.1,5.5,8.3c0,0.4,0,0.6,0,0.8v0.2l0,0l0,0l0,0c0,0.2,0.2,0.2,0.4,0.4
			c0.2,0.2,0.6,0.6,0.8,1l0.2,0.2v0.2h0.2c0.2,0,0.4,0,0.6,0l0,0h0.2l0.4-0.4c1.4,1.6,1.8,4,1.8,4.8c0.2,0.8,0.2,1.6,0,2.2l-0.2,1
			l1-1l0.8-1.2l-0.8,2c0,0.2-1.6,3.4-4.2,3.4c-1.6,0-3.2-1.2-4.6-3.8l0,0l0,0c-0.4-0.4-0.6-0.6-1-1L48,94.5l-0.2,0.2
			c-0.8,0.6-2.2,1.4-4.4,1.4c-1,0-2.2-0.2-3.4-0.8h-0.2l0,0c-1.6,2.6-3.8,3.6-4,3.8l-0.4,0.2l0.2-0.4c0-0.2,0-0.4,0.2-0.4l-0.4-0.2
			c-2.2,6.5-7.1,7.7-7.3,7.7l-0.4,0.2l0.2-0.4c0.6-0.8,0.8-2.8,1.2-4.2l0.2-0.8l-1,0.6c-3.4,4-9.1,5.5-9.3,5.7H18.2L18.2,107z"/>
		<g>
			<path class="st1" d="M57.9,95.3c0-0.6,0-1.4,0-2.2c0-1-0.4-3.4-2.2-5.2l-0.6,0.6l0,0c-0.2,0-0.4,0-0.6,0c0,0,0-0.2-0.2-0.2
				c-0.2-0.4-0.6-0.8-0.8-1c-0.2-0.2-0.2-0.2-0.4-0.4l0,0v-0.2c0-0.2,0-0.4,0-0.8c0-0.2-1-5.2-5.5-8.5c-1.4-1-3.6-1.6-5-1.8
				c-0.8-1-1.8-1.8-3-2.2c-0.4,0-1-0.2-1.8-0.2c-2.8,0-8.3-0.2-12.1-3.2c-2.4-2.2-8.3-8.3-7.5-18.2l0.2-0.6v-0.2
				c0-0.2,0.2-0.2,0.4-0.6c0-0.2,0.2-0.4,0.4-0.8c1-0.8,1.8-2,2.4-3.4l0,0l0,0c0-0.6,0.4-2.8-0.2-5.9c-0.2-1.4-1.8-8.3-6.3-14.9
				c-0.2-0.2-0.2-0.4-0.4-0.6l-0.2-0.2c-0.6-0.8-1.2-1.6-2-2.4l0,0c-2.2-2.6-5.7-6.5-9.3-9.9C-4,5.7-9.3-0.8-11.5-5.4l-1.2-2.8
				l0.4,3c0,0,1,6.7,5.9,14.5C-11.1,5.3-19-2-22.2-6.9l-2.6-3.8l1.8,4.2c0,0,0,0,0,0.2c-4.6-5-14.5-16.8-23-35.3l-1.4-2.4l0.4,2.8
				c0,0.2,2.2,17.6,18.4,38.6c0,0.6,0.2,1.2,0.4,1.8c0,0.2,0.2,0.2,0.2,0.4c0,0.2,0.2,0.6,0.4,0.8c-4-3.4-14.9-13.5-30.9-36.7
				l-1.4-2.2l0.4,2.6c0,0.2,5.2,19.2,20,35.7l0.2,0.2l0.2-0.2c0,0,1-0.4,1.4-1.4l0.2,0.8v2.6V2l0.2,0.2l2,1.8
				c0.2,0.8,1.2,5.5,5.7,11.5C-38.2,8.1-56.1-7.7-63-18.2l-2-3.2l1.2,3.4c0,0.2,8.1,23,28.3,37.9c0.2,0.8,1.4,4,5,8.5
				c-6.7-3-22-10.1-28.7-16.4l-1.6-1.4l0.8,2c0,0.2,1.8,4.2,5.9,9.1c3.8,4.4,10.5,10.5,20.8,13.5c0.8,1,6.1,8.3,10.7,10.5l0.2,0.2
				l0.2-0.2c0,0,0.2-0.2,0.4-0.4c0.2,0.4,0.6,0.8,1.2,1.4c-6.1-1.8-22.8-6.7-29.5-12.1l-2.8-2.2l2.2,2.8
				c0.2,0.2,12.3,16.1,29.3,19.2c0.6,0.6,3.4,3.6,7.1,6.1l0,0l-25.8-5.5l-1.4-0.2l1.2,1c0.2,0.2,11.3,10.5,24,12.7
				c-1.6,0.6-4.6,1.4-8.7,1.4c-1.4,0-2.8,0-4.2-0.2l-1.6-0.2l1.2,1c0,0,8.3,6.5,18,6.5c0.2,0,0.4,0,0.6,0c-5.7,3.2-9.7,5.2-12.1,5.5
				l-2,0.2l2,0.6c0.2,0,4.2,1.4,10.3,1.4c3,0,6.1-0.4,8.9-1c-2.6,2.2-7.5,6.1-9.7,6.7l-1.6,0.4l1.6,0.4c0,0,2.2,0.6,5.5,0.6
				c2.6,0,6.3-0.4,10.1-2.2c-1.6,1.8-4.2,4.2-5.9,5.5l-1.2,0.8l1.4,0.2c0,0,0.8,0,2,0c2.2,0,6.5-0.2,10.3-1.4c-1.2,1.6-3,3.8-5,5.2
				l-0.8,0.6l1,0.2c0,0,0.6,0,1.6,0c2.4,0,6.9-0.4,11.3-3c-0.8,1.8-2.6,5-4.2,6.7l-1.2,1l1.4-0.2c0,0,0.8-0.2,2-0.4l0,0
				c0.2,0,0.4,0,0.4-0.2l0,0c1.8-0.6,4-1.4,6.1-2.8c-1,2.4-2,4-2.4,4.6l-1.2,1.2l1.6-0.4c0.2,0,6.1-1.6,9.5-5.7
				c-0.4,2-0.8,3.6-1,4.2l-0.6,1l1.2-0.2c0.2,0,5-1.4,7.5-7.9c0,0.2,0,0.4,0,0.4l-0.2,1l0.8-0.4c0.2,0,2.4-1.2,4-3.8
				c1.2,0.4,2.4,0.8,3.4,0.8c2.2,0,3.6-1,4.4-1.6c0.4,0.4,0.6,0.8,1,1.2c1.6,2.6,3.2,3.8,5,3.8c2.8,0,4.4-3.4,4.4-3.6l2.2-4.4
				L57.9,95.3z M47.2,90.2c-0.6,1-0.4,1.2-0.4,1.8c0.2,0.4,0.4,1,0.6,1.2c-3.4,3-6.5,0.6-7.1,0c0.4-1.4,0.6-3.2,0.2-5.5
				c0,0,0.6,5.2-3.2,8.7c0.4-1.8,0.8-3.4,0.6-5.5c-0.2,2-0.8,3.6-1.4,5.2c-0.4-1.4-1-4-1.6-5c0.4-1.2,0.6-2.4,0.6-3.8
				c0,0-0.8,5.7-5.2,9.3c0.6-1.6,1-3.2,1.2-5.2c-0.4,2-1.2,3.6-2.2,5.2c-0.2-1.2-0.4-3.8-0.6-5c0.6-1.2,1-2.6,1.4-4.4
				c0,0-2.2,6.9-6.3,8.9c0.8-1.6,1.6-3.4,2-5.2C25,92.7,24,94.1,23,95.5c0-2,0.4-7.3,0.2-9.3c0.4-0.8,0.8-1.6,1.2-2.6
				c0,0-3.4,6.7-9.5,8.5c1.4-1.6,2.4-3.6,3.4-5.7c-1.2,2-2.6,3.6-4,5c0.6-2,2-6.9,2.6-9.7c1.4-2.4,1.8-5.2,1.8-5.2
				c-1,3-2.2,4.8-3.2,6.1c-1.6,1.6-4.2,3.4-8.7,4c1.8-1.2,3.4-2.6,4.6-4.4c-1.6,1.6-3.4,2.8-5.5,3.6c1.4-1.8,4.8-6.7,7.9-14.1
				c0,0-1,2-2.6,4.4c-1.2,1.2-4.8,3.8-11.5,3c2.6-0.8,5-2.2,6.9-4.4c-2.2,2-4.8,3-7.9,3.6c1.8-1.6,6.5-6.5,9.1-11.3
				c1.4-0.4,2.8-0.8,4.2-1.6c0,0-2.8,1.2-7.3,1.2L5,66.2l0.4-0.4l1.6-1.2l-2.4,1.2L4.2,67c-2.4,0-5.5-0.6-8.5-2c3.4,0.2,6.7,0,9.7-1
				c-3.2,0.8-6.7,0.6-10.3,0c1.4-0.4,4.4-1.4,7.1-2.4L4.6,62l2-0.4l-1.8-0.2l-1-0.2l1-0.6H3.6c2.2-0.8,4.2-1.4,4.6-1.6l-3.4-0.2
				c-3-0.6-8.7-2-13.3-5c3,1.2,6.1,1.6,9.1,1.4c-3-0.2-6.3-1-9.3-2.4c2.6,0.2,8.5,0.6,13.3,0c0.8,0.2,1.6,0.4,2.4,0.4
				c0,0-9.7-2.4-18.2-10.1c3.6,2,7.5,3.4,11.1,3.8c-3.6-0.6-7.5-2.6-10.9-4.8c3.6,1.2,12.1,3.8,16.6,3.6c0,0-0.8-0.2-2-0.4l-2-0.6
				c0,0-10.9-4.4-18.2-14.1c5.5,4,11.3,7.3,17.2,9.3c-5.7-2.4-11.3-5.7-16.6-9.9c4.6,2,18.2,7.7,21.4,8.5c0,0-4.6-1.8-10.1-4
				c-2.8-2.2-10.9-9.1-15.7-17c5.7,6.1,11.9,11.3,18.6,15.1C-8.3,28.3-14.5,23-20,16.8c2,1.6,5.2,4.4,9.5,7.3l1.4,1.8l-1-1.6
				c1.8,1.4,4,2.6,6.3,3.8l1,1.8l-0.6-1.6c2.8,1.6,5.9,3.2,9.1,4.2c0,0-3.8-1.8-9.3-5c-1-0.8-2.4-2.2-4-3.8v-0.8l-0.2,0.4L-8.1,23
				l0.4-1.2L-8.5,23c-3.8-3.8-8.7-9.5-11.9-15.5c1.8,2.6,6.5,8.7,11.7,12.7c0,0-7.5-7.7-10.7-12.5c2.6,2.4,8.3,7.3,14.1,11.5
				l1.4,1.8l-0.8-1.4c2.4,1.6,4.8,3.2,7.3,4.2c0,0-4.4-2.8-9.9-6.9c-1-1-2.2-2.8-3.8-4.8l2.2,1.6c0,0-1.6-1.4-2.8-2.2
				c-2.6-3.4-5.7-7.9-7.7-12.1c3.8,5.5,8.3,10.3,12.9,14.7C-10.9,9.7-15.1,4.4-18.8-1c2,2,5.5,5.5,8.7,8.7l1.8,3l-0.8-2
				c2,2,4,3.6,5.7,4.8c1.6,2,3.2,3.8,5.2,5.9c0,0-2.4-2.6-5.2-6.5l1.4,1.2l-2-2C-6.7,8.5-9.3,4-10.5-0.2C-8.3,3.4-6.1,7.3-3,10.3
				C-5.7,7.3-7.7,3.6-9.5,0c0.6,0.8,1.4,1.6,2.2,2.8c0.6,0.8,6.7,9.3,11.9,13.5c0,0-4.6-4.6-6.1-6.9c1.6,1.6,3.2,3.2,4.8,4.6
				c1.2,1,8.7,8.5,12.1,14.5l0,0c1,1.8,1.8,3.6,2.6,5.9l-4.2-7.9c0,0,4,7.7,6.1,12.1c0.4,1.2,0.6,2.4,0.8,3.8c0,0,0,2.2-0.2,3.2
				c-0.4,1-2.2,4.2-4.8,4.6c0,0,0.8,0.2,2-0.2c-0.2,0.6-0.6,1.2-0.6,2c0,0.8-0.4,5,1.4,9.7c-2.2-2.8-3.6-7.1-3.6-7.1
				c1.4,6.7,4.6,10.3,5.7,11.3c1.4,2,3.2,4,5.9,5.7c-4.6-1.6-7.5-4.6-7.5-4.6c5.9,6.3,12.3,6.7,13.5,6.7c0.2,0,0.4,0,0.6,0.2
				c1.2,0.2,2.2,0.2,3,0.2c0.8,0.4,3,2,3.6,5.5c-1.8,0.4-4.6,0.2-8.9-2.4c0,0,5,4,8.9,2.8c0,0.6,0,1.4,0,2c0,0,0.2-0.8,0-2.2
				c0.8-0.2,1.4-0.8,2-1.4c0,0-0.6,0.8-2,1c-0.2-1.8-0.8-4-2.8-5.5c0.2,0,0.4,0,0.6,0c1.6,0.2,3.4-0.2,6.1,4.8c0,0-0.2-1-1-2.2
				c0.2,0,0.4,0,1,0c1,0.2,3.6,0.6,5.7,3.6c1.8,3,3.4,4.8,2,9.3c0,0,1-1.6,1.2-2.2c0,0,0.8,1.2,1,1.8c-0.4,0.8,0.8,2.2,0.8,2.2
				c-0.6-2-0.2-2.2,0-2.2c0.4-0.2,1,0,1.4,0.2c0.6,1.6,2.4,6.3-0.4,8.5c-2.2,0.8-4-0.8-4.8-1.8c1,0.6,1.8,0.6,1.8,0.6
				C46.6,94.1,47.2,90.2,47.2,90.2z M29.3,103.2c0.2-1.2,0.6-3.4,0.6-4.6c1.4-1.2,3.6-3.4,4.8-6.9c0.2,0.6,0.4,1.6,0.6,2.8
				c-0.4,1.6-1.6,6.1-5.5,9.1c0.6-1.2,1.4-2.6,1.6-4C31.3,100.9,30.3,102.1,29.3,103.2z M21.2,104c0.6-1.4,1.6-3.6,2-5
				c0.4-0.6,0.8-1.2,1.2-2c1.4-1,2.8-2.4,4.2-4.8c0.2,1,0.6,5.5,0,7.1l0,0c-0.4,0.6-2.2,3.6-6.7,5.2c1.4-1.6,2.8-3.2,3.8-5.2
				C24.6,101.3,23,102.8,21.2,104z M15.1,102.3c0.8-1.4,2.2-4.2,2.8-6.3c1.4-1,2.6-2.2,3.8-3.6c0,0-6.7,6.7-15.1,7.1
				c2-1,4-2,5.7-3.4c-1.8,1.2-4,1.8-6.1,2.6c1.2-1.2,3.2-3.6,4.2-5.5c1.2-0.6,2.2-1.4,3.2-2.2c-0.4,1-0.8,2-1.2,2.8
				c0,0,6.5-0.4,10.3-6.3c0,1.8,0,7.9-1,10.9c0,0,1-0.2,2.2-1.2c-1.2,1.4-4.2,5-8.5,5.9c1.6-1.6,3-3.2,4.4-5.2
				C18.6,99.7,16.8,101.1,15.1,102.3z M6.3,94.1c-2,0.6-4.2,1-6.7,1c2.2-1,4.2-2,6.3-3.4c-2,1.2-4.4,2-6.7,2.6
				c1.4-1.4,4.2-4.2,5.5-6.1c1.6,0,5-0.4,8.7-2.6c1.2-0.6,2.2-1.4,3-2.2c-0.4,1.2-1.2,4.2-2.2,6.9c-1,0.8-3.6,2.6-7.3,3.6l0.4-1.4
				L6.3,94.1z M-10.1,89.8c2.4-1.4,7.3-4.8,9.7-7.7c1-0.4,2-0.8,3.2-1.4c2.4,0,5-0.6,7.7-2.6C8.1,82,5.2,86.6,3.8,88
				c-1,0.4-2.6,1-4.2,1.6l0.2-1.2L-1,89.6c-2.6,0.8-5.7,1.4-8.7,1.2c3.4-1,6.7-2.4,9.7-4C-3.2,88.2-6.7,89-10.1,89.8z M-18.6,82.4
				c2.8-1.2,10.3-4.8,16.8-9.5c1.4,0.2,3,0.2,4.6,0c-2,2.6-4.4,5.5-6.1,6.9c0,0,1.6,0.6,4,1C-1,81.6-5,83-10.1,83.4l1.2-1.4l-2,1.4
				c-2.2,0.2-4.4,0.2-7.1-0.2c4-0.8,8.1-2,11.5-4C-9.9,81-14.1,82-18.6,82.4z M-15.1,75.5c-2.4-0.4-5.2-1-8.3-2.4
				c4.2,0.8,8.3,0.6,11.7-0.6c-4,0.6-8.7,0.4-12.9-1.2c2.4,0,6.7-0.4,11.3-2.8c1,0,1.8,0,2.8,0l0,0c0.6,0.6,1.2,1.2,2.2,1.6l0,0
				c1.2,0.8,3,1.6,5.2,2.2c-0.8,0.6-2.8,1.8-5.2,3.4c-1.2,0-3.4,0.2-6.5-0.2l0.8-1L-15.1,75.5z M-21,60.4l14.7,3
				c-0.6,0-1,0.2-1.6,0.2c0,0,6.7,5.7,14.9,3.8c-0.6,0.8-2,2.4-3.6,4.4c-1.6,0.2-6.1,0.4-10.5-1.8l0.2-1.2l-0.6,1h-0.2l0,0
				c0,0-3.6-1.8-4.6-4c0,0,0,0.8,0.8,1.8c-0.6,0-1.8,0-3.6-0.2l0.2-0.8l-0.4,0.8c-4.4-0.6-11.9-2.6-21-9.3c5.9,2.8,11.9,5,17.8,5.7
				c-6.1-0.8-12.1-3.4-18-6.7l10.7,2.2c4.4,1.4,11.1,3.6,11.1,3.6L-21,60.4z M-12.5,60c-0.6-0.4-1.4-0.8-2-1.4
				c-1.4-1.2-3-3.2-4.2-5.7c0,0,0.2,1.4,2,4c-2.2-1.8-4.4-4-5.5-6.5l0.4,2.6c0,0-12.1-2-22.8-13.1c5.2,3.6,10.7,6.5,16.1,7.9
				c-5.7-1.6-11.1-5-16.4-8.9c3,1.4,9.7,4.6,18.6,7.3l0.2,1l0.2-1c2.6,0.8,5.5,1.6,8.3,2.2c1.8,1.4,4,3,7.5,4.6
				c3.2,2.2,9.3,5.9,15.5,6.3h0.2c0,0-4.4,2.2-9.7,3.4l-5-1c-0.8-0.4-1.6-1-2.8-1.6l0.2-1.4L-12.5,60z M-20,45.8
				c-0.4-0.6-1-1.2-1.2-1.8c0.2-0.8,0.4-1.8,0.4-3.2c0,0-0.6,3.8-1.8,3.8c0,0-2-1.2-4.6-3.8c-0.8-1-2-2.8-2.8-5.2
				c0,0,0.4,1.8,0.6,2.6c0.2,0.6-0.8-1-0.8-1l-1.2-1.8l1.6,2.8c-1.4-1.6-2.8-3.6-4.2-5.9l0.4,1.6c0,0-3.8-1-8.7-3.8
				c-2-1.2-4.4-3.2-6.5-5.7c0,0,1.6,2,3.6,4c-3.6-2.4-7.5-6.1-10.7-10.9c5.5,5,11.5,8.5,17.6,11.5c-6.5-3.4-12.9-7.7-18.2-13.3
				c2.2,1.6,8.9,6.1,16.6,9.9c-1.6-0.6-2.8-1-2.8-1c3.2,1.6,5.9,2.6,7.3,3c2.4,1,4.8,2,7.3,2.8c3,3.2,7.3,6.9,13.5,10.3
				c2.4,2.6,9.3,9.3,17.8,11.7c-3,0.2-12.1,0.4-15.5-1l0,0c-2-1-4.8-2.8-7.1-5.2l0.4-1.2L-20,45.8z M-31.1,25.6
				c-0.2-0.4-0.6-0.8-0.8-1.2l0.6-1.2l-1,0.6c-0.8-1.2-1.4-2.4-1.8-3.6c-0.4-1-0.6-2.4-0.4-3.8c0,0-0.6,1-0.6,2
				c-0.8-0.6-2.4-1.8-4.6-3.8v-0.6l-0.6-0.8l0.4-2.2l-0.6,2l0.4,0.8v0.6c-3.2-2.8-7.3-7.3-11.5-12.9l0.6,0.4h0.2l0.6,1l-0.2-0.6
				l0,0.2l0.2,0.6l1.4,1.2l3.6,3.4l-4.4-4.4l1,1l1,0.6L-49.5,3l-1.8-1.6l-1.2-1c-0.6-0.8-1-1.6-1.6-2.4l1.2,0.6l-1.8-1.2
				c-1.6-2.4-3.2-5.2-4.8-8.1c9.7,12.9,21.4,23.8,33.9,31.5C-37.7,13.1-48.9,2.4-57.9-9.9c2.6,3,7.1,7.9,13.3,13.7l2.8,4l-1-2.4
				l1.8,2.2l-0.6-1c4.8,4.4,10.5,9.1,17.2,14.1c2.8,3,6.3,6.1,10.9,9.3c0,0-8.9-7.1-15.3-16.4l1.2-1.8l-1.4,1.4
				c-2-3-3.8-6.3-4.8-9.5l1.6,0.8l-3-2.6l0.2-1.2l-0.6,0.8l-0.4-0.4V-1l-1-2c0-0.4,0-0.6,0-1.2c0,0-0.4,1.8-1.2,2.4L-38.8-3v1.2
				c-0.2,0-0.4,0-0.6,0c0,0-3-3.8-6.7-9.3v-1l0.6,0.4l0.8,1.2l-0.6-1.2l0.2-0.4l0.6-1c3.6,4.2,7.5,8.3,11.5,11.7
				c-4-3.6-7.9-7.7-11.3-12.1l0.2-0.2l-0.2,0.2c-3.4-4.2-6.7-8.9-9.5-13.5C-48.4-19.8-38.6-6.9-26,3.2c1.4,3,3.8,6.7,7.5,10.1
				c0,0-4.8-5.7-7.5-11.5l0.2-0.8l0.6-2.6l-0.6,2.2L-26-0.2v1v0.4l-0.2,0.6c-0.6-1.4-1.2-3-1.4-4.4c0-0.6,0-1.4,0.4-2
				c0,0-0.6,0.2-0.8,1c-0.8-1-2.4-3.2-4.4-6.5l0.2-0.8l-0.4,0.4c-0.4-0.8-1-1.4-1.4-2.2c0-0.2,0-0.4,0-0.4l0,0l0.4-1l-0.4,0.6
				l-1.4-4l0.8,2.4l-0.8-0.6l-0.4-0.2l1,1.4l0.2,0.4v0.8c-3-5.2-6.7-11.9-9.3-19.8c2,4.4,4.2,8.7,6.7,12.9c3,5,6.5,9.9,10.7,13.7
				c-4.2-4-7.5-8.9-10.3-13.9c-1.6-3-3.2-6.1-4.6-9.1c3,5.2,7.7,12.9,13.9,20.2l-0.4-0.4l0.8,1l-1.6-1.2c0,0,1.8,1.6,3,2.4
				c1.6,1.8,3.2,3.4,4.8,5c2.4,4.8,6.5,12.5,11.1,17.2l1.2,1C-13.5,12.1-19,7.5-23,2.8c0,0,2,8.9,16.1,22.6
				c-5-3.2-10.9-7.7-16.6-13.1c0,0,1.6,8.5,16.6,20.8c-5.7-2.4-11.5-5-13.3-6.3c0,0,7.9,12.5,21.8,18c-4.4-1.2-11.5-3-15.5-4.4l0,0
				c0,0-6.7-3.4-12.7-9.7l-0.4-1v-1c2.6,3,6.5,6.3,11.7,9.7c0,0-6.1-4.2-11.3-10.1l0.8-0.6l-1,0.6c-2.8-3.2-5.5-6.9-6.7-10.5
				c0,0,0.8,4.4,6.3,10.7l0,0v1v1c-1.2-1.4-2.4-2.8-3.6-4.2l0.4-1L-31.1,25.6z M-47.2-13.3l-0.4-0.4l0.6,1l0.2,0.8l0,0
				c-0.6-1-1.4-2.2-2-3.2l0.2-0.8l-0.4,0.6c-2.8-4.6-5.7-9.9-7.7-14.9c3.6,6.1,7.7,11.7,12.3,17.2l-1,1l-0.2-1v1H-46l-0.4,0.2
				l-0.4-1l-0.6-1.8L-47.2-13.3z"/>
			<path class="st1" d="M6.9,28.9c0.6,1.6,1.6,2.2,2.4,2.6c-0.4,3.8,2.6,5.5,2.6,5.5c-2.4-2.6-2.2-4.4-2-5c0.2-0.4,0.4-0.6,0.8-0.8
				c0,0-0.6-0.2-1.2,0.2c-0.8-0.4-2-1.6-2.4-3c0,0-0.4-1.4,0.6-2.6c0,0-0.4,0.2-0.8,0.6c-0.6-0.4-2.8-2.6-2.4-6.5
				c0,0-1.2,3.4,2.2,7.1C6.5,27.5,6.5,28.1,6.9,28.9z"/>
			<path class="st1" d="M8.7,49.7c0.6-3,2-3.4,2.6-3.6c0.8,0.8,1.4,1.2,1.4,1.2c-0.4-0.6-0.8-1.2-1.2-1.8l0,0l0,0
				c-0.4-0.8-0.6-1.4-0.8-1.6c-0.6-1.6-1.2-4.2,1-5.9c0,0-1.4,0-2,1.6c-0.8-0.6-3-2.8-1.4-6.1c0,0-0.2,0.2-0.4,0.4
				c-0.4-0.2-2.6-1.8-2.6-4c0,0-1,1.8,2.2,4.6c-0.6,1.2-0.8,3.2,2,5.9c0,0.8,0,1.8,0.6,3.2c0.2,0.6,0.4,1,0.6,1.4l0,0
				c-0.8,0.4-2.8,1.6-2.6,4.8c0.2,3.6,2.2,5.9,3.8,7.1C11.9,57.1,8.1,53.3,8.7,49.7z"/>
			<path class="st1" d="M12.1,57.5c-3,4.6,3,7.3,3,7.3C10.3,61.2,12.1,57.5,12.1,57.5z"/>
			<path class="st1" d="M26,75.7c0.4-0.2,0.8-0.6,0.8-0.6c-5.2,2-8.5-3.8-8.5-3.8c2.6,5.9,5.7,5.5,7.3,4.8c0,0.6,0.6,2.8,3.6,4.4
				C29.3,80.3,25.8,77.9,26,75.7z"/>
			<path class="st1" d="M44.4,86.2c0.4-0.4,0.4-0.8,0.4-0.8c-1.8,2.8-5-0.2-5.5-0.6c0.2-0.6,0.4-1,0.4-1c0,0.2-0.2,0.6-0.4,0.8l0,0
				v0.2c-0.8,1.2-2.4,1.6-3.2,1.6c-4.2-0.6-5.9-5-5.9-5c0.4,4.2,5,5.5,5,5.5c2.2,0.4,3.2-0.4,4-1.2c2.6,2,4,1.8,4.8,1.2
				c0.2,0.6,1.4,2.2,3.2,2.2C47,88.8,44.8,88.4,44.4,86.2z"/>
			<path class="st2" d="M7.5,19.8L7.5,19.8L7.5,19.8z"/>
			<path class="st1" d="M11.9,41.4c1.4-0.6,2.6-0.4,3.8,0c0,1.6,0,3.4-0.2,5c0,0,0.8-1.8,0.8-4.8c1.8,1,3.2,2.4,3.2,2.4
				c-1-1.6-2.2-2.4-3.2-3c0-4.6-1.6-11.9-8.7-21c1.2,1.8,7.5,10.5,8.1,20.8C13.5,40,11.9,41.4,11.9,41.4z"/>
			<path class="st2" d="M7.5,19.8C7.5,20,7.7,20,7.5,19.8C7.7,20,7.5,20,7.5,19.8z"/>
			<path class="st1" d="M15.3,84.8c0,0-4.4,4.4-10.7,3.8C4.8,88.6,11.5,91.4,15.3,84.8z"/>
			<path class="st1" d="M12.3,94.5c0,0,7.9,1,10.1-5.5C22.4,89,20.4,93.3,12.3,94.5z"/>
			<path class="st1" d="M28.3,93.5c0,0-0.8,3-3.6,4.2C24.6,97.7,28.3,97.9,28.3,93.5z"/>
			<path class="st1" d="M34.9,92.7c0,0-0.4,2.8-4.4,6.1C30.5,98.7,34.5,97.9,34.9,92.7z"/>
			<path class="st1" d="M35.5,91.2c1.6-1.2,0.8-3.8,0.8-3.8C36.5,88.8,35.5,91.2,35.5,91.2z"/>
			<path class="st1" d="M8.9,79.9c0,0-4.2,1.6-5.9,1.2c-1,0.6-3,1.2-3,1.2S6.3,82.8,8.9,79.9z"/>
			<polygon class="st1" points="1.2,74.3 1.6,73.5 -1.4,73.3 -5.2,75.9 -1.4,73.9 			"/>
			<path class="st1" d="M5.7,68.6c0,0-6.7,1.2-13.1-4C-7.7,64.4-2.2,71.9,5.7,68.6z"/>
			<path class="st1" d="M3.8,59.8c0,0-9.5-0.2-14.5-6.3c-3.2-0.8-6.3-3-7.3-4.4c0,0,0,2,6.9,5.5C-11.1,54.3-3.6,61.8,3.8,59.8z"/>
			<path class="st1" d="M1.2,52.3c0,0-9.7-2.6-15.7-10.5c0,0-8.3-3.4-14.1-10.7c0,0,3.2,6.3,13.5,11.5C-14.9,42.4-9.9,49.7,1.2,52.3
				z"/>
			<path class="st1" d="M-1.8,44c0,0-11.9-5-18.6-16.6C-20.4,27.5-17,39-1.8,44z"/>
			<path class="st1" d="M-17.2,27.9c0,0-4.8-3.6-7.7-6.9C-24.8,21-22.8,25.2-17.2,27.9z"/>
			<path class="st1" d="M-23.6,12.7c0,0,0.6,10.1,12.9,17.6C-10.7,30.3-20.2,23.6-23.6,12.7z"/>
			<path class="st1" d="M-12.7,12.1c0,0-6.3-8.1-8.3-14.3c-2-1.8-3.6-3.4-3.6-3.4l3.2,3.6C-21.6-1.8-18,7.3-12.7,12.1z"/>
			<path class="st1" d="M-26.6,36.5l-0.6-0.4l-0.6-0.6l-1.2-2.6l0.8,2.2l-0.4-0.4l-0.6-0.6v0.2l-0.4-0.6l-2.4-2.6l0.4,2.4v-1.8
				l0.6,1c0,0,0.2-0.4,0-0.6l2,2.2l2.6,2.2l2,0.2l-1.8-0.6L-26.6,36.5z"/>
			<path class="st1" d="M-9.7,16.6l-0.2-0.4l-1.4-0.8l1.2,0.8l0.8,1.6c0,0-3.8-3.4-4-3.4c-0.2,0,5,5,5,5l0.8,1l0.6,0.4l-1.4-2
				l-1.4-2l3.4,2L-9.7,16.6z"/>
			<path class="st1" d="M-10.7,69.6c0,0,2,2.2,6.3,3c0,0-4.2-1.2-6.3-3.8c0,0-1.8,0.2-2.8,0C-13.3,69-11.7,69.8-10.7,69.6z"/>
			<path class="st2" d="M7.3,78.1c-0.4,0.2-0.6,0.4-0.6,0.4S6.9,78.3,7.3,78.1z"/>
			<path class="st1" d="M7.3,78.1c1-0.6,3.2-1.6,3.4-1.8c0.4-0.4,2.4-4.2,2.4-4.2C10.9,75.7,8.5,77.5,7.3,78.1z"/>
			<path class="st1" d="M16.6,85.4c0,0,2.6-4.2,2.6-8.3c0,0-0.6,4-1.8,5.5L16.6,85.4z"/>
			<path class="st1" d="M23.8,86.8c0,1.8,0,4.2,0,4.2s0.2-3.8,1.2-6.5C25,84.6,24.2,86.6,23.8,86.8z"/>
			<path class="st1" d="M29.1,91.9c0,0,1.8,0.2,1.4-4.2C30.5,87.8,30.1,90.8,29.1,91.9z"/>
			<polyline class="st2" points="8.3,67.8 8.3,67.8 8.3,67.8 			"/>
			<polyline class="st2" points="8.3,67.8 8.3,67.8 8.3,67.8 			"/>
			<path class="st1" d="M12.3,66.2c0,0-3,1.6-3.8,1.6C8.7,67.8,10.7,67.8,12.3,66.2z"/>
		</g>
	</g>
	<g>
		<path class="st0" d="M110.2,107l-0.4-0.4c-0.6-0.6-1.8-3.2-2.6-4.6l-0.4-0.8l0.8,0.6c2,1.4,4.4,2.4,6.1,2.8l0,0l0,0h0.2l0,0l0,0
			l0,0c1,0.2,1.8,0.4,2,0.4h0.6l-0.4-0.4c-1.8-1.8-3.4-5-4.2-6.7l-0.4-0.8l0.8,0.4c4.4,2.4,8.9,2.8,11.1,2.8c1,0,1.6,0,1.6,0h0.4
			l-0.4-0.2c-2-1.6-3.8-3.6-5-5.2l-0.6-0.6l0.8,0.2c3.8,1.2,8.1,1.4,10.3,1.4c1.2,0,2,0,2,0h0.6l-0.6-0.4c-1.8-1-4.2-3.4-6.1-5.5
			l-0.8-1l1.2,0.6c3.8,1.8,7.5,2,9.9,2c3.2,0,5.5-0.6,5.5-0.6l0.6-0.2l-0.6-0.2c-2.4-0.6-7.3-4.4-9.9-6.9l-0.8-0.6l1,0.2
			c2.8,0.8,5.9,1,8.9,1c5.9,0,10.1-1.4,10.3-1.4l0.8-0.2h-0.8c-2.2-0.2-6.5-2-12.1-5.5l-0.8-0.4h1c0.2,0,0.4,0,0.6,0
			c9.7,0,17.8-6.5,18-6.5l0.6-0.4h-0.6c-1.4,0.2-2.8,0.2-4.2,0.2c-4.2,0-7.3-0.8-8.9-1.4l-0.8-0.4l0.8-0.2
			C157.7,66,169,55.7,169,55.7l0.4-0.4l-0.6,0.2L142.9,61l-1.2,0.2l1-0.8c3.6-2.4,6.5-5.5,6.9-6.1l0,0l0,0c17-3,29.1-19,29.3-19.2
			l1-1.2l-1.2,1c-6.7,5.5-23,10.3-29.7,12.3l-0.8,0.2l0.6-0.6c0.4-0.4,0.8-1,1.2-1.4l0.2-0.2l0.2,0.2c0.2,0.2,0.4,0.4,0.4,0.4l0,0
			h0.2c4.6-2.2,10.1-9.5,10.7-10.5l0,0l0,0c10.1-3.2,16.8-9.1,20.6-13.5c4.2-4.8,5.9-8.9,5.9-8.9l0.4-0.8l-0.6,0.6
			c-6.7,6.3-22.2,13.5-28.7,16.4l-1,0.4l0.6-0.8c3.6-4.4,4.6-7.9,4.8-8.5l0,0l0,0c20.2-14.9,28.1-37.5,28.3-37.9l0.6-1.4l-0.8,1.4
			c-6.7,10.5-24,25.6-33.7,33.7l-1.6,1.2l1.2-1.6c4.4-6.1,5.5-10.5,5.7-11.3l0,0l0,0l2-1.8l0,0l0,0v-2.6l0,0l0,0l0.2-0.8l0.2-0.6
			l0.2,0.4c0.6,1,1.2,1.4,1.4,1.4h0.2V0c14.7-16.8,20-35.5,20-35.5l0.2-1l-0.6,1c-15.9,23.2-27,33.3-30.9,36.7l-0.8,0.6l0.4-1
			c0.2-0.2,0.2-0.6,0.4-0.8c0-0.2,0.2-0.2,0.2-0.4c0.2-0.6,0.4-1.2,0.4-1.6l0,0l0,0c16.1-21,18.4-38.2,18.4-38.4l0.2-1.2l-0.6,1
			c-8.5,18.4-18.2,30.1-23.2,35.3l-1,1l0.6-1.4v-0.2l0.8-1.8l-1,1.6c-3.2,4.8-11.3,12.3-15.7,16.1l-1.2,1.2l0.8-1.4
			c4.6-7.7,5.7-14.1,5.9-14.3l0.2-1.2l-0.6,1.2c-2.2,4.6-7.7,11.1-14.9,17.6c-3.6,3.2-7.1,7.1-9.3,9.9c-0.6,0.8-1.4,1.6-2,2.4
			l-0.2,0.2c-0.2,0.2-0.2,0.4-0.4,0.6c-4.4,6.7-6.1,13.5-6.3,14.7c-0.6,3-0.4,5.2-0.2,5.9c0.6,1.4,1.4,2.6,2.2,3.4l0,0l0,0
			c0.2,0.2,0.4,0.6,0.4,0.8c0.2,0.4,0.2,0.4,0.4,0.6c0,0,0,0.2,0.2,0.2l0.2,0.6l0,0l0,0c0.8,9.9-5,16.1-7.5,18.4
			c-3.8,3-9.3,3.2-12.3,3.4c-0.8,0-1.4,0-1.8,0.2c-1.2,0.4-2.2,1-3,2l0,0l0,0c-1.4,0.2-3.4,0.8-4.8,1.8c-4.4,3.2-5.2,8.1-5.5,8.3
			c0,0.4,0,0.6,0,0.8v0.2l0,0l0,0l0,0c0,0.2-0.2,0.2-0.4,0.4c-0.2,0.2-0.6,0.6-0.8,1l0-0.4v0.2h-0.2c-0.2,0-0.4,0-0.6,0l0,0h-0.2
			l-0.4-0.4c-1.4,1.6-1.8,4-1.8,4.8c-0.2,0.8-0.2,1.6,0,2.2l0.2,1l-1-1.2l-0.8-1.2l0.8,1.8c0,0.2,1.6,3.4,4.2,3.4
			c1.6,0,3.2-1.2,4.6-3.8l0,0l0,0c0.4-0.4,0.6-0.6,1-1l0.2-0.2l0.2,0.2c0.8,0.6,2.2,1.4,4.4,1.4c1,0,2.2-0.2,3.4-0.8h0.2l0.2,0.2
			c1.6,2.6,3.8,3.6,4,3.8l0.4,0.2l-0.2-0.4c0-0.2,0-0.4-0.2-0.4l0.4-0.2c2.2,6.5,7.1,7.7,7.3,7.7l0.4,0.2l-0.2-0.4
			c-0.6-0.8-0.8-2.8-1.2-4.2l-0.2-0.8l0.6,0.6c3.4,4,9.1,5.5,9.3,5.7L110.2,107L110.2,107z"/>
		<g>
			<path class="st1" d="M68,91.6l2.2,4.4c0,0.2,1.8,3.6,4.4,3.6c1.6,0,3.4-1.4,5-3.8c0.4-0.4,0.8-0.8,1-1.2c0.8,0.6,2.4,1.6,4.4,1.6
				c1.2,0,2.2-0.2,3.4-0.8c1.6,2.6,4,3.8,4,3.8l0.8,0.4l-0.2-1c0-0.2,0-0.2,0-0.4c2.4,6.5,7.3,7.9,7.5,7.9l1.2,0.2l-0.6-1
				c-0.4-0.6-0.8-2-1-4.2c3.4,4,9.3,5.7,9.5,5.7l1.6,0.4l-1.2-1.2c-0.4-0.4-1.4-2.2-2.4-4.6c2,1.4,4.4,2.4,6.1,2.8l0,0
				c0,0,0.2,0.2,0.4,0.2l0,0c1.2,0.4,2,0.4,2,0.4l1.4,0.2l-1-1c-1.8-1.6-3.4-4.8-4.2-6.7c4.4,2.6,8.9,3,11.3,3c1,0,1.6,0,1.6,0
				l1-0.2l-0.8-0.6c-2-1.6-3.8-3.6-5-5.2c3.8,1.2,8.1,1.4,10.3,1.4c1.2,0,2,0,2,0l1.4-0.2l-1.2-0.8c-1.8-1-4.2-3.4-5.9-5.5
				c3.8,1.8,7.5,2.2,10.1,2.2c3.2,0,5.5-0.6,5.5-0.6l1.6-0.4l-1.6-0.4c-2.4-0.6-7.1-4.4-9.7-6.7c2.8,0.8,5.9,1,8.9,1
				c6.1,0,10.1-1.4,10.3-1.4l2-0.6l-2-0.2c-2.2-0.2-6.5-2-12.1-5.5c0.2,0,0.4,0,0.6,0c9.9,0,18-6.5,18-6.5l1.2-1l-1.6,0.2
				c-1.4,0.2-2.8,0.2-4.2,0.2c-4.2,0-7.1-0.8-8.7-1.4c12.7-2.2,23.8-12.5,24-12.7l1.2-1l-1.6,0.4l-25.8,5.5l0,0
				c3.6-2.4,6.5-5.5,7.1-6.1c17-3,29.3-19,29.3-19.2l2.2-2.8l-2.8,2.2c-6.7,5.5-23.4,10.5-29.5,12.1c0.4-0.6,0.8-1,1.2-1.4
				c0.2,0.4,0.4,0.4,0.4,0.4l0.2,0.2l0.2-0.2c4.6-2.2,10.1-9.5,10.7-10.5c10.3-3.2,17-9.1,20.8-13.5c4.2-4.8,5.9-8.9,5.9-9.1l0.8-2
				l-1.6,1.4c-6.7,6.3-21.8,13.3-28.7,16.4c3.6-4.4,4.6-7.7,5-8.5c20.2-14.9,28.3-37.7,28.3-37.9l1.2-3.4l-2,3.2
				c-6.9,10.7-24.8,26.2-33.7,33.7c4.4-6.1,5.5-10.5,5.7-11.5l2-1.8l0.2-0.2V1.6V-1l0.2-0.8c0.6,1,1.4,1.4,1.4,1.4l0.2,0.2l0.2-0.2
				c14.7-16.6,20-35.5,20-35.7l0.6-2.4l-1.4,2.2C171.2-13.1,160.1-3,156,0.4c0.2-0.2,0.2-0.6,0.4-0.8c0-0.2,0.2-0.2,0.2-0.4
				c0.2-0.6,0.4-1.2,0.4-1.8c16.1-21,18.4-38.4,18.4-38.6l0.4-2.8l-1.2,2.6c-8.7,18.6-18.4,30.3-23,35.3c0-0.2,0-0.2,0-0.2l1.8-4.2
				l-2.6,3.8C147.6-1.8,139.7,5.5,135,9.5c4.8-7.9,5.9-14.3,5.9-14.5l0.4-3l-1.2,2.8c-2.2,4.6-7.7,11.1-14.7,17.6
				c-3.6,3.2-7.1,7.1-9.3,9.9l0,0c-0.6,0.8-1.4,1.6-2,2.4l-0.2,0c-0.2,0.2-0.2,0.4-0.4,0.6c-4.4,6.7-6.1,13.5-6.3,14.9
				c-0.6,3-0.4,5.2-0.2,5.9l0,0l0,0c0.6,1.6,1.4,2.6,2.4,3.4c0.2,0.2,0.4,0.6,0.4,0.8c0.2,0.4,0.2,0.4,0.4,0.6c0,0,0,0,0,0.2
				l0.2,0.6c0.8,9.9-5,15.9-7.5,18.2c-3.6,3-9.1,3.2-12.1,3.2c-0.8,0-1.4,0-1.8,0.2c-1.2,0.4-2.2,1-3,2.2c-1.4,0.2-3.6,0.8-5,1.8
				c-4.4,3.2-5.5,8.3-5.5,8.5c0,0.4,0,0.6,0,0.8v0.2l0,0c0,0-0.2,0.2-0.4,0.4c-0.2,0.2-0.6,0.6-0.8,1c0,0,0,0.2-0.2,0.2
				s-0.4,0-0.6,0l0,0l-0.6-0.6c-1.6,1.6-2,4.2-2.2,5.2c-0.2,0.8-0.2,1.6,0,2.2L68,91.6z M75.9,96.9c0,0,0.8,0,1.8-0.6
				c-0.8,1-2.6,2.6-4.8,1.8c-2.6-2.2-1-6.9-0.4-8.5c0.4-0.4,0.8-0.4,1.4-0.2c0.2,0,0.6,0.2,0,2.2c0,0,1.2-1.4,0.8-2.2
				c0.2-0.8,1-1.8,1-1.8c0.2,0.8,1.2,2.2,1.2,2.2c-1.6-4.6,0-6.5,2-9.3c1.8-3,4.4-3.4,5.7-3.6c0.6-0.2,0.8-0.2,1,0
				c-0.6,1.2-1,2.2-1,2.2c2.6-5,4.4-4.6,6.1-4.8c0.2,0,0.4,0,0.6,0c-2,1.4-2.6,3.6-2.8,5.5c-1.4-0.4-2-1-2-1c0.6,0.8,1.2,1.2,2,1.4
				c0,1.2,0,2.2,0,2.2c0-0.8,0-1.4,0-2c3.8,1.2,8.9-2.8,8.9-2.8c-4.2,2.6-7.1,2.8-8.9,2.4c0.6-3.4,2.8-5,3.6-5.5c0.8,0,1.8,0,3-0.2
				c0.2,0,0.4,0,0.6-0.2c1.2,0,7.7-0.4,13.5-6.7c0,0-2.8,2.8-7.5,4.6c2.6-1.6,4.4-3.6,5.9-5.7c0.8-0.8,4-4.4,5.7-11.3
				c0,0-1.2,4.2-3.6,7.1c1.6-4.6,1.4-8.7,1.4-9.7c0-0.8-0.4-1.4-0.6-2c1.2,0.4,2,0.2,2,0.2c-2.6-0.4-4.4-3.6-4.8-4.6
				c-0.4-1-0.2-3.2-0.2-3.2c0.2-1.2,0.4-2.4,0.8-3.8c2-4.4,6.1-12.1,6.1-12.1l-4.4,7.5c0.8-2.2,1.8-4.2,2.6-5.9l0,0
				c3.4-6.1,10.9-13.3,12.1-14.5c1.6-1.4,3.4-3,4.8-4.6c-1.4,2.4-6.1,6.9-6.1,6.9c5.2-4.4,11.3-12.7,11.9-13.5c0.8-1,1.6-2,2.2-2.8
				c-1.8,3.6-3.8,7.3-6.5,10.3c3-3,5.2-6.7,7.5-10.5c-1.2,4.2-4,8.7-6.5,12.3l-2,2l1.4-1.2c-2.8,3.8-5.2,6.5-5.2,6.5
				c2-1.8,3.8-3.8,5.2-5.9c1.6-1,3.6-2.8,5.7-4.8l-0.8,2l1.8-3c3.4-3.2,6.9-6.7,8.7-8.7c-3.6,5.5-7.7,10.5-12.3,15.1
				c4.6-4.2,9.1-9.3,12.9-14.7c-2,4.2-5,8.7-7.7,12.1c-1.2,1-2.8,2.2-2.8,2.2l2.2-1.6c-1.6,2-3,3.6-3.8,4.8c-5.5,4-9.9,6.9-9.9,6.9
				c2.2-1,4.6-2.6,7.3-4.2l-0.8,1.4l1.4-1.8c5.9-4,11.7-9.1,14.1-11.5c-3.2,4.8-10.7,12.5-10.7,12.5c5.2-4.2,9.7-10.1,11.7-12.7
				c-3,6.1-8.1,11.7-11.9,15.5l-0.6-1l0.4,1.2l-0.2,0.2l-0.2-0.4v0.8c-1.6,1.6-3.2,3-4,3.8c-5.5,3.4-9.3,5-9.3,5
				c3-1.2,6.1-2.6,9.1-4.2l-0.6,1.6l1-1.8c2.2-1.2,4.2-2.6,6.3-3.8l-1,1.6l1.4-1.8c4.2-2.8,7.5-5.7,9.5-7.3
				c-5.5,6.3-11.5,11.7-18.2,15.7c6.7-3.8,12.9-9.1,18.6-15.1c-4.8,7.7-12.9,14.7-15.7,17c-5.5,2.2-10.1,4-10.1,4
				c3.2-0.6,16.8-6.5,21.4-8.5c-5.2,4.2-10.9,7.5-16.6,9.9c5.9-2,11.7-5.2,17.2-9.3c-7.3,9.7-18.2,14.1-18.2,14.1l-1.8,1.2
				c-1.2,0.4-2,0.4-2,0.4c4.6,0,13.1-2.4,16.6-3.6c-3.4,2.2-7.3,4-10.9,4.8c3.6-0.4,7.5-2,11.1-3.8c-8.5,7.7-18.2,10.1-18.2,10.1
				c0.8,0,1.6-0.2,2.4-0.4c4.8,0.6,10.7,0.2,13.3,0c-3,1.4-6.3,2.2-9.3,2.4c2.8,0.2,5.9-0.2,9.1-1.4c-4.8,3-10.5,4.4-13.3,5
				l-3.4,0.2c0.4,0.2,2.2,1,4.6,1.6h-1.2l1,0.6l-1,0.2l-1.8,0.2l2,0.4l2.4-0.4c2.6,1,5.7,1.8,7.1,2.4c-3.4,0.6-7.1,0.6-10.3,0
				c3,1,6.3,1.2,9.7,1c-3,1.4-6.1,1.8-8.5,2l-0.2-0.8l-2.4-1.8l1.6,1.2l0.4,0.4l0.2,0.4c-4.4,0-7.3-1.2-7.3-1.2
				c1.4,0.8,2.8,1.4,4.2,1.6c2.6,4.8,7.3,9.7,9.1,11.3c-2.8-0.4-5.7-1.4-7.9-3.6c1.8,2.2,4.2,3.6,6.9,4.4c-6.7,0.8-10.3-1.8-11.5-3
				c-1.4-2.6-2.6-4.4-2.6-4.4c3,7.5,6.5,12.3,7.9,14.1c-2-0.8-3.8-2-5.5-3.6c1.2,1.8,2.8,3.2,4.6,4.4c-4.4-0.6-7.1-2.6-8.7-4
				c-1-1-2.2-3-3.2-6.1c0,0,0.2,2.8,1.8,5.2c0.6,2.6,2,7.7,2.6,9.7c-1.6-1.4-3-3-4-5c0.8,2,2,4,3.4,5.7c-6.1-1.8-9.5-8.5-9.5-8.5
				c0.4,1,0.8,1.8,1.2,2.6c-0.2,2,0.2,7.3,0.2,9.3c-1-1.4-2-3-2.8-4.6c0.4,1.8,1.2,3.6,2,5.2c-4-1.8-6.3-8.9-6.3-8.9
				c0.4,1.8,0.8,3.2,1.4,4.4c-0.2,1.2-0.4,3.8-0.6,5c-1-1.6-1.8-3.2-2.2-5.2c0.2,1.8,0.6,3.6,1.2,5.2c-4.2-3.4-5.2-9.3-5.2-9.3
				c0,1.4,0.2,2.6,0.6,3.8c-0.6,1-1.2,3.6-1.6,5c-0.8-1.6-1.4-3.4-1.4-5.2c-0.2,2,0.2,3.6,0.6,5.5c-3.8-3.4-3.2-8.7-3.2-8.7
				c-0.4,2.2-0.4,4,0.2,5.5c-0.6,0.6-3.6,3.2-7.1,0c0.2-0.4,0.4-0.8,0.6-1.2c0-0.8,0.2-1-0.4-1.8C81.1,90.2,81.8,94.1,75.9,96.9z
				 M96.5,99.5c0.4,1.4,1,2.8,1.6,4c-3.8-3-5-7.3-5.5-9.1c0.2-1.2,0.4-2.2,0.6-2.8c1.2,3.4,3.4,5.7,4.8,6.9c0.2,1.2,0.4,3.4,0.6,4.6
				C98.1,102.1,97.1,100.9,96.5,99.5z M102.5,99.5c1,2,2.2,3.6,3.8,5.2c-4.4-1.6-6.3-4.6-6.7-5.2l0,0c-0.6-1.6-0.2-6.1,0-7.1
				c1.2,2.4,2.8,3.8,4.2,4.8c0.4,0.6,0.8,1.4,1.2,2c0.4,1.2,1.4,3.6,2,5C105.4,102.8,103.8,101.3,102.5,99.5z M108.4,98.1
				c1.2,1.8,2.8,3.6,4.4,5.2c-4.2-1-7.3-4.4-8.5-5.9c1.2,0.8,2.2,1.2,2.2,1.2c-1-3-1-9.1-1-10.9c4,5.9,10.3,6.3,10.3,6.3
				c-0.4-0.8-0.8-1.6-1.2-2.8c1,0.8,2,1.6,3.2,2.2c1,1.8,3.2,4.2,4.2,5.5c-2-0.8-4.2-1.4-6.1-2.6c1.8,1.4,3.6,2.4,5.7,3.4
				c-8.7-0.4-15.1-7.1-15.1-7.1c1.2,1.4,2.6,2.6,3.8,3.6c0.6,2,2,4.8,2.8,6.3C111.6,101.1,109.8,99.7,108.4,98.1z M121.1,92.5
				l0.4,1.4c-3.6-1.2-6.3-2.8-7.3-3.6c-1-2.6-1.8-5.7-2.2-6.9c0.8,1,1.6,1.8,3,2.2c3.4,2.2,6.9,2.6,8.7,2.6c1.2,1.8,4,4.6,5.5,6.1
				c-2.4-0.6-4.6-1.4-6.7-2.6c1.8,1.4,4,2.4,6.3,3.4c-2.4,0-4.8-0.4-6.7-1L121.1,92.5z M128.6,86.8c3,1.6,6.3,3,9.7,4
				c-3,0.2-6.1-0.4-8.7-1.2l-0.8-1.2l0.2,1.2c-1.8-0.6-3.2-1.2-4.2-1.6c-1.4-1.2-4.2-5.9-6.7-9.9c2.6,1.8,5.2,2.4,7.7,2.6
				c1,0.6,2,1,3.2,1.4c2.2,2.8,7.3,6.3,9.7,7.7C135,89,131.6,88.2,128.6,86.8z M134.6,79.1c3.4,2,7.5,3.2,11.5,4
				c-2.4,0.4-4.8,0.4-7.1,0.2l-2-1.4l1.2,1.4c-5-0.4-9.1-2-10.9-2.6c2.4-0.2,4-1,4-1c-1.6-1.4-3.8-4.2-6.1-6.9
				c1.6,0.2,3.2,0.2,4.6,0c6.5,4.6,13.9,8.3,16.8,9.5C142.5,82,138.3,81,134.6,79.1z M142.1,74.7l0.8,1c-2.8,0.4-5.2,0.4-6.5,0.2
				c-2.4-1.4-4.2-2.8-5.2-3.4c2.2-0.6,3.8-1.4,5.2-2.2l0,0c1-0.6,1.6-1.2,2.2-1.6l0,0c1,0,1.8,0,2.8,0c4.6,2.4,8.7,2.8,11.3,2.8
				c-4.2,1.6-8.9,1.8-12.9,1.2c3.6,1,7.7,1.4,11.7,0.6c-3,1.4-5.9,2-8.3,2.4L142.1,74.7z M143.1,63c0,0,6.7-2.2,11.1-3.6l10.7-2.2
				c-5.9,3.2-11.9,5.9-18,6.7c5.9-0.4,11.9-2.6,17.8-5.7c-9.1,6.7-16.6,8.7-21,9.3l-0.4-0.8l0.2,0.8c-1.8,0.2-3,0.2-3.6,0.2
				c0.8-1,0.8-1.8,0.8-1.8c-1,2.2-4.6,4-4.6,4l0,0h-0.2L135,69l0.2,1.2c-4.6,2.2-8.9,2-10.5,1.8c-1.6-2-3-3.6-3.6-4.4
				c8.3,1.6,14.9-3.8,14.9-3.8c-0.6,0-1-0.2-1.6-0.2l14.7-3L143.1,63z M140.3,58.7l0.2,1.4c-1.2,0.8-2,1.2-2.8,1.6l-4.8,1.2
				c-5.2-1.2-9.7-3.4-9.7-3.4h0.2c6.5-0.4,12.5-4,15.5-6.3c3.2-1.6,5.7-3.2,7.5-4.6c2.8-0.6,5.7-1.4,8.3-2.2l0.2,1l0.2-1
				c8.9-2.8,15.5-5.9,18.6-7.3c-5.2,4-10.7,7.3-16.4,8.9c5.5-1.4,10.9-4.2,16.1-7.9c-10.7,11.1-22.8,13.1-22.8,13.1l0.4-2.6
				c-1,2.2-3.2,4.4-5.5,6.5c1.8-2.4,2-4,2-4c-1.2,2.4-2.8,4.2-4.2,5.7c-0.6,0.4-1.4,1-2,1.4L140.3,58.7z M147.6,45l0.4,1.2
				c-2,2.2-5,4.2-7.1,5.2l0,0c-3.4,1.4-12.5,1.2-15.5,1c8.5-2.4,15.3-9.1,17.8-11.7c6.1-3.4,10.5-7.1,13.5-10.3
				c2.4-0.8,4.8-1.6,7.3-2.8c1.6-0.4,4.2-1.4,7.3-3c0,0-1.2,0.4-2.8,0.8c7.5-3.8,14.3-8.3,16.6-9.9c-5.2,5.7-11.7,9.9-18.2,13.3
				c6.1-2.8,12.1-6.5,17.6-11.5c-3.2,4.8-7.1,8.5-10.7,10.9c2-1.8,3.6-4,3.6-4c-2,2.6-4.4,4.4-6.3,5.9c-4.8,2.8-8.7,3.8-8.7,3.8
				l0.4-1.6c-1.4,2.2-2.8,4.2-4.2,5.9l1.6-2.8l-1.2,1.8c0,0-1,1.6-0.8,1s0.6-2.6,0.6-2.6c-0.8,2.4-2,4.2-2.8,5.2
				c-2.6,2.6-4.6,3.8-4.6,3.8c-1.4,0-1.8-3.8-1.8-3.8c-0.2,1.4,0,2.4,0.4,3.2c-0.4,0.6-0.8,1.2-1.2,1.8L147.6,45z M158.9,25l0.4,1
				c-1.2,1.6-2.4,3-3.6,4.2v-1v-1l0,0c5.7-6.3,6.3-10.7,6.3-10.7c-1.2,3.6-3.8,7.3-6.7,10.5l-1-0.6l0.8,0.6
				c-5.2,5.9-11.3,10.1-11.3,10.1c5.2-3.4,8.9-6.9,11.7-9.7l-0.2,1.6l-0.4,1c-6.1,6.1-12.7,9.7-12.7,9.7l0,0
				c-4,1.6-11.1,3.4-15.5,4.4c13.9-5.5,21.8-18,21.8-18c-1.8,1.2-7.7,3.8-13.3,6.3C150,21,151.6,12.7,151.6,12.7
				c-5.7,5.5-11.5,9.9-16.6,13.1c14.3-13.9,16.1-22.6,16.1-22.6c-4,4.6-9.5,9.3-14.3,12.9l1.2-1c4.6-4.6,8.7-12.3,11.1-17.2
				c1.8-1.6,3.4-3.4,4.8-5c1-0.8,3-2.4,3-2.4l-1.6,1.2l0.8-1l-0.4,0.2c6.3-7.5,10.9-14.9,13.9-20.2c-1.4,3-3,6.1-4.6,9.1
				c-2.8,5-6.3,9.9-10.3,13.9c4.2-3.8,7.7-8.7,10.7-13.7c2.4-4.2,4.8-8.5,6.7-12.9c-2.6,7.9-6.3,14.5-9.3,19.8v-0.8l0.2-0.4l1-1.4
				l-0.4,0.2l-0.4,0.8l0.8-2.4l-1.4,4l-0.4-0.6l0.4,1l0,0c0,0,0,0.2,0,0.4c-0.4,0.8-1,1.6-1.4,2.2l-0.4-0.6l0.2,0.8
				c-2,3.2-3.6,5.5-4.4,6.5c-0.2-0.8-0.8-1-0.8-1c0.4,0.6,0.4,1.4,0.4,2C156-1,155.4,0.4,154.8,2l-0.2-0.6V1V0l-0.2,0.8l-0.6-2.2
				l0.6,2.6l0.2,0.8c-2.6,5.9-7.5,11.5-7.5,11.5c3.6-3.2,6.1-7.1,7.5-10.1c12.5-10.1,22.4-23,27.7-30.3c-2.8,4.6-6.1,9.3-9.5,13.5
				l-0.2-0.2l0.2,0.2c-3.4,4.4-7.3,8.5-11.3,12.1c4-3.4,8.1-7.5,11.5-11.7l0.6,1l0.2,0.4l-0.4,1.4l0.8-1.2l0.6-0.4v1
				c-3.6,5.5-6.7,9.3-6.7,9.3c-0.2,0-0.4,0-0.6,0v-1.2l-0.2,1.2c-1-0.6-1.2-2.4-1.2-2.4c0,0.4,0,0.8,0,1.2l-1,2v2.2L164.7,2
				l-0.6-0.8l0.2,1.2l-3,2.6l1.6-0.8c-1,3.2-2.8,6.5-4.8,9.5l-1.4-1.4l1.2,1.8c-6.5,9.3-15.3,16.4-15.3,16.4
				c4.4-3.2,8.1-6.3,10.9-9.3c6.7-5,12.3-9.7,17.2-14.1l-0.6,1l1.8-2.2l-1,2.4l2.8-4c6.1-5.9,10.5-10.5,13.3-13.7
				c-9.1,12.3-20.2,23-32.3,30.7c12.7-7.7,24.4-18.6,33.9-31.5c-1.6,3-3.2,5.7-4.8,8.1L181.9-1l1.4-0.6c-0.6,0.8-1,1.6-1.6,2.4
				l-1.2,1l-1.8,1.6l-1.8,1.8l1-0.6l1-1l-4.4,4.4l3.6-3.4l1.2-1.2l0.2-0.6l0.4-0.2l-0.2,0.6l0.6-1h0.2l0.6-0.4
				c-4.2,5.9-8.3,10.1-11.5,12.9v-0.6l0.4-0.8l-0.6-2l0.4,2.2l-0.6,0.8v0.6c-2.2,2-3.8,3.2-4.6,3.8c0-1-0.6-2-0.6-2
				c0.2,1.4-0.2,2.6-0.4,3.8c-0.6,1.2-1.2,2.4-1.8,3.6l-1-0.6l0.6,1.2c-0.2,0.4-0.6,0.8-0.8,1.2L158.9,25z M175.8-14.9l-0.6,1.8
				l-0.4,1.2l-0.4-0.2H174v-1l-0.2,1l-1-1c4.4-5.2,8.5-11.1,12.3-17.2c-1.8,4.8-4.6,10.3-7.7,14.9l-0.4-0.6l0.2,0.8
				c-0.8,1.2-1.4,2.2-2,3.2l0,0l0.2-1l0.6-1l-0.4,0.4L175.8-14.9z"/>
			<path class="st1" d="M121.5,28.9c-0.6,1.6-1.6,2.2-2.4,2.6c0.4,3.8-2.6,5.5-2.6,5.5c2.4-2.6,2.2-4.4,2-5
				c-0.2-0.4-0.4-0.6-0.8-0.8c0,0,0.6-0.2,1.2,0.2c0.8-0.4,2-1.6,2.4-3c0,0,0.4-1.4-0.6-2.6c0,0,0.4,0.2,0.8,0.6
				c0.6-0.4,2.8-2.6,2.4-6.5c0,0,1.2,3.4-2.2,7.1C121.9,27.5,121.9,28.1,121.5,28.9z"/>
			<path class="st1" d="M119.7,49.7c-0.6-3-2-3.4-2.6-3.6c-0.8,0.8-1.4,1.2-1.4,1.2c0.4-0.6,0.8-1.2,1.2-1.8l0,0l0,0
				c0.4-0.8,0.6-1.4,0.8-1.6c0.6-1.6,1.2-4.2-1-5.9c0,0,1.4,0,2,1.6c0.8-0.6,3-2.8,1.4-6.1c0,0,0.2,0.2,0.4,0.4
				c0.4-0.2,2.6-1.8,2.6-4c0,0,1,1.8-2.2,4.6c0.6,1.2,0.8,3.2-2,5.9c0,0.8,0,1.8-0.6,3.2c-0.2,0.6-0.4,1-0.6,1.4l0,0
				c0.8,0.4,2.8,1.6,2.6,4.8c-0.2,3.6-2.2,5.9-3.8,7.1C116.5,57.1,120.3,53.3,119.7,49.7z"/>
			<path class="st1" d="M116.3,57.5c3,4.6-3,7.3-3,7.3C118.1,61.2,116.3,57.5,116.3,57.5z"/>
			<path class="st1" d="M102.3,75.7c-0.4-0.2-0.8-0.6-0.8-0.6c5.2,2,8.5-3.8,8.5-3.8c-2.6,5.9-5.7,5.5-7.3,4.8
				c0,0.6-0.6,2.8-3.6,4.4C99.1,80.3,102.5,77.9,102.3,75.7z"/>
			<path class="st1" d="M84,86.2c-0.4-0.4-0.4-0.8-0.4-0.8c1.8,2.8,5-0.2,5.5-0.6c-0.2-0.6-0.4-1-0.4-1c0,0.2,0.2,0.6,0.4,0.8l0,0
				v0.2c0.8,1.2,2.4,1.6,3.2,1.6c4.2-0.6,5.9-5,5.9-5c-0.4,4.2-5,5.5-5,5.5c-2.2,0.4-3.2-0.4-4-1.2c-2.6,2-4,1.8-4.8,1.2
				C84,87.4,82.8,89,80.9,89C81.3,88.8,83.6,88.4,84,86.2z"/>
			<path class="st2" d="M120.9,19.8L120.9,19.8L120.9,19.8z"/>
			<path class="st1" d="M116.5,41.4c-1.4-0.6-2.6-0.4-3.8,0c0,1.6,0,3.4,0.2,5c0,0-0.8-1.8-0.8-4.8c-1.8,1-3.2,2.4-3.2,2.4
				c1-1.6,2.2-2.4,3.2-3c0-4.6,1.6-11.9,8.7-21c-1.2,1.8-7.5,10.5-8.1,20.8C114.9,40,116.5,41.4,116.5,41.4z"/>
			<path class="st2" d="M120.9,19.8C120.9,20,120.7,20,120.9,19.8C120.7,20,120.9,20,120.9,19.8z"/>
			<path class="st1" d="M113,84.8c0,0,4.4,4.4,10.7,3.8C123.5,88.6,116.9,91.4,113,84.8z"/>
			<path class="st1" d="M116.1,94.5c0,0-7.9,1-10.1-5.5C106,89,108,93.3,116.1,94.5z"/>
			<path class="st1" d="M100.1,93.5c0,0,0.8,3,3.6,4.2C103.8,97.7,100.1,97.9,100.1,93.5z"/>
			<path class="st1" d="M93.5,92.7c0,0,0.4,2.8,4.4,6.1C97.9,98.7,93.9,97.9,93.5,92.7z"/>
			<path class="st1" d="M92.9,91.2C91.2,90,92,87.4,92,87.4C91.8,88.8,92.9,91.2,92.9,91.2z"/>
			<path class="st1" d="M119.5,79.9c0,0,4.2,1.6,5.9,1.2c1,0.6,3,1.2,3,1.2S122.1,82.8,119.5,79.9z"/>
			<polygon class="st1" points="127.2,74.3 126.8,73.5 129.8,73.3 133.6,75.9 129.8,73.9 			"/>
			<path class="st1" d="M122.7,68.6c0,0,6.7,1.2,13.1-4C136.1,64.4,130.6,71.9,122.7,68.6z"/>
			<path class="st1" d="M124.5,59.8c0,0,9.5-0.2,14.5-6.3c3.2-0.8,6.3-3,7.3-4.4c0,0,0,2-6.9,5.5C139.5,54.3,132,61.8,124.5,59.8z"
				/>
			<path class="st1" d="M127.2,52.3c0,0,9.7-2.6,15.7-10.5c0,0,8.3-3.4,14.1-10.7c0,0-3.2,6.3-13.5,11.5
				C143.3,42.4,138.3,49.7,127.2,52.3z"/>
			<path class="st1" d="M130.2,44c0,0,11.9-5,18.6-16.6C148.8,27.5,145.3,39,130.2,44z"/>
			<path class="st1" d="M145.5,27.9c0,0,4.8-3.6,7.7-6.9C153.2,21,151.2,25.2,145.5,27.9z"/>
			<path class="st1" d="M152,12.7c0,0-0.6,10.1-12.9,17.6C139.1,30.3,148.6,23.6,152,12.7z"/>
			<path class="st1" d="M141.1,12.1c0,0,6.3-8.1,8.3-14.3c2-1.8,3.6-3.4,3.6-3.4L149.8-2C150-1.8,146.3,7.3,141.1,12.1z"/>
			<path class="st1" d="M155,36.5l0.6-0.4l0.6-0.6l1.2-2.6l-0.8,2.2l0.4-0.4l0.6-0.6v0.2l0.4-0.6l2.4-2.6l-0.4,2.4v-1.8l-0.6,1
				c0,0-0.2-0.4,0-0.6l-2,2.2l-2.6,2.2l-2,0.2l1.8-0.6L155,36.5z"/>
			<path class="st1" d="M138.1,16.6l0.2-0.4l1.4-0.8l-1.2,0.8l-0.8,1.6c0,0,3.8-3.4,4-3.4c0.2,0-5,5-5,5l-0.8,1l-0.6,0.4l1.4-2
				l1.4-2l-3.4,2L138.1,16.6z"/>
			<path class="st1" d="M139.1,69.6c0,0-2,2.2-6.3,3c0,0,4.2-1.2,6.3-3.8c0,0,1.8,0.2,2.8,0C141.7,69,140.1,69.8,139.1,69.6z"/>
			<path class="st2" d="M121.1,78.1c0.4,0.2,0.6,0.4,0.6,0.4S121.5,78.3,121.1,78.1z"/>
			<path class="st1" d="M121.1,78.1c-1-0.6-3.2-1.6-3.4-1.8c-0.4-0.4-2.4-4.2-2.4-4.2C117.5,75.7,119.9,77.5,121.1,78.1z"/>
			<path class="st1" d="M111.8,85.4c0,0-2.6-4.2-2.6-8.3c0,0,0.6,4,1.8,5.5L111.8,85.4z"/>
			<path class="st1" d="M104.6,86.8c0,1.8,0,4.2,0,4.2s-0.2-3.8-1.2-6.5C103.4,84.6,104.2,86.6,104.6,86.8z"/>
			<path class="st1" d="M99.3,91.9c0,0-1.8,0.2-1.4-4.2C97.9,87.8,98.3,90.8,99.3,91.9z"/>
			<polyline class="st2" points="120.1,67.8 120.1,67.8 120.1,67.8 			"/>
			<polyline class="st2" points="120.1,67.8 120.1,67.8 120.1,67.8 			"/>
			<path class="st1" d="M116.1,66.2c0,0,3,1.6,3.8,1.6C119.7,67.8,117.7,67.8,116.1,66.2z"/>
		</g>
	</g>
	<g>
		<path class="st3" d="M110.6,98.7H17.6c-2.4,0-4.4-2-4.4-4.4V39c0-2.4,2-4.4,4.4-4.4h93.1c2.4,0,4.4,2,4.4,4.4v55.3
			C115.1,96.7,113,98.7,110.6,98.7z"/>
		<path class="st4" d="M76.5,108H51.9c-1.2,0-2.2-1-2.2-2.2l0,0c0-1.2,1-2.2,2.2-2.2h24.6c1.2,0,2.2,1,2.2,2.2l0,0
			C78.7,107,77.7,108,76.5,108z"/>
		<rect x="59.7" y="92.7" class="st4" width="8.7" height="11.7"/>
		<g>
			<path class="st0" d="M44.4,81.8l-6.1,6.1l-5.9-6.1l2.6-2.6v-5.5h-5.7v5.5l2.6,2.6L26,87.8l-5.9-6.1l2.6-2.6v-24l9.9-9.7l9.1,9.1
				v24.6L44.4,81.8z M35.1,66.8v-8.5l-5.7-5.7V67h5.7V66.8z"/>
			<path class="st0" d="M80.1,51.3l-2.6,2.6v24.6l-9.1,9.1l-6.1-6.1l-6.3,6.1l-9.9-9.7v-24l-2.6-2.6l5.9-6.1l6.1,6.1l-2.6,2.6v26.4
				l5.7-5.7V53.9l-2.4-2.6l5.9-6.1l6.1,6.1l-2.6,2.6v26.4l5.7-5.7V53.9l-2.6-2.6l6.1-6.1L80.1,51.3z"/>
			<path class="st0" d="M105.8,51.3l-2.6,2.6l-6.3,12.5l6.1,12.5l2.6,2.6l-6.1,6.1l-5.9-6.1l2.6-2.6l-2.8-5.9l-2.8,6.1l2.6,2.6
				l-6.1,6.1l-5.9-6.1l2.6-2.6l6.3-12.5l-6.1-12.5l-2.6-2.6l6.1-6.1l5.9,6.1l-2.6,2.6l2.8,5.9l3-5.9l-2.6-2.6l6.1-6.1L105.8,51.3z"
				/>
		</g>
	</g>
</g>
<rect x="-119" y="-86" class="st0" width="119" height="291"/>
<rect x="128.3" y="-107" class="st0" width="110.7" height="298"/>
</svg>
