<svg id="Layer_1" enable-background="new 0 0 512 512" height="512" viewBox="0 0 512 512" width="512" xmlns="http://www.w3.org/2000/svg"><g><g><path d="m256.01 512c-1.545 0-3.09-.239-4.578-.716-46.817-15.005-84.012-43.616-110.55-85.037-28.105-43.866-42.961-100.404-42.961-163.501v-66.146c0-5.346 2.846-10.288 7.469-12.972 15.101-8.767 27.699-21.418 36.434-36.585 2.678-4.649 7.634-7.514 12.999-7.514h202.355c5.365 0 10.321 2.865 12.999 7.514 8.734 15.167 21.333 27.818 36.434 36.585 4.623 2.684 7.469 7.626 7.469 12.972v66.147c0 63.101-14.853 119.64-42.952 163.504-26.535 41.42-63.726 70.03-110.539 85.034-1.489.476-3.034.715-4.579.715z" fill="#ff448e"/></g><g><path d="m290.806 115.001c-3.849 0-7.697-1.472-10.628-4.415-6.462-6.488-15.048-10.061-24.178-10.061s-17.716 3.573-24.178 10.061c-5.845 5.87-15.343 5.889-21.213.043s-5.889-15.344-.043-21.213c12.132-12.182 28.268-18.891 45.434-18.891s33.302 6.709 45.434 18.891c5.846 5.87 5.827 15.367-.043 21.213-2.927 2.915-6.756 4.372-10.585 4.372z" fill="#bdf3ff"/></g><g><path d="m340.473 65.132c-3.849 0-7.697-1.472-10.628-4.415-19.729-19.808-45.953-30.717-73.845-30.717s-54.116 10.909-73.845 30.717c-5.847 5.87-15.344 5.889-21.213.043-5.87-5.846-5.889-15.343-.043-21.213 25.4-25.502 59.173-39.547 95.101-39.547s69.701 14.045 95.101 39.547c5.846 5.87 5.827 15.367-.043 21.213-2.927 2.915-6.756 4.372-10.585 4.372z" fill="#bdf3ff"/></g><path d="m280.178 110.586c2.931 2.943 6.779 4.415 10.628 4.415 3.829 0 7.658-1.457 10.585-4.372 5.87-5.846 5.889-15.344.043-21.213-12.132-12.182-28.268-18.891-45.434-18.891v30c9.13 0 17.716 3.573 24.178 10.061z" fill="#7fe4f6"/><path d="m329.845 60.717c2.931 2.943 6.779 4.415 10.628 4.415 3.829 0 7.658-1.457 10.585-4.372 5.87-5.846 5.889-15.343.043-21.213-25.4-25.502-59.173-39.547-95.101-39.547v30c27.892 0 54.116 10.909 73.845 30.717z" fill="#7fe4f6"/><path d="m406.61 183.627c-15.101-8.767-27.699-21.418-36.434-36.585-2.678-4.649-7.634-7.514-12.999-7.514h-101.177v372.472h.01c1.545 0 3.09-.239 4.578-.716 46.813-15.004 84.004-43.613 110.539-85.034 28.1-43.864 42.952-100.403 42.952-163.504v-66.146c0-5.347-2.846-10.288-7.469-12.973z" fill="#c43970"/><g><path d="m225.875 290.686c-8.284 0-15-6.716-15-15v-30.248c0-24.95 20.243-45.248 45.125-45.248 15.023 0 29.015 7.462 37.426 19.962 4.624 6.873 2.802 16.194-4.071 20.819-6.874 4.625-16.194 2.802-20.819-4.071-2.827-4.202-7.513-6.71-12.535-6.71-8.34 0-15.125 6.84-15.125 15.248v30.248c-.001 8.284-6.717 15-15.001 15z" fill="#08475e"/></g><path d="m268.535 236.901c4.625 6.873 13.945 8.695 20.819 4.071 6.873-4.625 8.695-13.946 4.071-20.819-8.411-12.5-22.402-19.962-37.426-19.962v30c5.023 0 9.709 2.508 12.536 6.71z" fill="#05303d"/><g><path d="m298.828 411.676h-85.656c-17.878 0-32.422-14.544-32.422-32.422v-86.146c0-17.878 14.544-32.422 32.422-32.422h85.656c17.878 0 32.422 14.544 32.422 32.422v86.146c0 17.878-14.544 32.422-32.422 32.422z" fill="#fff"/></g><path d="m298.828 260.686h-42.828v150.99h42.828c17.878 0 32.422-14.544 32.422-32.422v-86.146c0-17.878-14.544-32.422-32.422-32.422z" fill="#e3dff4"/><g><path d="m256 361.724c-8.284 0-15-6.716-15-15v-21.085c0-8.284 6.716-15 15-15s15 6.716 15 15v21.085c0 8.284-6.716 15-15 15z" fill="#08475e"/></g><path d="m271 346.724v-21.085c0-8.284-6.716-15-15-15v51.085c8.284 0 15-6.716 15-15z" fill="#05303d"/></g></svg>