<svg id="Layer_1" enable-background="new 0 0 514.572 514.572" height="512" viewBox="0 0 514.572 514.572" width="512" xmlns="http://www.w3.org/2000/svg"><g><g><path d="m148.405 483.161h-130.833c-8.284 0-15-6.716-15-15s6.716-15 15-15h130.833c19.253 0 34.917-15.664 34.917-34.917v-40.458c0-8.284 6.716-15 15-15s15 6.716 15 15v40.458c0 35.795-29.122 64.917-64.917 64.917z" fill="#fbf0f0"/></g><g><path d="m195.75 392.786c-41.493 0-75.25-33.757-75.25-75.25 0-8.284 6.716-15 15-15s112.216 0 120.5 0 15 6.716 15 15c0 41.493-33.757 75.25-75.25 75.25z" fill="#0a617d"/></g><path d="m256 302.536c-4.015 0-30.503 0-57.678 0v90.185c40.304-1.364 72.678-34.555 72.678-75.185 0-8.284-6.716-15-15-15z" fill="#08475e"/><g><g><path d="m439.322 302.411h-60.25c-8.284 0-15-6.716-15-15v-60.25c0-8.284 6.716-15 15-15h60.25c8.284 0 15 6.716 15 15v60.25c0 8.284-6.716 15-15 15z" fill="#08475e"/></g></g><g><path d="m469.447 242.161h-90.375c-8.284 0-15-6.716-15-15l27.428-75.312 108.072.062c5.199 0 10.027 2.692 12.76 7.114s2.981 9.944.657 14.594l-30.125 60.25c-2.542 5.082-7.736 8.292-13.417 8.292z" fill="#fbf0f0"/></g><g><path d="m376.5 332.473h-361.5c-8.284 0-15-6.716-15-15v-150.625c0-8.284 6.716-15 15-15h376.5v165.625c0 8.285-6.716 15-15 15z" fill="#fbf0f0"/></g><path d="m198.322 332.473h178.178c8.284 0 15-6.716 15-15v-165.625h-193.178z" fill="#e3dff4"/><g><path d="m168.197 121.661c-8.284 0-15-6.716-15-15v-30.125c0-24.882 20.243-45.125 45.125-45.125 15.013 0 28.998 7.434 37.409 19.885 4.638 6.864 2.833 16.189-4.032 20.826-6.864 4.637-16.189 2.833-20.826-4.032-2.826-4.182-7.517-6.679-12.551-6.679-8.34 0-15.125 6.785-15.125 15.125v30.125c0 8.284-6.716 15-15 15z" fill="#08475e"/></g><path d="m241.149 91.661h-85.655c-17.878 0-32.422 14.544-32.422 32.422v85.655c0 17.878 14.544 32.422 32.422 32.422h85.655c17.878 0 32.422-14.544 32.422-32.422v-85.655c.001-17.878-14.544-32.422-32.422-32.422z" fill="#ffe271"/><path d="m210.873 68.09c4.637 6.865 13.962 8.669 20.826 4.032 6.865-4.637 8.67-13.962 4.032-20.826-8.412-12.451-22.396-19.885-37.409-19.885v30c5.033 0 9.725 2.496 12.551 6.679z" fill="#05303d"/><path d="m241.149 91.661h-42.828v150.5h42.828c17.878 0 32.422-14.544 32.422-32.422v-85.655c.001-17.879-14.544-32.423-32.422-32.423z" fill="#ffb44b"/><g><path d="m198.322 192.411c-8.284 0-15-6.716-15-15v-21c0-8.284 6.716-15 15-15s15 6.716 15 15v21c0 8.284-6.716 15-15 15z" fill="#08475e"/></g><path d="m213.322 177.411v-21c0-8.284-6.716-15-15-15v51c8.284 0 15-6.716 15-15z" fill="#05303d"/></g></svg>