<svg id="Layer_1" enable-background="new 0 0 512 512" height="512" viewBox="0 0 512 512" width="512" xmlns="http://www.w3.org/2000/svg"><g><g><g><g><path d="m135.5 241h60.25v30h-60.25z" fill="#0a617d"/></g></g><g><g><path d="m185.144 206.356-55.857-55.856h-54.037v-30h60.25c3.978 0 7.793 1.581 10.606 4.394l60.25 60.25z" fill="#0a617d"/></g></g><g><g><path d="m135.5 391.5h-60.25v-30h54.037l55.857-55.856 21.213 21.213-60.25 60.25c-2.814 2.812-6.629 4.393-10.607 4.393z" fill="#0a617d"/></g></g><g><g><path d="m316.25 241h60.25v30h-60.25z" fill="#08475e"/></g></g><g><path d="m326.856 206.356-21.213-21.213 60.25-60.25c2.813-2.813 6.628-4.394 10.606-4.394h60.25v30h-54.037z" fill="#08475e"/></g><g><path d="m436.75 391.5h-60.25c-3.978 0-7.793-1.581-10.606-4.394l-60.25-60.25 21.213-21.213 55.857 55.856h54.037v30.001z" fill="#08475e"/></g><g><g><path d="m105.375 301.125c-24.882 0-45.125-20.243-45.125-45.125s20.243-45.125 45.125-45.125 45.125 20.243 45.125 45.125-20.243 45.125-45.125 45.125z" fill="#6bde1e"/><path d="m150.5 256c0-24.882-20.243-45.125-45.125-45.125v90.25c24.882 0 45.125-20.243 45.125-45.125z" fill="#00c364"/></g></g><g><path d="m45.125 180.625c-24.882 0-45.125-20.243-45.125-45.125s20.243-45.125 45.125-45.125 45.125 20.243 45.125 45.125-20.243 45.125-45.125 45.125z" fill="#6bde1e"/></g><g><path d="m45.125 421.625c-24.882 0-45.125-20.243-45.125-45.125s20.243-45.125 45.125-45.125 45.125 20.243 45.125 45.125-20.243 45.125-45.125 45.125z" fill="#6bde1e"/></g><g><path d="m406.625 301.125c-24.882 0-45.125-20.243-45.125-45.125s20.243-45.125 45.125-45.125 45.125 20.243 45.125 45.125-20.243 45.125-45.125 45.125z" fill="#6bde1e"/></g><g><path d="m466.875 180.625c-24.882 0-45.125-20.243-45.125-45.125s20.243-45.125 45.125-45.125 45.125 20.243 45.125 45.125-20.243 45.125-45.125 45.125z" fill="#6bde1e"/></g><g><path d="m466.875 421.625c-24.882 0-45.125-20.243-45.125-45.125s20.243-45.125 45.125-45.125 45.125 20.243 45.125 45.125-20.243 45.125-45.125 45.125z" fill="#6bde1e"/></g><g><g><path d="m286.125 210.75h-60.25c-8.284 0-15-6.716-15-15v-30.125c0-24.882 20.243-45.125 45.125-45.125s45.125 20.243 45.125 45.125v30.125c0 8.284-6.716 15-15 15zm-45.25-20h30.25v-25.125c0-8.34-6.785-15.125-15.125-15.125s-15.125 6.785-15.125 15.125z" fill="#08475e"/></g></g><path d="m271.125 165.625v25.125h-15.125v20h30.125c8.284 0 15-6.716 15-15v-30.125c0-24.882-20.243-45.125-45.125-45.125v30c8.34 0 15.125 6.785 15.125 15.125z" fill="#05303d"/><g><path d="m298.828 331.25h-85.655c-17.878 0-32.422-14.544-32.422-32.422v-85.655c0-17.878 14.544-32.422 32.422-32.422h85.655c17.878 0 32.422 14.544 32.422 32.422v85.655c0 17.878-14.544 32.422-32.422 32.422z" fill="#ffe271"/></g><path d="m298.828 180.75h-42.828v150.5h42.828c17.878 0 32.422-14.544 32.422-32.422v-85.655c0-17.879-14.544-32.423-32.422-32.423z" fill="#ffb44b"/><g><path d="m256 281.5c-8.284 0-15-6.716-15-15v-21c0-8.284 6.716-15 15-15s15 6.716 15 15v21c0 8.284-6.716 15-15 15z" fill="#08475e"/></g><path d="m271 266.5v-21c0-8.284-6.716-15-15-15v51c8.284 0 15-6.716 15-15z" fill="#05303d"/><g fill="#00c364"><path d="m90.25 135.5c0-24.882-20.243-45.125-45.125-45.125v90.25c24.882 0 45.125-20.243 45.125-45.125z"/><path d="m90.25 376.5c0-24.882-20.243-45.125-45.125-45.125v90.25c24.882 0 45.125-20.243 45.125-45.125z"/></g></g><g fill="#00c364"><path d="m512 135.5c0-24.882-20.243-45.125-45.125-45.125v90.25c24.882 0 45.125-20.243 45.125-45.125z"/><path d="m512 376.5c0-24.882-20.243-45.125-45.125-45.125v90.25c24.882 0 45.125-20.243 45.125-45.125z"/><path d="m452.667 256.375c0-24.882-20.243-45.125-45.125-45.125v90.25c24.882 0 45.125-20.243 45.125-45.125z"/></g></g></svg>