<svg id="Layer_1" enable-background="new 0 0 512 512" height="512" viewBox="0 0 512 512" width="512" xmlns="http://www.w3.org/2000/svg"><g><g><path d="m256 496c-64.106 0-124.376-24.965-169.706-70.294-45.329-45.33-70.294-105.6-70.294-169.706s24.965-124.376 70.294-169.706c45.33-45.329 105.6-70.294 169.706-70.294s124.375 24.965 169.706 70.294c45.329 45.33 70.294 105.6 70.294 169.706s-24.965 124.376-70.294 169.706c-45.331 45.329-105.6 70.294-169.706 70.294z" fill="#bdf3ff"/></g><path d="m425.706 425.706c45.329-45.33 70.294-105.6 70.294-169.706s-24.965-124.376-70.294-169.706c-45.331-45.329-105.6-70.294-169.706-70.294v480c64.106 0 124.375-24.965 169.706-70.294z" fill="#7fe4f6"/><path d="m437.02 74.98c-48.353-48.351-112.64-74.98-181.02-74.98s-132.667 26.629-181.02 74.98c-48.351 48.353-74.98 112.64-74.98 181.02s26.629 132.667 74.98 181.02c48.353 48.351 112.64 74.98 181.02 74.98s132.667-26.629 181.02-74.98c48.351-48.353 74.98-112.64 74.98-181.02s-26.629-132.667-74.98-181.02zm44.47 166.02h-111.681c-1.488-60.674-11.979-117.411-29.931-161.112-6.608-16.085-14.056-29.914-22.179-41.327 90.098 25.601 157.428 105.828 163.791 202.439zm-225.49 241c-38.221 0-80.634-85.902-83.803-211h167.606c-3.169 125.098-45.583 211-83.803 211zm-83.803-241c3.169-125.098 45.582-211 83.803-211 38.22 0 80.634 85.902 83.803 211zm22.103-202.439c-8.122 11.413-15.571 25.241-22.179 41.327-17.951 43.7-28.442 100.438-29.93 161.112h-111.681c6.363-96.611 73.693-176.838 163.79-202.439zm-163.79 232.439h111.681c1.488 60.674 11.979 117.412 29.93 161.112 6.608 16.085 14.056 29.913 22.179 41.327-90.097-25.601-157.427-105.828-163.79-202.439zm287.189 202.439c8.122-11.413 15.571-25.242 22.179-41.327 17.952-43.701 28.443-100.438 29.931-161.112h111.681c-6.363 96.611-73.693 176.838-163.791 202.439z" fill="#7fe4f6"/><path d="m339.803 241h-83.803v30h83.803c-3.169 125.098-45.583 211-83.803 211v30c68.38 0 132.667-26.629 181.02-74.98 48.351-48.353 74.98-112.64 74.98-181.02s-26.629-132.667-74.98-181.02c-48.353-48.351-112.64-74.98-181.02-74.98v30c38.22 0 80.634 85.902 83.803 211zm-22.104 232.439c8.122-11.413 15.571-25.242 22.179-41.327 17.952-43.701 28.443-100.438 29.931-161.112h111.681c-6.363 96.611-73.693 176.838-163.791 202.439zm163.791-232.439h-111.681c-1.488-60.674-11.979-117.411-29.931-161.112-6.608-16.085-14.056-29.914-22.179-41.327 90.098 25.601 157.428 105.828 163.791 202.439z" fill="#58b9ee"/><path d="m426.731 496.085c-18.28-5.835-32.774-16.933-43.145-33.053-11.178-17.375-17.086-39.904-17.086-65.151v-27.731c7.31-4.227 13.411-10.328 17.638-17.638h85.178c4.227 7.31 10.328 13.411 17.638 17.638v27.731c0 25.249-5.907 47.778-17.083 65.153-10.369 16.118-24.862 27.216-43.14 33.051z" fill="#6bde1e"/><path d="m469.315 352.511h-41.815v143.31c17.913-5.899 32.149-16.899 42.37-32.789 11.176-17.375 17.083-39.904 17.083-65.153v-27.731c-7.31-4.226-13.411-10.327-17.638-17.637z" fill="#00c364"/><path d="m426.73 511.085c-1.539 0-3.078-.237-4.562-.71-21.68-6.92-38.905-20.119-51.198-39.228-12.738-19.801-19.471-45.136-19.471-73.267v-27.731c0-5.355 2.855-10.305 7.491-12.985 5.041-2.915 9.246-7.12 12.161-12.161 2.681-4.636 7.63-7.492 12.985-7.492h85.178c5.355 0 10.305 2.855 12.985 7.492 2.915 5.041 7.12 9.246 12.161 12.161 4.636 2.681 7.491 7.63 7.491 12.985v27.731c0 28.132-6.731 53.467-19.468 73.268-12.29 19.108-29.515 32.307-51.193 39.227-1.481.473-3.02.71-4.56.71zm-45.23-133.032v19.827c0 22.363 5.084 42.086 14.701 57.036 7.541 11.723 17.796 20.199 30.529 25.25 12.731-5.051 22.984-13.527 30.524-25.248 9.615-14.95 14.698-34.674 14.698-57.039v-19.827c-3.915-3.086-7.455-6.627-10.542-10.542h-69.369c-3.086 3.916-6.626 7.456-10.541 10.543z" fill="#00c364"/><g><path d="m427.5 443c-8.284 0-15-6.716-15-15v-18c0-8.284 6.716-15 15-15s15 6.716 15 15v18c0 8.284-6.716 15-15 15z" fill="#00c364"/></g><g fill="#00a769"><path d="m494.462 357.164c-5.041-2.915-9.246-7.12-12.161-12.161-2.681-4.636-7.63-7.492-12.985-7.492h-41.816v30h33.911c3.087 3.915 6.627 7.455 10.542 10.542v19.827c0 22.365-5.083 42.088-14.698 57.039-7.386 11.482-17.382 19.841-29.755 24.926v31.211c1.281-.066 2.556-.286 3.792-.681 21.679-6.92 38.903-20.119 51.193-39.227 12.736-19.8 19.468-45.136 19.468-73.268v-27.731c0-5.356-2.855-10.305-7.491-12.985z"/><path d="m442.5 428v-18c0-8.284-6.716-15-15-15v48c8.284 0 15-6.716 15-15z"/></g></g></svg>