<svg id="Layer_1" enable-background="new 0 0 512 512" height="512" viewBox="0 0 512 512" width="512" xmlns="http://www.w3.org/2000/svg"><g><g><path d="m101.563 417.25c-8.284 0-15-6.716-15-15v-266.75c0-8.284 6.716-15 15-15s15 6.716 15 15v266.75c0 8.284-6.716 15-15 15z" fill="#08475e"/></g><g><path d="m447.063 512h-382.125c-17.094 0-31-13.907-31-31v-33.75c0-33.084 26.916-60 60-60h324.125c33.084 0 60 26.916 60 60v33.75c0 17.093-13.907 31-31 31z" fill="#fbf0f0"/></g><path d="m418.063 387.25h-165.875v124.75h194.875c17.094 0 31-13.907 31-31v-33.75c0-33.084-26.917-60-60-60z" fill="#e3dff4"/><g><path d="m131.688 450.75c-8.284 0-15-6.716-15-15v-48.5h30v48.5c0 8.284-6.716 15-15 15z" fill="#6bde1e"/></g><g><path d="m191.938 450.75c-8.284 0-15-6.716-15-15v-48.5h30v48.5c0 8.284-6.716 15-15 15z" fill="#6bde1e"/></g><g><path d="m252.188 450.75c-8.284 0-15-6.716-15-15v-48.5h30v48.5c0 8.284-6.716 15-15 15z" fill="#ffe271"/></g><g><path d="m312.438 450.75c-8.284 0-15-6.716-15-15v-48.5h30v48.5c0 8.284-6.716 15-15 15z" fill="#c43970"/></g><g><path d="m372.688 450.75c-8.284 0-15-6.716-15-15v-48.5h30v48.5c0 8.284-6.716 15-15 15z" fill="#c43970"/></g><g><path d="m222.063 90.25c-8.284 0-15-6.716-15-15v-30.125c0-24.882 20.243-45.125 45.125-45.125 15.013 0 28.997 7.433 37.409 19.884 4.638 6.864 2.833 16.188-4.031 20.827s-16.188 2.833-20.826-4.032c-2.827-4.182-7.519-6.679-12.552-6.679-8.34 0-15.125 6.785-15.125 15.125v30.125c0 8.284-6.716 15-15 15z" fill="#08475e"/></g><g><path d="m295.016 210.75h-85.656c-17.878 0-32.422-14.544-32.422-32.422v-85.656c0-17.878 14.544-32.422 32.422-32.422h85.656c17.878 0 32.422 14.544 32.422 32.422v85.655c0 17.879-14.544 32.423-32.422 32.423z" fill="#ffe271"/></g><g><path d="m286.993 361.375c-3.839 0-7.678-1.464-10.606-4.394-13.344-13.343-35.055-13.343-48.398 0-5.857 5.858-15.355 5.858-21.213 0s-5.858-15.355 0-21.213c25.041-25.041 65.783-25.041 90.824 0 5.858 5.858 5.858 15.355 0 21.213-2.929 2.93-6.768 4.394-10.607 4.394z" fill="#bdf3ff"/></g><g><path d="m336.66 311.708c-3.839 0-7.678-1.464-10.606-4.394-40.73-40.729-107.002-40.729-147.732 0-5.857 5.858-15.355 5.858-21.213 0s-5.858-15.355 0-21.213c52.426-52.427 137.732-52.427 190.158 0 5.858 5.858 5.858 15.355 0 21.213-2.929 2.93-6.768 4.394-10.607 4.394z" fill="#bdf3ff"/></g><path d="m252.188 450.75c8.284 0 15-6.716 15-15v-48.5h-15z" fill="#ffb44b"/><path d="m276.387 356.981c2.929 2.929 6.768 4.394 10.606 4.394s7.678-1.464 10.606-4.394c5.858-5.858 5.858-15.355 0-21.213-12.521-12.521-28.966-18.781-45.412-18.781v29.987c8.764 0 17.528 3.336 24.2 10.007z" fill="#7fe4f6"/><path d="m326.054 307.315c2.929 2.929 6.768 4.394 10.606 4.394s7.678-1.464 10.606-4.394c5.858-5.858 5.858-15.355 0-21.213-26.213-26.213-60.646-39.32-95.079-39.32v29.986c26.751 0 53.501 10.182 73.867 30.547z" fill="#7fe4f6"/><path d="m264.739 36.679c4.638 6.865 13.962 8.67 20.826 4.032s8.669-13.962 4.031-20.827c-8.411-12.451-22.396-19.884-37.408-19.884v30c5.033 0 9.725 2.497 12.551 6.679z" fill="#05303d"/><path d="m295.016 60.25h-42.828v150.5h42.828c17.878 0 32.422-14.544 32.422-32.422v-85.656c0-17.878-14.544-32.422-32.422-32.422z" fill="#ffb44b"/><g><path d="m252.188 161c-8.284 0-15-6.716-15-15v-21c0-8.284 6.716-15 15-15s15 6.716 15 15v21c0 8.284-6.716 15-15 15z" fill="#08475e"/></g><path d="m267.188 146v-21c0-8.284-6.716-15-15-15v51c8.284 0 15-6.716 15-15z" fill="#05303d"/></g></svg>