<svg id="Layer_1" enable-background="new 0 0 506 506" height="512" viewBox="0 0 506 506" width="512" xmlns="http://www.w3.org/2000/svg"><g><g><path d="m437 506h-368c-4.129 0-8.075-1.702-10.909-4.705s-4.305-7.042-4.065-11.164c.099-1.704 2.719-42.192 28.616-82.846 24.003-37.68 73.044-82.596 170.358-82.596s146.355 44.917 170.358 82.596c25.897 40.653 28.518 81.142 28.616 82.846.239 4.123-1.231 8.161-4.065 11.164s-6.78 4.705-10.909 4.705z" fill="#0a617d"/></g><path d="m437 506c4.129 0 8.075-1.702 10.909-4.705s4.305-7.042 4.065-11.164c-.099-1.704-2.719-42.192-28.616-82.846-24.003-37.68-73.044-82.596-170.358-82.596v181.311z" fill="#08475e"/><ellipse cx="253" cy="198.619" fill="#fbf0f0" rx="199" ry="198.619"/><path d="m452 198.619c0-109.519-89.271-198.619-199-198.619v397.238c109.729 0 199-89.1 199-198.619z" fill="#e3dff4"/><g><path d="m253 277.571c-43.611 0-79.09-35.418-79.09-78.952s35.48-78.952 79.09-78.952 79.09 35.418 79.09 78.952-35.479 78.952-79.09 78.952z" fill="#0a617d"/></g><path d="m332.09 198.619c0-43.534-35.479-78.952-79.09-78.952v157.904c43.611 0 79.09-35.417 79.09-78.952z" fill="#08475e"/><g><path d="m253 293.952c-52.659 0-95.5-42.766-95.5-95.333s42.841-95.333 95.5-95.333 95.5 42.767 95.5 95.333-42.841 95.333-95.5 95.333zm0-160.666c-36.117 0-65.5 29.309-65.5 65.333s29.383 65.333 65.5 65.333 65.5-29.308 65.5-65.333-29.383-65.333-65.5-65.333z" fill="#08475e"/></g><path d="m318.5 198.619c0 36.025-29.383 65.333-65.5 65.333v30c52.659 0 95.5-42.766 95.5-95.333s-42.841-95.333-95.5-95.333v30c36.117 0 65.5 29.308 65.5 65.333z" fill="#05303d"/><g><g><path d="m253 213.619c7.846 0 15.363-6.899 15-15-.364-8.127-6.591-15-15-15-7.846 0-15.363 6.899-15 15 .364 8.127 6.591 15 15 15z" fill="#08475e"/></g></g><path d="m268 198.619c-.364-8.127-6.591-15-15-15v30c7.846 0 15.363-6.899 15-15z" fill="#05303d"/></g></svg>