<svg id="Layer_1" enable-background="new 0 0 512 512" height="512" viewBox="0 0 512 512" width="512" xmlns="http://www.w3.org/2000/svg"><g><path d="m256 379.675c-52.465 0-108.941-19.855-163.322-57.418-40.674-28.095-65.796-55.951-66.845-57.123-4.655-5.199-4.655-13.067 0-18.266 1.05-1.172 26.171-29.028 66.845-57.123 54.381-37.565 110.857-57.42 163.322-57.42s108.941 19.855 163.322 57.418c40.674 28.095 65.796 55.951 66.845 57.123 4.655 5.199 4.655 13.067 0 18.266-1.05 1.172-26.171 29.028-66.845 57.123-54.381 37.565-110.857 57.42-163.322 57.42z" fill="#fff"/><path d="m434.938 328.592c44.563-30.782 72.087-61.301 73.237-62.585 5.1-5.696 5.1-14.316 0-20.013-1.15-1.284-28.674-31.804-73.237-62.585-59.581-41.156-121.457-62.909-178.938-62.909v271c57.481 0 119.357-21.753 178.938-62.908z" fill="#e3dff4"/><g><path d="m256 391.5c-74.715 0-135.5-60.785-135.5-135.5s60.785-135.5 135.5-135.5 135.5 60.785 135.5 135.5-60.785 135.5-135.5 135.5z" fill="#33abfe"/></g><path d="m391.5 256c0-74.715-60.785-135.5-135.5-135.5v271c74.715 0 135.5-60.785 135.5-135.5z" fill="#3f91e9"/><path d="m508.175 245.994c-1.15-1.284-28.674-31.804-73.237-62.585-59.581-41.156-121.457-62.909-178.938-62.909s-119.357 21.753-178.938 62.908c-44.563 30.782-72.087 61.301-73.237 62.586-5.1 5.696-5.1 14.316 0 20.013 1.15 1.284 28.674 31.804 73.237 62.585 59.581 41.155 121.457 62.908 178.938 62.908s119.357-21.753 178.938-62.908c44.563-30.782 72.087-61.301 73.237-62.585 5.1-5.697 5.1-14.317 0-20.013zm-90.287 57.914c-54.546 37.677-110.526 57.592-161.888 57.592s-107.342-19.915-161.888-57.592c-26.726-18.461-47.011-36.948-58.191-47.908 11.179-10.96 31.465-29.447 58.191-47.908 54.546-37.677 110.526-57.592 161.888-57.592s107.342 19.915 161.888 57.592c26.726 18.461 47.011 36.948 58.191 47.908-11.18 10.96-31.465 29.447-58.191 47.908z" fill="#ffdbd6"/><path d="m507.667 245.433c-4.076-4.462-30.892-33.126-72.729-62.025-59.581-41.155-121.457-62.908-178.938-62.908v30c51.362 0 107.342 19.915 161.888 57.592 26.726 18.461 47.011 36.948 58.191 47.908-11.179 10.96-31.465 29.447-58.191 47.908-54.546 37.677-110.526 57.592-161.888 57.592v30c57.481 0 119.357-21.753 178.938-62.908 41.837-28.899 68.652-57.563 72.729-62.025z" fill="#ffc6c2"/><g><path d="m256 312.868c-31.357 0-56.868-25.511-56.868-56.868s25.511-56.868 56.868-56.868c3.955 0 7.926.416 11.805 1.236 6.517 1.378 11.344 6.889 11.853 13.53.786 10.254 8.774 18.445 18.995 19.475 6.63.668 12.025 5.631 13.244 12.183.645 3.469.972 6.983.972 10.444-.001 31.357-25.512 56.868-56.869 56.868z" fill="#08475e"/></g><path d="m312.868 256c0-3.461-.327-6.975-.972-10.444-1.218-6.552-6.613-11.515-13.244-12.183-10.221-1.03-18.209-9.22-18.995-19.475-.508-6.641-5.336-12.152-11.853-13.53-3.879-.82-7.851-1.236-11.805-1.236v113.735c31.358.001 56.869-25.51 56.869-56.867z" fill="#05303d"/><g><path d="m15 90.25c-8.284 0-15-6.716-15-15v-60.25c0-8.284 6.716-15 15-15h60.25c8.284 0 15 6.716 15 15s-6.716 15-15 15h-45.25v45.25c0 8.284-6.716 15-15 15z" fill="#0a617d"/></g><g><path d="m497 90.25c-8.284 0-15-6.716-15-15v-45.25h-45.25c-8.284 0-15-6.716-15-15s6.716-15 15-15h60.25c8.284 0 15 6.716 15 15v60.25c0 8.284-6.716 15-15 15z" fill="#08475e"/></g><g><path d="m497 512h-60.25c-8.284 0-15-6.716-15-15s6.716-15 15-15h45.25v-45.25c0-8.284 6.716-15 15-15s15 6.716 15 15v60.25c0 8.284-6.716 15-15 15z" fill="#08475e"/></g><g><path d="m75.25 512h-60.25c-8.284 0-15-6.716-15-15v-60.25c0-8.284 6.716-15 15-15s15 6.716 15 15v45.25h45.25c8.284 0 15 6.716 15 15s-6.716 15-15 15z" fill="#0a617d"/></g><g><path d="m497 312.868h-482c-8.284 0-15-6.716-15-15s6.716-15 15-15h482c8.284 0 15 6.716 15 15s-6.716 15-15 15z" fill="#bdf3ff"/></g><path d="m497 282.868h-241v30h241c8.284 0 15-6.716 15-15s-6.716-15-15-15z" fill="#7fe4f6"/></g></svg>