<svg id="Layer_1" enable-background="new 0 0 512.332 512.332" height="512" viewBox="0 0 512.332 512.332" width="512" xmlns="http://www.w3.org/2000/svg"><g><g><path d="m241 286.291h30v90.375h-30z" fill="#0a617d"/></g><path d="m256 286.291h15v90.375h-15z" fill="#08475e"/><g><path d="m256 287.166c-66.926 0-121.375-54.449-121.375-121.375s54.449-121.375 121.375-121.375 121.375 54.449 121.375 121.375-54.449 121.375-121.375 121.375z" fill="#bdf3ff"/></g><path d="m377.375 165.791c0-66.926-54.449-121.375-121.375-121.375v242.75c66.926 0 121.375-54.449 121.375-121.375z" fill="#7fe4f6"/><g><path d="m135.523 391.791h90.352v30h-90.352z" fill="#0a617d"/></g><g><g><path d="m286.125 391.791h90.352v30h-90.352z" fill="#08475e"/></g></g><g><path d="m105.375 361.541h-60.25c-8.284 0-15-6.716-15-15v-30.125c0-24.882 20.243-45.125 45.125-45.125s45.125 20.243 45.125 45.125v30.125c0 8.284-6.716 15-15 15zm-45.25-20h30.25v-25.125c0-8.34-6.785-15.125-15.125-15.125s-15.125 6.785-15.125 15.125z" fill="#0a617d"/></g><path d="m90.375 316.416v25.125h-15.125v20h30.125c8.284 0 15-6.716 15-15v-30.125c0-24.882-20.243-45.125-45.125-45.125v30c8.34 0 15.125 6.785 15.125 15.125z" fill="#08475e"/><g><path d="m118.078 482.041h-85.656c-17.878 0-32.422-14.545-32.422-32.423v-85.655c0-17.878 14.544-32.422 32.422-32.422h85.655c17.878 0 32.422 14.544 32.422 32.422v85.655c.001 17.878-14.543 32.423-32.421 32.423z" fill="#fbf0f0"/></g><path d="m118.078 331.541h-42.828v150.5h42.828c17.878 0 32.422-14.544 32.422-32.422v-85.655c0-17.879-14.544-32.423-32.422-32.423z" fill="#e3dff4"/><g><path d="m75.25 432.291c-8.284 0-15-6.716-15-15v-21c0-8.284 6.716-15 15-15s15 6.716 15 15v21c0 8.284-6.716 15-15 15z" fill="#0a617d"/></g><path d="m90.25 417.291v-21c0-8.284-6.716-15-15-15v51c8.284 0 15-6.716 15-15z" fill="#08475e"/><g><path d="m467.207 361.541h-60.25c-8.284 0-15-6.716-15-15v-30.125c0-24.882 20.243-45.125 45.125-45.125s45.125 20.243 45.125 45.125v30.125c0 8.284-6.716 15-15 15zm-45.25-20h30.25v-25.125c0-8.34-6.785-15.125-15.125-15.125s-15.125 6.785-15.125 15.125z" fill="#0a617d"/></g><path d="m452.207 316.416v25.125h-15.125v20h30.125c8.284 0 15-6.716 15-15v-30.125c0-24.882-20.243-45.125-45.125-45.125v30c8.339 0 15.125 6.785 15.125 15.125z" fill="#08475e"/><g><path d="m479.909 482.041h-85.655c-17.878 0-32.422-14.544-32.422-32.422v-85.655c0-17.878 14.544-32.422 32.422-32.422h85.655c17.878 0 32.422 14.544 32.422 32.422v85.655c.001 17.877-14.544 32.422-32.422 32.422z" fill="#fbf0f0"/></g><path d="m479.909 331.541h-42.828v150.5h42.828c17.878 0 32.422-14.544 32.422-32.422v-85.655c.001-17.879-14.544-32.423-32.422-32.423z" fill="#e3dff4"/><g><path d="m437.082 432.291c-8.284 0-15-6.716-15-15v-21c0-8.284 6.716-15 15-15s15 6.716 15 15v21c0 8.284-6.716 15-15 15z" fill="#0a617d"/></g><path d="m452.082 417.291v-21c0-8.284-6.716-15-15-15v51c8.284 0 15-6.716 15-15z" fill="#08475e"/><path d="m256 30.291c-74.715 0-135.5 60.785-135.5 135.5s60.785 135.5 135.5 135.5 135.5-60.785 135.5-135.5-60.785-135.5-135.5-135.5zm104.429 120.5h-40.305c-1.381-28.479-6.664-55.012-15.247-75.906-.46-1.12-.931-2.213-1.408-3.293 30.134 15.246 52.003 44.531 56.96 79.199zm-104.429 120.5c-10.82 0-31.086-31.816-34.106-90.5h68.211c-3.019 58.684-23.285 90.5-34.105 90.5zm-34.106-120.5c3.02-58.684 23.286-90.5 34.106-90.5s31.086 31.816 34.106 90.5zm-13.363-79.2c-.477 1.08-.948 2.174-1.408 3.293-8.583 20.894-13.867 47.427-15.247 75.906h-40.305c4.957-34.667 26.826-63.952 56.96-79.199zm-56.96 109.2h40.305c1.381 28.479 6.664 55.012 15.247 75.906.46 1.12.931 2.213 1.408 3.293-30.134-15.247-52.003-44.531-56.96-79.199zm151.898 79.199c.477-1.08.948-2.173 1.408-3.293 8.583-20.894 13.867-47.427 15.247-75.906h40.305c-4.957 34.668-26.826 63.952-56.96 79.199z" fill="#7fe4f6"/><g><path d="m256 451.916c-24.882 0-45.125-20.243-45.125-45.125s20.243-45.125 45.125-45.125 45.125 20.243 45.125 45.125-20.243 45.125-45.125 45.125z" fill="#ff448e"/></g><path d="m301.125 406.791c0-24.882-20.243-45.125-45.125-45.125v90.25c24.882 0 45.125-20.243 45.125-45.125z" fill="#c43970"/><path d="m290.106 150.791h-34.106v30h34.106c-3.02 58.684-23.286 90.5-34.106 90.5v30c74.715 0 135.5-60.785 135.5-135.5s-60.785-135.5-135.5-135.5v30c10.82 0 31.086 31.815 34.106 90.5zm70.323 0h-40.305c-1.381-28.479-6.664-55.012-15.247-75.906-.46-1.12-.931-2.213-1.408-3.293 30.134 15.246 52.003 44.531 56.96 79.199zm-55.553 105.906c8.583-20.894 13.867-47.427 15.247-75.906h40.305c-4.957 34.668-26.826 63.953-56.96 79.2.477-1.081.948-2.174 1.408-3.294z" fill="#58b9ee"/></g></svg>