<svg id="Layer_1" enable-background="new 0 0 512 512" height="512" viewBox="0 0 512 512" width="512" xmlns="http://www.w3.org/2000/svg"><g><g><path d="m363.81 512h-215.62c-33.026 0-59.895-26.869-59.895-59.895v-75.605c0-8.284 6.716-15 15-15h305.41c8.284 0 15 6.716 15 15v75.605c0 33.026-26.869 59.895-59.895 59.895z" fill="#0a617d"/></g><path d="m408.705 361.5h-150.62v150.5h105.725c33.026 0 59.896-26.869 59.896-59.895v-75.605c-.001-8.284-6.717-15-15.001-15z" fill="#08475e"/><g><path d="m288.21 451.75h-60.25c-8.284 0-15-6.716-15-15s6.716-15 15-15h60.25c8.284 0 15 6.716 15 15s-6.716 15-15 15z" fill="#08475e"/></g><path d="m288.21 421.75h-30.125v30h30.125c8.284 0 15-6.716 15-15s-6.716-15-15-15z" fill="#05303d"/><path d="m423.705 59.895c0-33.026-26.869-59.895-59.895-59.895h-215.62c-33.026 0-59.895 26.869-59.895 59.895v316.605h335.41z" fill="#ff448e"/><path d="m363.81 0h-105.725v376.5h165.62v-316.605c0-33.026-26.869-59.895-59.895-59.895z" fill="#c43970"/><g><path d="m227.96 170.625c-8.284 0-15-6.716-15-15v-30.125c0-24.882 20.243-45.125 45.125-45.125 15.013 0 28.997 7.433 37.409 19.884 4.638 6.864 2.833 16.188-4.031 20.827-6.865 4.639-16.188 2.833-20.826-4.032-2.826-4.182-7.519-6.679-12.552-6.679-8.34 0-15.125 6.785-15.125 15.125v30.125c0 8.284-6.716 15-15 15z" fill="#08475e"/></g><path d="m270.637 117.054c4.638 6.865 13.961 8.671 20.826 4.032 6.864-4.638 8.669-13.962 4.031-20.827-8.412-12.451-22.396-19.884-37.409-19.884v30c5.033 0 9.726 2.497 12.552 6.679z" fill="#05303d"/><g><path d="m300.913 291.125h-85.656c-17.878 0-32.422-14.544-32.422-32.422v-85.655c0-17.878 14.544-32.422 32.422-32.422h85.656c17.878 0 32.422 14.544 32.422 32.422v85.655c0 17.878-14.544 32.422-32.422 32.422z" fill="#fbf0f0"/></g><path d="m300.913 140.625h-42.828v150.5h42.828c17.878 0 32.422-14.544 32.422-32.422v-85.655c0-17.879-14.544-32.423-32.422-32.423z" fill="#e3dff4"/><g><path d="m258.085 241.375c-8.284 0-15-6.716-15-15v-21c0-8.284 6.716-15 15-15s15 6.716 15 15v21c0 8.284-6.716 15-15 15z" fill="#08475e"/></g><path d="m273.085 226.375v-21c0-8.284-6.716-15-15-15v51c8.284 0 15-6.716 15-15z" fill="#05303d"/></g></svg>