<svg id="Layer_1" enable-background="new 0 0 512 512" height="512" viewBox="0 0 512 512" width="512" xmlns="http://www.w3.org/2000/svg"><g><path d="m242.368 75.25c0-19.607-12.526-36.325-29.964-42.538v-17.712c0-8.284-6.716-15-15-15s-15 6.716-15 15v17.713c-17.433 6.214-29.954 22.932-29.954 42.537s12.521 36.323 29.954 42.537v108.093c0 8.284 6.716 15 15 15s15-6.716 15-15v-108.092c17.439-6.213 29.964-22.931 29.964-42.538zm-44.964 15.13c-8.246 0-14.954-6.787-14.954-15.13s6.708-15.13 14.954-15.13c8.251 0 14.964 6.787 14.964 15.13s-6.713 15.13-14.964 15.13z" fill="#33abfe"/><g><path d="m497 512h-482c-8.284 0-15-6.716-15-15v-271.125c0-8.284 6.716-15 15-15h482c8.284 0 15 6.716 15 15v271.125c0 8.284-6.716 15-15 15z" fill="#6bde1e"/></g><path d="m497 210.875h-241v301.125h241c8.284 0 15-6.716 15-15v-271.125c0-8.284-6.716-15-15-15z" fill="#00c364"/><g><path d="m407.123 451.75h-302.245c-8.284 0-15-6.716-15-15 0-8.34-6.711-15.125-14.959-15.125-8.284 0-15-6.716-15-15l-.001-90.375c0-3.978 1.58-7.793 4.394-10.606 2.813-2.813 6.628-4.394 10.606-4.394 8.249 0 14.96-6.785 14.96-15.125 0-8.284 6.716-15 15-15h302.244c8.284 0 15 6.716 15 15 0 8.34 6.711 15.125 14.959 15.125 8.284 0 15 6.716 15 15v90.375c0 8.284-6.716 15-15 15-8.248 0-14.959 6.785-14.959 15.125.001 8.284-6.715 15-14.999 15z" fill="#fff"/></g><path d="m437.082 301.25c-8.248 0-14.959-6.785-14.959-15.125 0-8.284-6.716-15-15-15h-151.123v180.625h151.123c8.284 0 15-6.716 15-15 0-8.34 6.711-15.125 14.959-15.125 8.284 0 15-6.716 15-15v-90.375c0-8.284-6.716-15-15-15z" fill="#efc"/><g><path d="m256 451.75c-20.961 0-40.475-9.803-54.945-27.603-13.734-16.895-21.299-39.173-21.299-62.732s7.564-45.837 21.299-62.732c14.471-17.8 33.984-27.603 54.945-27.603s40.475 9.803 54.945 27.603c13.734 16.895 21.299 39.173 21.299 62.732s-7.564 45.837-21.299 62.732c-14.47 17.8-33.984 27.603-54.945 27.603z" fill="#6bde1e"/></g><path d="m310.945 298.683c-14.471-17.8-33.984-27.603-54.945-27.603v180.67c20.961 0 40.475-9.803 54.945-27.603 13.734-16.895 21.299-39.173 21.299-62.732s-7.564-45.837-21.299-62.732z" fill="#00c364"/><g><path d="m257.326 301.125c-8.284 0-15-6.716-15-15s6.716-15 15-15c24.768 0 44.918-20.299 44.918-45.25 0-15.072-7.419-29.111-19.846-37.553-6.853-4.655-8.634-13.984-3.979-20.837 4.655-6.852 13.985-8.633 20.836-3.979 20.656 14.032 32.988 37.348 32.988 62.368.001 41.494-33.607 75.251-74.917 75.251z" fill="#33abfe"/></g><path d="m299.256 163.507c-6.851-4.654-16.181-2.874-20.836 3.979s-2.874 16.182 3.979 20.837c12.427 8.442 19.846 22.48 19.846 37.553 0 24.951-20.15 45.25-44.918 45.25-.447 0-.89.021-1.326.061v29.878c.437.04.879.061 1.326.061 41.31 0 74.918-33.757 74.918-75.25-.001-25.022-12.333-48.337-32.989-62.369z" fill="#3f91e9"/></g></svg>