<svg id="Layer_1" enable-background="new 0 0 512 512" height="512" viewBox="0 0 512 512" width="512" xmlns="http://www.w3.org/2000/svg"><g><path d="m466.875 60.25c-24.951 0-45.25-20.299-45.25-45.25 0-8.284-6.716-15-15-15h-70.095l-15.46 60 54.93 76-91 176.5s-66.825-172.86-65.5-178l70.59-74.5 15.46-60h-200.175c-8.284 0-15 6.716-15 15 0 24.951-20.299 45.25-45.25 45.25-8.284 0-15 6.716-15 15v113.403c0 77.666 18.924 148.136 54.727 203.79 38.787 60.293 96.719 101.482 167.534 119.113 1.19.296 2.407.444 3.624.444s2.434-.148 3.624-.444c70.813-17.631 128.743-58.819 167.524-119.113 35.796-55.651 54.716-126.121 54.716-203.789v-113.404c.001-8.284-6.715-15-14.999-15z" fill="#c43970"/><g fill="#912e60"><path d="m466.875 60.25c-24.951 0-45.25-20.299-45.25-45.25 0-8.284-6.716-15-15-15h-70.095l-15.46 60 54.93 76-91 176.5s-13.965-36.124-29-75.835v275.334c.003 0 .007.001.01.001 1.217 0 2.434-.148 3.624-.444 70.813-17.631 128.743-58.819 167.524-119.113 35.796-55.651 54.716-126.121 54.716-203.789v-113.404c.001-8.284-6.715-15-14.999-15z"/><path d="m305.55 0h-49.55v95.978l34.09-35.978z"/></g><path d="m414.383 106.199c-16.045-9.278-29.43-22.663-38.708-38.708-2.68-4.636-7.629-7.491-12.985-7.491h-41.62l-18.282 70.949 24.069 24.069c4.033 4.032 5.43 10.002 3.605 15.405l-30.125 89.209c-2.113 6.258-7.952 10.205-14.21 10.205-1.591 0-3.209-.255-4.801-.792-7.849-2.65-12.063-11.162-9.412-19.011l27.146-80.388-23.541-23.541c-3.753-3.753-5.244-9.209-3.919-14.35l18.49-71.755h-140.78c-5.355 0-10.305 2.855-12.986 7.492-9.277 16.045-22.662 29.43-38.707 38.707-4.636 2.681-7.492 7.63-7.492 12.986v69.469c0 66.131 15.625 125.375 45.188 171.328 27.883 43.343 66.957 73.279 116.137 88.978 1.483.474 3.022.71 4.561.71s3.078-.237 4.561-.71c49.176-15.697 88.246-45.632 116.125-88.975 29.556-45.951 45.179-105.196 45.179-171.331v-69.469c-.001-5.356-2.856-10.305-7.493-12.986z" fill="#ff6e7e"/><path d="m414.383 106.199c-16.045-9.278-29.43-22.663-38.708-38.708-2.68-4.636-7.629-7.491-12.985-7.491h-41.62l-18.282 70.949 24.069 24.069c4.033 4.032 5.43 10.002 3.605 15.405l-30.125 89.209c-2.113 6.258-7.952 10.205-14.21 10.205-1.591 0-3.209-.255-4.801-.792-7.849-2.65-12.063-11.162-9.412-19.011l27.146-80.388-23.541-23.541c-3.753-3.753-5.244-9.209-3.919-14.35l18.49-71.755h-34.09v389.669h.01c1.539 0 3.078-.237 4.561-.71 49.176-15.697 88.246-45.632 116.125-88.975 29.556-45.951 45.179-105.196 45.179-171.331v-69.469c0-5.355-2.855-10.304-7.492-12.985z" fill="#ff448e"/></g></svg>