<svg id="Layer_1" enable-background="new 0 0 512 512" height="512" viewBox="0 0 512 512" width="512" xmlns="http://www.w3.org/2000/svg"><g><g><path d="m346.375 361.375c-8.284 0-15-6.716-15-15v-60.25c0-8.284 6.716-15 15-15s15 6.716 15 15v60.25c0 8.284-6.716 15-15 15z" fill="#08475e"/></g><g><path d="m454.375 301.125h-396.75c-23.469 0-42.563-19.093-42.563-42.563v-108.062l54.604-45.125-54.603-45.125v-17.687c0-23.47 19.093-42.563 42.562-42.563h396.75c23.469 0 42.563 19.093 42.563 42.563v17.687l-55.271 45.125 55.271 45.125v108.063c0 23.469-19.094 42.562-42.563 42.562z" fill="#33abfe"/></g><path d="m454.375 0h-198.375v301.125h198.375c23.469 0 42.563-19.093 42.563-42.563v-108.062l-55.271-45.125 55.271-45.125v-17.687c0-23.47-19.094-42.563-42.563-42.563z" fill="#3f91e9"/><g><path d="m496.938 150.5h-481.875v-90.25h481.875z" fill="#08475e"/></g><g><path d="m120.438 240.875h-30.125c-8.284 0-15-6.716-15-15s6.716-15 15-15h30.125c8.284 0 15 6.716 15 15s-6.716 15-15 15z" fill="#0a617d"/></g><g><path d="m210.813 240.875h-30.125c-8.284 0-15-6.716-15-15s6.716-15 15-15h30.125c8.284 0 15 6.716 15 15s-6.716 15-15 15z" fill="#0a617d"/></g><g><path d="m301.188 240.875h-30.125c-8.284 0-15-6.716-15-15s6.716-15 15-15h30.125c8.284 0 15 6.716 15 15s-6.716 15-15 15z" fill="#08475e"/></g><path d="m256 60.25h240.938v90.25h-240.938z" fill="#05303d"/><g><g><path d="m466.875 361.375c-8.284 0-15-6.716-15-15v-60.25c0-24.951-20.299-45.25-45.25-45.25-8.284 0-15-6.716-15-15s6.716-15 15-15c41.493 0 75.25 33.757 75.25 75.25v60.25c0 8.284-6.716 15-15 15z" fill="#05303d"/></g></g><g><path d="m464.516 512h-115.782c-17.878 0-32.422-14.544-32.422-32.422v-115.78c0-17.878 14.544-32.422 32.422-32.422h115.781c17.878 0 32.422 14.544 32.422 32.422v115.78c.001 17.878-14.543 32.422-32.421 32.422z" fill="#ffe271"/></g><path d="m464.516 331.375h-57.891v180.625h57.891c17.878 0 32.422-14.544 32.422-32.422v-115.78c0-17.879-14.544-32.423-32.422-32.423z" fill="#ffb44b"/><g><path d="m406.625 449.813c-8.284 0-15-6.716-15-15v-26.25c0-8.284 6.716-15 15-15s15 6.716 15 15v26.25c0 8.284-6.716 15-15 15z" fill="#08475e"/></g><path d="m421.625 434.813v-26.25c0-8.284-6.716-15-15-15v56.25c8.284 0 15-6.716 15-15z" fill="#05303d"/></g></svg>