<svg id="Layer_1" enable-background="new 0 0 512 512" height="512" viewBox="0 0 512 512" width="512" xmlns="http://www.w3.org/2000/svg"><g><g><path d="m346.375 512h-180.75c-6.353 0-12.095-3.937-14.217-9.925-2.118-5.975-.329-12.569 4.582-16.572 1.785-1.546 30.785-27.478 30.785-78.878 0-8.284 6.716-15 15-15h108.45c8.284 0 15 6.716 15 15 0 51.4 29 77.332 30.785 78.878 4.91 4.003 6.699 10.598 4.582 16.572-2.122 5.988-7.864 9.925-14.217 9.925z" fill="#08475e"/></g><path d="m356.01 485.503c-1.785-1.546-30.785-27.478-30.785-78.878 0-8.284-6.716-15-15-15h-54.225v120.375h90.375c6.353 0 12.095-3.937 14.217-9.925 2.117-5.974.328-12.569-4.582-16.572z" fill="#05303d"/><g><path d="m466.875 421.625h-421.75c-8.284 0-15-6.716-15-15v-60.25c0-8.284 6.716-15 15-15h421.75c8.284 0 15 6.716 15 15v60.25c0 8.284-6.716 15-15 15z" fill="#0a617d"/></g><path d="m466.875 331.375h-210.875v90.25h210.875c8.284 0 15-6.716 15-15v-60.25c0-8.284-6.716-15-15-15z" fill="#08475e"/><path d="m481.875 105.375c0-8.284-6.716-15-15-15h-421.75c-8.284 0-15 6.716-15 15v241h451.75z" fill="#d7faff"/><path d="m466.875 90.375h-210.875v256h225.875v-241c0-8.284-6.716-15-15-15z" fill="#c7f3ff"/><path d="m376.5 105.375s-53.95 60.25-120.5 60.25-120.5-60.25-120.5-60.25 53.95-60.25 120.5-60.25 120.5 60.25 120.5 60.25z" fill="#fbf0f0"/><path d="m376.5 105.375s-53.95 60.25-120.5 60.25-120.5-60.25-120.5-60.25 53.95-60.25 120.5-60.25 120.5 60.25 120.5 60.25z" fill="#fff"/><path d="m376.5 105.375s-53.95-60.25-120.5-60.25v120.5c66.55 0 120.5-60.25 120.5-60.25z" fill="#efc"/><path d="m376.5 105.375s-53.95-60.25-120.5-60.25v120.5c66.55 0 120.5-60.25 120.5-60.25z" fill="#efc"/><g><g><path d="m316.25 301.125h-120.5c-8.284 0-15-6.716-15-15s6.716-15 15-15h120.5c8.284 0 15 6.716 15 15s-6.716 15-15 15z" fill="#0a617d"/></g></g><path d="m316.25 271.125h-60.25v30h60.25c8.284 0 15-6.716 15-15s-6.716-15-15-15z" fill="#08475e"/><g><g><path d="m316.25 240.875h-120.5c-8.284 0-15-6.716-15-15s6.716-15 15-15h120.5c8.284 0 15 6.716 15 15s-6.716 15-15 15z" fill="#0a617d"/></g></g><path d="m316.25 210.875h-60.25v30h60.25c8.284 0 15-6.716 15-15s-6.716-15-15-15z" fill="#08475e"/><g><path d="m105.375 60.125c-8.284 0-15-6.716-15-15v-30.125c0-8.284 6.716-15 15-15h30.125c8.284 0 15 6.716 15 15s-6.716 15-15 15h-15.125v15.125c0 8.284-6.716 15-15 15z" fill="#0a617d"/></g><g><path d="m135.5 210.75h-30.125c-8.284 0-15-6.716-15-15v-30.125c0-8.284 6.716-15 15-15s15 6.716 15 15v15.125h15.125c8.284 0 15 6.716 15 15s-6.716 15-15 15z" fill="#0a617d"/></g><g><path d="m406.625 210.75h-30.125c-8.284 0-15-6.716-15-15s6.716-15 15-15h15.125v-15.125c0-8.284 6.716-15 15-15s15 6.716 15 15v30.125c0 8.284-6.716 15-15 15z" fill="#08475e"/></g><g><path d="m406.625 60.125c-8.284 0-15-6.716-15-15v-15.125h-15.125c-8.284 0-15-6.716-15-15s6.716-15 15-15h30.125c8.284 0 15 6.716 15 15v30.125c0 8.284-6.716 15-15 15z" fill="#08475e"/></g><g><circle cx="256" cy="105.375" fill="#00c364" r="60.25"/></g><path d="m316.25 105.375c0-33.275-26.975-60.25-60.25-60.25v120.5c33.275 0 60.25-26.975 60.25-60.25z" fill="#00a769"/><g><g><path d="m256 120.375c7.846 0 15.363-6.899 15-15-.364-8.127-6.591-15-15-15-7.846 0-15.363 6.899-15 15 .364 8.127 6.591 15 15 15z" fill="#08475e"/></g></g><path d="m271 105.375c-.364-8.127-6.591-15-15-15v30c7.846 0 15.363-6.899 15-15z" fill="#05303d"/><path d="m256 180.625c-72.421 0-129.29-62.58-131.675-65.244-5.1-5.696-5.1-14.316 0-20.013 2.385-2.663 59.254-65.243 131.675-65.243s129.29 62.58 131.675 65.244c5.1 5.696 5.1 14.316 0 20.013-2.385 2.663-59.254 65.243-131.675 65.243zm-99.058-75.25c17.635 15.925 55.963 45.25 99.058 45.25 43.087 0 81.412-29.316 99.057-45.25-17.645-15.934-55.97-45.25-99.057-45.25-43.091 0-81.415 29.318-99.058 45.25z" fill="#ffdbd6"/><path d="m355.057 105.375c-17.645 15.934-55.97 45.25-99.057 45.25v30c72.421 0 129.29-62.58 131.675-65.244 5.1-5.696 5.1-14.316 0-20.013-2.385-2.663-59.254-65.243-131.675-65.243v30c43.087 0 81.412 29.316 99.057 45.25z" fill="#ffc6c2"/></g></svg>