<svg id="Layer_1" enable-background="new 0 0 512 512" height="512" viewBox="0 0 512 512" width="512" xmlns="http://www.w3.org/2000/svg"><g><path d="m243.694 76.245c0-19.535-12.526-36.192-29.964-42.382v-17.537c0-8.284-6.716-15-15-15s-15 6.716-15 15v17.538c-17.433 6.192-29.954 22.848-29.954 42.381s12.521 36.189 29.954 42.38v72.345c0 8.284 6.716 15 15 15s15-6.716 15-15v-72.343c17.439-6.191 29.964-22.848 29.964-42.382zm-44.964 14.963c-8.246 0-14.955-6.713-14.955-14.964s6.708-14.964 14.955-14.964c8.251 0 14.964 6.713 14.964 14.964 0 8.252-6.713 14.964-14.964 14.964z" fill="#33abfe"/><g><path d="m497 510.674h-482c-8.284 0-15-6.716-15-15v-359.511c0-8.284 6.716-15 15-15h122.489c3.978 0 7.793 1.581 10.606 4.394l55.526 55.525h293.379c8.284 0 15 6.716 15 15v299.592c0 8.284-6.716 15-15 15z" fill="#ffe271"/></g><path d="m497 181.082h-241v329.592h241c8.284 0 15-6.716 15-15v-299.592c0-8.285-6.716-15-15-15z" fill="#ffb44b"/><g><g><path d="m437.082 450.755h-119.837c-8.284 0-15-6.716-15-15v-59.918c0-8.284 6.716-15 15-15h119.837c8.284 0 15 6.716 15 15v59.918c0 8.285-6.716 15-15 15z" fill="#fc7900"/></g></g><g><path d="m258.652 265.883c-8.284 0-15-6.716-15-15s6.716-15 15-15c24.768 0 44.918-20.15 44.918-44.918 0-14.946-7.407-28.874-19.814-37.255-6.865-4.638-8.67-13.962-4.033-20.827 4.639-6.865 13.962-8.669 20.827-4.032 20.676 13.968 33.021 37.188 33.021 62.114-.001 41.31-33.609 74.918-74.919 74.918z" fill="#33abfe"/></g><path d="m300.55 128.851c-6.864-4.637-16.188-2.833-20.827 4.032-4.637 6.865-2.832 16.189 4.033 20.827 12.407 8.382 19.814 22.309 19.814 37.255 0 24.768-20.15 44.918-44.918 44.918-.906 0-1.79.094-2.652.248v29.504c.862.154 1.745.248 2.652.248 41.31 0 74.918-33.608 74.918-74.918 0-24.926-12.344-48.146-33.02-62.114z" fill="#3f91e9"/></g></svg>