<svg id="Layer_1" enable-background="new 0 0 512 512" height="512" viewBox="0 0 512 512" width="512" xmlns="http://www.w3.org/2000/svg"><g><g><path d="m316.25 210.75h-120.5c-8.284 0-15-6.716-15-15v-60.25c0-8.284 6.716-15 15-15h120.5c8.284 0 15 6.716 15 15v60.25c0 8.284-6.716 15-15 15z" fill="#08475e"/></g><path d="m316.25 120.5h-60.25v90.25h60.25c8.284 0 15-6.716 15-15v-60.25c0-8.284-6.716-15-15-15z" fill="#05303d"/><g><path d="m316.25 391.5h-120.5c-8.284 0-15-6.716-15-15v-60.25c0-8.284 6.716-15 15-15h120.5c8.284 0 15 6.716 15 15v60.25c0 8.284-6.716 15-15 15z" fill="#08475e"/></g><path d="m316.25 301.25h-60.25v90.25h60.25c8.284 0 15-6.716 15-15v-60.25c0-8.284-6.716-15-15-15z" fill="#05303d"/><g><path d="m468.5 331.25h-425c-23.986 0-43.5-19.514-43.5-43.5v-63.5c0-23.986 19.514-43.5 43.5-43.5h425c23.986 0 43.5 19.514 43.5 43.5v63.5c0 23.986-19.514 43.5-43.5 43.5z" fill="#fbf0f0"/></g><g><path d="m468.5 150.5h-425c-23.986 0-43.5-19.514-43.5-43.5v-63.5c0-23.986 19.514-43.5 43.5-43.5h425c23.986 0 43.5 19.514 43.5 43.5v63.5c0 23.986-19.514 43.5-43.5 43.5z" fill="#fbf0f0"/></g><path d="m468.5 180.75h-212.5v150.5h212.5c23.986 0 43.5-19.514 43.5-43.5v-63.5c0-23.986-19.514-43.5-43.5-43.5z" fill="#e3dff4"/><path d="m468.5 0h-212.5v150.5h212.5c23.986 0 43.5-19.514 43.5-43.5v-63.5c0-23.986-19.514-43.5-43.5-43.5z" fill="#e3dff4"/><g><path d="m468.5 512h-425c-23.986 0-43.5-19.514-43.5-43.5v-63.5c0-23.986 19.514-43.5 43.5-43.5h425c23.986 0 43.5 19.514 43.5 43.5v63.5c0 23.986-19.514 43.5-43.5 43.5z" fill="#fbf0f0"/></g><path d="m468.5 361.5h-212.5v150.5h212.5c23.986 0 43.5-19.514 43.5-43.5v-63.5c0-23.986-19.514-43.5-43.5-43.5z" fill="#e3dff4"/><g><g><path d="m75.236 451.75c7.846 0 15.363-6.899 15-15-.364-8.127-6.591-15-15-15-7.846 0-15.363 6.899-15 15 .364 8.127 6.591 15 15 15z" fill="#6bde1e"/></g></g><g><g><path d="m135.486 451.75c7.846 0 15.363-6.899 15-15-.364-8.127-6.591-15-15-15-7.846 0-15.363 6.899-15 15 .364 8.127 6.591 15 15 15z" fill="#6bde1e"/></g></g><g><g><path d="m195.736 451.75c7.846 0 15.363-6.899 15-15-.364-8.127-6.591-15-15-15-7.846 0-15.363 6.899-15 15 .364 8.127 6.591 15 15 15z" fill="#ff448e"/></g></g><g><g><path d="m256 451.75c7.846 0 15.363-6.899 15-15-.364-8.127-6.591-15-15-15-7.846 0-15.363 6.899-15 15 .364 8.127 6.591 15 15 15z" fill="#ffe271"/></g></g><g><g><path d="m436.75 451.75h-120.5c-8.284 0-15-6.716-15-15s6.716-15 15-15h120.5c8.284 0 15 6.716 15 15s-6.716 15-15 15z" fill="#05303d"/></g></g><g><g><path d="m75.236 271c7.846 0 15.363-6.899 15-15-.364-8.127-6.591-15-15-15-7.846 0-15.363 6.899-15 15 .364 8.127 6.591 15 15 15z" fill="#6bde1e"/></g></g><g><g><path d="m135.486 271c7.846 0 15.363-6.899 15-15-.364-8.127-6.591-15-15-15-7.846 0-15.363 6.899-15 15 .364 8.127 6.591 15 15 15z" fill="#6bde1e"/></g></g><g><g><path d="m195.736 271c7.846 0 15.363-6.899 15-15-.364-8.127-6.591-15-15-15-7.846 0-15.363 6.899-15 15 .364 8.127 6.591 15 15 15z" fill="#ff448e"/></g></g><g><g><path d="m256 271c7.846 0 15.363-6.899 15-15-.364-8.127-6.591-15-15-15-7.846 0-15.363 6.899-15 15 .364 8.127 6.591 15 15 15z" fill="#ffe271"/></g></g><g><g><path d="m436.75 271h-120.5c-8.284 0-15-6.716-15-15s6.716-15 15-15h120.5c8.284 0 15 6.716 15 15s-6.716 15-15 15z" fill="#05303d"/></g></g><g><g><path d="m75.236 90.25c7.846 0 15.363-6.899 15-15-.364-8.127-6.591-15-15-15-7.846 0-15.363 6.899-15 15 .364 8.127 6.591 15 15 15z" fill="#6bde1e"/></g></g><g><g><path d="m135.486 90.25c7.846 0 15.363-6.899 15-15-.364-8.127-6.591-15-15-15-7.846 0-15.363 6.899-15 15 .364 8.127 6.591 15 15 15z" fill="#6bde1e"/></g></g><g><g><path d="m195.736 90.25c7.846 0 15.363-6.899 15-15-.364-8.127-6.591-15-15-15-7.846 0-15.363 6.899-15 15 .364 8.127 6.591 15 15 15z" fill="#ff448e"/></g></g><g><g><path d="m256 90.25c7.846 0 15.363-6.899 15-15-.364-8.127-6.591-15-15-15-7.846 0-15.363 6.899-15 15 .364 8.127 6.591 15 15 15z" fill="#ffe271"/></g></g><g><path d="m436.75 90.25h-120.5c-8.284 0-15-6.716-15-15s6.716-15 15-15h120.5c8.284 0 15 6.716 15 15s-6.716 15-15 15z" fill="#05303d"/></g><g fill="#ffb44b"><path d="m271 436.75c-.364-8.127-6.591-15-15-15v30c7.846 0 15.363-6.899 15-15z"/><path d="m271 256c-.364-8.127-6.591-15-15-15v30c7.846 0 15.363-6.899 15-15z"/><path d="m271 75.25c-.364-8.127-6.591-15-15-15v30c7.846 0 15.363-6.899 15-15z"/></g></g></svg>