<svg id="Layer_1" enable-background="new 0 0 512 512" height="512" viewBox="0 0 512 512" width="512" xmlns="http://www.w3.org/2000/svg"><g><g><path d="m256 491.488c-80.016 0-145.113-65.098-145.113-145.113s65.097-145.113 145.113-145.113 145.113 65.098 145.113 145.113-65.097 145.113-145.113 145.113z" fill="#ffe271"/></g><path d="m401.113 346.375c0-80.016-65.097-145.113-145.113-145.113v290.226c80.016 0 145.113-65.098 145.113-145.113z" fill="#ffb44b"/><path d="m321.463 331.375h-118.889v-36.944h118.889c8.284 0 15-6.716 15-15s-6.716-15-15-15h-50.463v-18.472c0-8.284-6.716-15-15-15s-15 6.716-15 15v18.472h-53.426c-8.284 0-15 6.716-15 15v66.944c0 8.284 6.716 15 15 15h118.889v36.944h-118.889c-8.284 0-15 6.716-15 15s6.716 15 15 15h53.426v18.472c0 8.284 6.716 15 15 15s15-6.716 15-15v-18.472h50.463c8.284 0 15-6.716 15-15v-66.944c0-8.284-6.716-15-15-15z" fill="#ffb44b"/><g fill="#ff7e42"><path d="m271 446.792v-18.472h50.463c8.284 0 15-6.716 15-15v-66.944c0-8.284-6.716-15-15-15h-65.463v30h50.463v36.944h-50.463v63.472c8.284 0 15-6.716 15-15z"/><path d="m321.463 294.431c8.284 0 15-6.716 15-15s-6.716-15-15-15h-50.463v-18.472c0-8.284-6.716-15-15-15v63.472z"/></g><g><path d="m242.21 75.25c0-19.627-12.598-36.359-30.13-42.557v-17.693c0-8.284-6.716-15-15-15s-15 6.716-15 15v17.694c-17.526 6.199-30.12 22.93-30.12 42.556s12.594 36.357 30.12 42.556v89.905c0 8.284 6.716 15 15 15s15-6.716 15-15v-89.904c17.532-6.198 30.13-22.93 30.13-42.557zm-45.13 15.13c-8.337 0-15.12-6.787-15.12-15.13s6.783-15.13 15.12-15.13c8.343 0 15.13 6.787 15.13 15.13s-6.787 15.13-15.13 15.13z" fill="#33abfe"/></g><g><path d="m256 512c-91.326 0-165.625-74.299-165.625-165.625s74.299-165.625 165.625-165.625 165.625 74.299 165.625 165.625-74.299 165.625-165.625 165.625zm0-301.25c-74.784 0-135.625 60.841-135.625 135.625s60.841 135.625 135.625 135.625 135.625-60.841 135.625-135.625-60.841-135.625-135.625-135.625z" fill="#ffb44b"/></g><path d="m391.625 346.375c0 74.784-60.841 135.625-135.625 135.625v30c91.326 0 165.625-74.299 165.625-165.625s-74.299-165.625-165.625-165.625v30c74.784 0 135.625 60.841 135.625 135.625z" fill="#ff7e42"/><g><path d="m257.333 294.431c-8.284 0-15-6.716-15-15s6.716-15 15-15c24.951 0 45.25-20.299 45.25-45.25 0-15.057-7.462-29.087-19.961-37.531-6.864-4.638-8.67-13.962-4.031-20.827 4.637-6.864 13.96-8.669 20.826-4.032 20.768 14.031 33.166 37.354 33.166 62.39 0 41.493-33.757 75.25-75.25 75.25z" fill="#33abfe"/></g><path d="m299.417 156.791c-6.866-4.637-16.189-2.833-20.826 4.032-4.639 6.865-2.833 16.189 4.031 20.827 12.499 8.444 19.961 22.475 19.961 37.531 0 24.951-20.299 45.25-45.25 45.25-.45 0-.893.029-1.333.067v29.865c.44.039.883.067 1.333.067 41.493 0 75.25-33.757 75.25-75.25 0-25.035-12.398-48.358-33.166-62.389z" fill="#3f91e9"/></g></svg>