<svg id="Layer_1" enable-background="new 0 0 512 512" height="512" viewBox="0 0 512 512" width="512" xmlns="http://www.w3.org/2000/svg"><g><g><path d="m159.6 512h-64.267c-8.284 0-15-6.716-15-15v-64.267c0-8.284 6.716-15 15-15h64.267c8.284 0 15 6.716 15 15v64.267c0 8.284-6.716 15-15 15z" fill="#08475e"/></g><g><g><path d="m416.667 512h-64.267c-8.284 0-15-6.716-15-15v-64.267c0-8.284 6.716-15 15-15h64.267c8.284 0 15 6.716 15 15v64.267c0 8.284-6.716 15-15 15z" fill="#05303d"/></g></g><g><path d="m438.314 447.733h-364.628c-22.912 0-41.552-18.64-41.552-41.552v-119.115l47.133-79.195-47.133-79.338v-86.981c-.001-22.912 18.639-41.552 41.552-41.552h364.629c22.912 0 41.552 18.64 41.552 41.552v364.63c0 22.912-18.64 41.551-41.553 41.551z" fill="#0a617d"/></g><path d="m438.314 0h-182.314v447.733h182.314c22.912 0 41.552-18.64 41.552-41.552v-364.629c.001-22.912-18.639-41.552-41.552-41.552z" fill="#08475e"/><g><g><path d="m126.4 287.066h-94.267v-158.533h94.267z" fill="#05303d"/></g></g><g><path d="m400.6 383.467h-289.2c-8.284 0-15-6.716-15-15v-289.2c0-8.284 6.716-15 15-15h289.2c8.284 0 15 6.716 15 15v289.2c0 8.284-6.716 15-15 15z" fill="#fbf0f0"/></g><path d="m400.6 64.267h-144.6v319.2h144.6c8.284 0 15-6.716 15-15v-289.2c0-8.285-6.716-15-15-15z" fill="#e3dff4"/><g><path d="m256 319.2c-52.567 0-95.333-42.767-95.333-95.334 0-52.566 42.767-95.333 95.333-95.333s95.333 42.767 95.333 95.333c0 52.568-42.766 95.334-95.333 95.334z" fill="#0a617d"/></g><path d="m351.333 223.866c0-52.566-42.767-95.333-95.333-95.333v190.667c52.567 0 95.333-42.766 95.333-95.334z" fill="#08475e"/><path d="m279.933 223.866c0 8.284 6.716 15 15 15h55.217c.776-4.888 1.184-9.897 1.184-15s-.408-10.112-1.184-15h-55.217c-8.284 0-15 6.716-15 15z" fill="#05303d"/></g></svg>