<svg id="Layer_1" enable-background="new 0 0 512 512" height="512" viewBox="0 0 512 512" width="512" xmlns="http://www.w3.org/2000/svg"><g><g><path d="m256 512c-60.333 0-117.056-23.495-159.718-66.157s-66.157-99.385-66.157-159.718v-60.25c0-60.333 23.495-117.056 66.157-159.718s99.385-66.157 159.718-66.157 117.056 23.495 159.718 66.157 66.157 99.385 66.157 159.718v60.25c0 60.333-23.495 117.056-66.157 159.718s-99.385 66.157-159.718 66.157z" fill="#efc"/></g><path d="m415.718 445.843c42.662-42.662 66.157-99.385 66.157-159.718v-60.25c0-60.333-23.495-117.056-66.157-159.718s-99.385-66.157-159.718-66.157v512c60.333 0 117.056-23.495 159.718-66.157z" fill="#d5ffab"/><g><path d="m225.875 289.667c-8.284 0-15-6.716-15-15v-48.792c0-24.882 20.243-45.125 45.125-45.125s45.125 20.243 45.125 45.125c0 8.284-6.716 15-15 15s-15-6.716-15-15c0-8.34-6.785-15.125-15.125-15.125s-15.125 6.785-15.125 15.125v48.792c0 8.284-6.716 15-15 15z" fill="#6bde1e"/></g><g><path d="m256 331.25c-8.284 0-15-6.716-15-15s6.716-15 15-15c8.34 0 15.125-6.785 15.125-15.125 0-8.284 6.716-15 15-15s15 6.716 15 15c0 24.882-20.243 45.125-45.125 45.125z" fill="#6bde1e"/></g><g><path d="m165.625 271c-8.284 0-15-6.716-15-15v-30.125c0-29.134 12.229-57.238 33.553-77.107 6.061-5.646 15.553-5.312 21.2.749s5.313 15.552-.749 21.2c-15.479 14.423-24.004 34.013-24.004 55.158v30.125c0 8.284-6.716 15-15 15z" fill="#6bde1e"/></g><g><path d="m256 391.5c-23.89 0-47.292-8.218-65.894-23.141-18.311-14.688-31.34-35.3-36.686-58.035-1.896-8.064 3.104-16.139 11.168-18.035 8.066-1.898 16.139 3.104 18.035 11.168 8.037 34.175 38.21 58.043 73.377 58.043 41.562 0 75.375-33.813 75.375-75.375v-60.25c0-41.562-33.813-75.375-75.375-75.375-8.284 0-15-6.716-15-15s6.716-15 15-15c58.104 0 105.375 47.271 105.375 105.375v60.25c0 58.104-47.271 105.375-105.375 105.375z" fill="#6bde1e"/></g><g><path d="m15 90.25c-8.284 0-15-6.716-15-15v-60.25c0-8.284 6.716-15 15-15h60.25c8.284 0 15 6.716 15 15s-6.716 15-15 15h-45.25v45.25c0 8.284-6.716 15-15 15z" fill="#ff448e"/></g><g><path d="m497 90.25c-8.284 0-15-6.716-15-15v-45.25h-45.25c-8.284 0-15-6.716-15-15s6.716-15 15-15h60.25c8.284 0 15 6.716 15 15v60.25c0 8.284-6.716 15-15 15z" fill="#c43970"/></g><g><path d="m497 512h-60.25c-8.284 0-15-6.716-15-15s6.716-15 15-15h45.25v-45.25c0-8.284 6.716-15 15-15s15 6.716 15 15v60.25c0 8.284-6.716 15-15 15z" fill="#c43970"/></g><g><path d="m75.25 512h-60.25c-8.284 0-15-6.716-15-15v-60.25c0-8.284 6.716-15 15-15s15 6.716 15 15v45.25h45.25c8.284 0 15 6.716 15 15s-6.716 15-15 15z" fill="#ff448e"/></g><g><path d="m120.623 174.741c-2.213 0-4.461-.491-6.583-1.53-7.44-3.643-10.52-12.627-6.878-20.067 13.43-27.437 34.172-50.627 59.985-67.064 26.534-16.898 57.259-25.83 88.853-25.83 8.284 0 15 6.716 15 15s-6.716 15-15 15c-52.216 0-98.922 29.153-121.894 76.083-2.603 5.318-7.936 8.408-13.483 8.408z" fill="#6bde1e"/></g><g><path d="m256 451.75c-91.326 0-165.625-74.299-165.625-165.625v-60.25c0-8.284 6.716-15 15-15s15 6.716 15 15v60.25c0 74.784 60.841 135.625 135.625 135.625 9.212 0 18.414-.928 27.349-2.756 8.117-1.665 16.042 3.571 17.703 11.688s-3.572 16.042-11.688 17.703c-10.91 2.233-22.136 3.365-33.364 3.365z" fill="#6bde1e"/></g><g><path d="m342.585 424.402c-4.717 0-9.36-2.219-12.281-6.37-4.767-6.775-3.139-16.132 3.637-20.898 36.12-25.413 57.684-66.911 57.684-111.009 0-8.284 6.716-15 15-15s15 6.716 15 15c0 53.85-26.326 104.521-70.421 135.544-2.625 1.847-5.637 2.733-8.619 2.733z" fill="#00c364"/></g><g><path d="m406.625 240.875c-8.284 0-15-6.716-15-15 0-54.634-32.516-103.688-82.838-124.973-7.63-3.228-11.199-12.029-7.972-19.659 3.226-7.63 12.026-11.199 19.658-7.972 61.447 25.99 101.151 85.891 101.151 152.604.001 8.284-6.715 15-14.999 15z" fill="#00c364"/></g><g fill="#00c364"><path d="m289.364 448.385c8.116-1.661 13.349-9.587 11.688-17.703s-9.586-13.353-17.703-11.688c-8.935 1.828-18.137 2.756-27.349 2.756v30c11.228 0 22.454-1.132 33.364-3.365z"/><path d="m301.125 286.125c0-8.284-6.716-15-15-15s-15 6.716-15 15c0 8.34-6.785 15.125-15.125 15.125v30c24.882 0 45.125-20.243 45.125-45.125z"/><path d="m271.125 225.875c0 8.284 6.716 15 15 15s15-6.716 15-15c0-24.882-20.243-45.125-45.125-45.125v30c8.34 0 15.125 6.785 15.125 15.125z"/><path d="m331.375 225.875v60.25c0 41.562-33.813 75.375-75.375 75.375v30c58.104 0 105.375-47.271 105.375-105.375v-60.25c0-58.104-47.271-105.375-105.375-105.375v30c41.562 0 75.375 33.813 75.375 75.375z"/><path d="m271 75.25c0-8.284-6.716-15-15-15v30c8.284 0 15-6.716 15-15z"/></g></g></svg>