<svg id="Layer_1" enable-background="new 0 0 512 512" height="512" viewBox="0 0 512 512" width="512" xmlns="http://www.w3.org/2000/svg"><g><g><path d="m13.215 498.8c-8.522-8.521-13.215-19.852-13.215-31.907 0-12.048 4.689-23.38 13.214-31.917l113.3-113.29c5.859-5.857 15.355-5.856 21.213.001l42.6 42.6c5.857 5.857 5.858 15.354.001 21.213l-113.296 113.304c-8.797 8.789-20.351 13.184-31.906 13.184s-23.113-4.397-31.911-13.188z" fill="#ffb44b"/></g><path d="m13.215 498.8c8.798 8.791 20.355 13.188 31.911 13.188s23.109-4.395 31.906-13.184l113.295-113.305c5.857-5.858 5.856-15.355-.001-21.213l-21.3-21.3z" fill="#ff7e42"/><g><path d="m126.514 321.687 98.58-98.58c5.857-5.857 15.355-5.857 21.213 0l42.6 42.6c5.858 5.857 5.858 15.355 0 21.213l-98.58 98.58z" fill="#08475e"/></g><path d="m190.326 385.499 98.58-98.58c5.858-5.857 5.858-15.355 0-21.213l-21.3-21.3-109.186 109.187z" fill="#05303d"/><circle cx="327.709" cy="184.304" fill="#bdf3ff" r="169.291"/><path d="m327.709 353.595c93.497 0 169.291-75.794 169.291-169.291 0-46.749-18.949-89.071-49.584-119.707l-239.414 239.414c30.635 30.636 72.958 49.584 119.707 49.584z" fill="#7fe4f6"/><g><path d="m252.458 284.763v-36.786c-19.224-19.629-30.124-46.137-30.124-73.756 0-58.104 47.271-105.375 105.375-105.375s105.375 47.271 105.375 105.375c0 27.62-10.901 54.127-30.125 73.756v36.786c0 8.284-6.716 15-15 15h-120.5c-8.285 0-15.001-6.716-15.001-15z" fill="#fff"/></g><path d="m407.054 104.958-154.596 154.597v25.208c0 8.284 6.716 15 15 15h120.5c8.284 0 15-6.716 15-15v-36.786c19.224-19.629 30.125-46.136 30.125-73.756 0-26.492-9.829-50.728-26.029-69.263z" fill="#fbf0f0"/><path d="m143.417 184.304c0-101.618 82.673-184.291 184.292-184.291s184.291 82.673 184.291 184.291c0 101.619-82.673 184.292-184.292 184.292s-184.291-82.673-184.291-184.292zm30 0c0 85.077 69.215 154.292 154.292 154.292s154.291-69.215 154.291-154.292c0-85.076-69.215-154.291-154.292-154.291s-154.291 69.215-154.291 154.291z" fill="#ff448e"/><g><g><path d="m358.834 189.221c-7.846 0-15.363-6.899-15-15 .364-8.127 6.591-15 15-15 7.846 0 15.363 6.899 15 15-.364 8.127-6.591 15-15 15z" fill="#05303d"/></g></g><g><g><g><path d="m296.584 189.221c-7.846 0-15.363-6.899-15-15 .364-8.127 6.591-15 15-15 7.846 0 15.363 6.899 15 15-.364 8.127-6.591 15-15 15z" fill="#08475e"/></g></g></g><g><path d="m342.708 299.763v-47.217c0-8.284-6.716-15-15-15s-15 6.716-15 15v47.217z" fill="#05303d"/></g><path d="m512 184.304c0-50.809-20.668-96.882-54.039-130.252l-21.203 21.203c27.938 27.938 45.242 66.511 45.242 109.049 0 85.077-69.215 154.292-154.292 154.292-42.538 0-81.111-17.304-109.049-45.242l-21.203 21.203c33.371 33.371 79.443 54.039 130.253 54.039 101.618 0 184.291-82.673 184.291-184.292z" fill="#c43970"/></g></svg>