<svg id="Layer_1" enable-background="new 0 0 512 512" height="512" viewBox="0 0 512 512" width="512" xmlns="http://www.w3.org/2000/svg"><g><g><path d="m455.583 308.238h-399.166c-31.108 0-56.417-25.309-56.417-56.416v-157.502c0-31.108 25.309-56.417 56.417-56.417h399.166c31.108 0 56.417 25.308 56.417 56.417v157.502c0 31.107-25.309 56.416-56.417 56.416z" fill="#fbf0f0"/></g><path d="m455.583 37.903h-200.248v270.335h200.248c31.108 0 56.417-25.309 56.417-56.416v-157.502c0-31.109-25.309-56.417-56.417-56.417z" fill="#e3dff4"/><g><path d="m435.587 248.155h-360.503c-8.284 0-15-6.716-15-15s6.716-15 15-15h360.503c8.284 0 15 6.716 15 15s-6.716 15-15 15z" fill="#bdf3ff"/></g><path d="m435.587 218.155h-180.252v30h180.252c8.284 0 15-6.716 15-15s-6.716-15-15-15z" fill="#7fe4f6"/><path d="m156.381 143.029 19.436-19.436c5.858-5.857 5.858-15.355 0-21.213-5.857-5.857-15.355-5.857-21.213 0l-19.436 19.436-19.436-19.436c-5.857-5.857-15.355-5.857-21.213 0s-5.858 15.355 0 21.213l19.436 19.436-19.435 19.435c-5.858 5.857-5.858 15.355 0 21.213 2.929 2.929 6.768 4.394 10.606 4.394s7.678-1.465 10.606-4.394l19.436-19.436 19.436 19.436c2.929 2.929 6.768 4.394 10.606 4.394s7.678-1.465 10.606-4.394c5.858-5.857 5.858-15.355 0-21.213z" fill="#08475e"/><path d="m276.548 143.029 19.436-19.436c5.858-5.857 5.858-15.355 0-21.213-5.857-5.857-15.355-5.857-21.213 0l-19.436 19.436-19.436-19.436c-5.857-5.857-15.355-5.857-21.213 0s-5.858 15.355 0 21.213l19.436 19.436-19.436 19.436c-5.858 5.857-5.858 15.355 0 21.213 2.929 2.929 6.768 4.394 10.606 4.394s7.678-1.465 10.606-4.394l19.436-19.436 19.436 19.436c2.929 2.929 6.768 4.394 10.606 4.394s7.678-1.465 10.606-4.394c5.858-5.857 5.858-15.355 0-21.213z" fill="#08475e"/><path d="m396.716 143.029 19.436-19.436c5.858-5.857 5.858-15.355 0-21.213-5.857-5.857-15.355-5.857-21.213 0l-19.436 19.436-19.436-19.436c-5.857-5.857-15.355-5.857-21.213 0s-5.858 15.355 0 21.213l19.436 19.436-19.436 19.436c-5.858 5.857-5.858 15.355 0 21.213 2.929 2.929 6.768 4.394 10.606 4.394s7.678-1.465 10.606-4.394l19.436-19.436 19.436 19.436c2.929 2.929 6.768 4.394 10.606 4.394s7.678-1.465 10.606-4.394c5.858-5.857 5.858-15.355 0-21.213z" fill="#05303d"/><path d="m274.771 183.677c2.929 2.929 6.768 4.394 10.606 4.394s7.678-1.465 10.606-4.394c5.858-5.857 5.858-15.355 0-21.213l-19.436-19.436 19.436-19.436c5.858-5.857 5.858-15.355 0-21.213-5.857-5.857-15.355-5.857-21.213 0l-19.436 19.436v42.426z" fill="#05303d"/><path d="m344.302 384.998c42.604 0 77.266-34.661 77.266-77.266l-77.448-15.739-77.084 15.739c0 42.605 34.662 77.266 77.266 77.266z" fill="#fbf0f0"/><path d="m345.834 230.994c-42.604 0-77.266 34.661-77.266 77.266h154.531c0-42.605-34.661-77.266-77.265-77.266z" fill="#cdd2e1"/><path d="m507.279 448.491-97.731-97.732c-5.856-5.858-15.354-5.858-21.213 0-5.858 5.857-5.858 15.355 0 21.213l97.731 97.732c2.929 2.93 6.768 4.394 10.606 4.394s7.678-1.465 10.606-4.394c5.859-5.858 5.859-15.356.001-21.213z" fill="#05303d"/><g><path d="m345.834 398.364c-49.684 0-90.104-40.421-90.104-90.104s40.421-90.104 90.104-90.104 90.104 40.421 90.104 90.104-40.421 90.104-90.104 90.104zm0-150.209c-33.142 0-60.104 26.963-60.104 60.104s26.963 60.104 60.104 60.104 60.104-26.963 60.104-60.104-26.963-60.104-60.104-60.104z" fill="#c43970"/></g></g></svg>