<svg id="Layer_1" enable-background="new 0 0 512 512" height="512" viewBox="0 0 512 512" width="512" xmlns="http://www.w3.org/2000/svg"><g><g><path d="m256.01 512c-1.217 0-2.434-.148-3.624-.444-70.815-17.631-128.748-58.819-167.534-119.113-35.803-55.654-54.727-126.124-54.727-203.79v-113.403c0-8.284 6.716-15 15-15 24.951 0 45.25-20.299 45.25-45.25 0-8.284 6.716-15 15-15h301.25c8.284 0 15 6.716 15 15 0 24.951 20.299 45.25 45.25 45.25 8.284 0 15 6.716 15 15v113.403c0 77.668-18.92 148.138-54.716 203.789-38.782 60.294-96.711 101.482-167.524 119.113-1.191.297-2.407.445-3.625.445z" fill="#00c364"/></g><path d="m466.875 60.25c-24.951 0-45.25-20.299-45.25-45.25 0-8.284-6.716-15-15-15h-150.626v511.999c.004 0 .007.001.011.001 1.217 0 2.434-.148 3.624-.444 70.813-17.631 128.743-58.819 167.524-119.113 35.796-55.651 54.716-126.121 54.716-203.789v-113.404c.001-8.284-6.715-15-14.999-15z" fill="#00a769"/><g><path d="m256.01 449.669c-1.539 0-3.078-.237-4.561-.71-49.18-15.698-88.254-45.635-116.137-88.978-29.562-45.953-45.187-105.197-45.187-171.328v-69.469c0-5.355 2.855-10.305 7.492-12.986 16.045-9.277 29.43-22.662 38.707-38.707 2.681-4.636 7.63-7.492 12.986-7.492h213.38c5.355 0 10.305 2.855 12.985 7.492 9.278 16.045 22.663 29.43 38.708 38.708 4.636 2.681 7.492 7.63 7.492 12.985v69.469c0 66.135-15.623 125.38-45.179 171.331-27.879 43.342-66.949 73.278-116.125 88.975-1.483.474-3.022.71-4.561.71z" fill="#efc"/></g><path d="m414.383 106.199c-16.045-9.278-29.43-22.663-38.708-38.708-2.68-4.636-7.629-7.491-12.985-7.491h-106.691v389.669h.011c1.539 0 3.078-.237 4.561-.71 49.176-15.697 88.246-45.632 116.125-88.975 29.556-45.951 45.179-105.196 45.179-171.331v-69.469c0-5.355-2.855-10.304-7.492-12.985z" fill="#d5ffab"/><g><g><path d="m256 314.25c-48.73 0-88.375-39.645-88.375-88.375s39.645-88.375 88.375-88.375 88.375 39.645 88.375 88.375-39.645 88.375-88.375 88.375z" fill="#fff"/></g></g><path d="m256 137.5-.001 176.75c48.73 0 88.375-39.645 88.375-88.375s-39.644-88.375-88.374-88.375z" fill="#efc"/><g><path d="m256 327.5c-56.036 0-101.625-45.589-101.625-101.625s45.589-101.625 101.625-101.625 101.625 45.589 101.625 101.625-45.589 101.625-101.625 101.625zm0-173.25c-39.494 0-71.625 32.131-71.625 71.625s32.131 71.625 71.625 71.625 71.625-32.131 71.625-71.625-32.131-71.625-71.625-71.625z" fill="#6bde1e"/></g><g><path d="m240.091 259.792c-.786 0-1.577-.062-2.364-.188-4.136-.66-7.808-3.019-10.127-6.507l-16.183-24.337c-4.587-6.898-2.713-16.209 4.185-20.796s16.208-2.714 20.796 4.185l7.178 10.795 35.228-27.768c6.507-5.129 15.938-4.011 21.066 2.495s4.011 15.938-2.495 21.066l-48 37.835c-2.662 2.1-5.938 3.22-9.284 3.22z" fill="#6bde1e"/></g><g fill="#00c364"><path d="m278.806 195.177-22.806 17.976v38.199l41.378-32.615c6.506-5.128 7.623-14.56 2.495-21.066-5.129-6.505-14.56-7.623-21.067-2.494z"/><path d="m256 124.25-.001 30c39.494 0 71.625 32.131 71.625 71.625s-32.13 71.625-71.624 71.625c0 0 0 0-.001 0v30c56.036 0 101.625-45.589 101.625-101.625s-45.588-101.625-101.624-101.625z"/></g></g></svg>