<svg id="Layer_1" enable-background="new 0 0 512.203 512.203" height="512" viewBox="0 0 512.203 512.203" width="512" xmlns="http://www.w3.org/2000/svg"><g><path d="m416.756 241.203h-19.805c-8.284 0-15 6.716-15 15s6.716 15 15 15h19.805c8.284 0 15-6.716 15-15s-6.716-15-15-15z" fill="#05303d"/><g><path d="m336.65 512.203h-180.902c-8.284 0-15-6.716-15-15v-482c0-8.284 6.716-15 15-15h180.902c8.284 0 15 6.716 15 15v482c0 8.284-6.715 15-15 15z" fill="#ff448e"/></g><path d="m336.65 0h-90.451v512h90.451c8.284 0 15-6.716 15-15v-482c0-8.284-6.715-15-15-15z" fill="#c43970"/><circle cx="246.199" cy="256.203" fill="#fff" r="150.752"/><path d="m246.199 105.451v301.504c83.258 0 150.752-67.494 150.752-150.752s-67.493-150.752-150.752-150.752z" fill="#d7faff"/><path d="m246.199 421.955c-91.396 0-165.752-74.356-165.752-165.752s74.357-165.752 165.752-165.752 165.752 74.356 165.752 165.752-74.356 165.752-165.752 165.752zm0-301.504c-74.854 0-135.752 60.898-135.752 135.752s60.898 135.752 135.752 135.752 135.752-60.898 135.752-135.752-60.898-135.752-135.752-135.752z" fill="#0a617d"/><g><path d="m246.204 355.149c-1.539 0-3.078-.236-4.562-.71-22.944-7.325-41.174-21.292-54.183-41.515-13.512-21.004-20.653-47.897-20.653-77.773v-29.649c0-5.356 2.855-10.306 7.493-12.986 5.545-3.206 10.172-7.832 13.38-13.38 2.681-4.636 7.63-7.491 12.985-7.491h91.069c5.355 0 10.306 2.855 12.986 7.492 3.206 5.546 7.833 10.173 13.379 13.379 4.637 2.682 7.492 7.631 7.492 12.986v29.649c0 29.88-7.141 56.773-20.649 77.774-13.008 20.223-31.235 34.19-54.177 41.514-1.482.473-3.021.71-4.56.71z" fill="#6bde1e"/></g><path d="m318.1 192.516c-5.546-3.206-10.173-7.833-13.379-13.379-2.681-4.637-7.631-7.492-12.986-7.492h-45.535v183.505h.005c1.539 0 3.078-.237 4.562-.71 22.941-7.323 41.169-21.291 54.177-41.514 13.509-21.001 20.649-47.895 20.649-77.774v-29.649c-.001-5.357-2.857-10.306-7.493-12.987z" fill="#00c364"/><path d="m381.951 256.203c0 74.854-60.898 135.752-135.752 135.752v30c91.396 0 165.752-74.356 165.752-165.752s-74.356-165.752-165.752-165.752v30c74.854 0 135.752 60.899 135.752 135.752z" fill="#08475e"/></g></svg>