<svg id="Layer_1" enable-background="new 0 0 512 512" height="512" viewBox="0 0 512 512" width="512" xmlns="http://www.w3.org/2000/svg"><g><g><path d="m135.5 60.125c-8.284 0-15-6.716-15-15v-30.125c0-8.284 6.716-15 15-15s15 6.716 15 15v30.125c0 8.284-6.716 15-15 15z" fill="#0a617d"/></g><g><path d="m215.833 60.125c-8.284 0-15-6.716-15-15v-30.125c0-8.284 6.716-15 15-15s15 6.716 15 15v30.125c0 8.284-6.716 15-15 15z" fill="#0a617d"/></g><g><path d="m296.167 60.125c-8.284 0-15-6.716-15-15v-30.125c0-8.284 6.716-15 15-15s15 6.716 15 15v30.125c0 8.284-6.716 15-15 15z" fill="#08475e"/></g><g><path d="m376.5 60.125c-8.284 0-15-6.716-15-15v-30.125c0-8.284 6.716-15 15-15s15 6.716 15 15v30.125c0 8.284-6.716 15-15 15z" fill="#08475e"/></g><g><path d="m135.5 512c-8.284 0-15-6.716-15-15v-30.125c0-8.284 6.716-15 15-15s15 6.716 15 15v30.125c0 8.284-6.716 15-15 15z" fill="#0a617d"/></g><g><path d="m215.833 512c-8.284 0-15-6.716-15-15v-30.125c0-8.284 6.716-15 15-15s15 6.716 15 15v30.125c0 8.284-6.716 15-15 15z" fill="#0a617d"/></g><g><g><path d="m296.167 512c-8.284 0-15-6.716-15-15v-30.125c0-8.284 6.716-15 15-15s15 6.716 15 15v30.125c0 8.284-6.716 15-15 15z" fill="#08475e"/></g></g><g><g><path d="m376.5 512c-8.284 0-15-6.716-15-15v-30.125c0-8.284 6.716-15 15-15s15 6.716 15 15v30.125c0 8.284-6.716 15-15 15z" fill="#08475e"/></g></g><g><path d="m45.125 391.5h-30.125c-8.284 0-15-6.716-15-15s6.716-15 15-15h30.125c8.284 0 15 6.716 15 15s-6.716 15-15 15z" fill="#08475e"/></g><g><path d="m45.125 331.25h-30.125c-8.284 0-15-6.716-15-15s6.716-15 15-15h30.125c8.284 0 15 6.716 15 15s-6.716 15-15 15z" fill="#08475e"/></g><g><path d="m45.125 271h-30.125c-8.284 0-15-6.716-15-15s6.716-15 15-15h30.125c8.284 0 15 6.716 15 15s-6.716 15-15 15z" fill="#08475e"/></g><g><path d="m45.125 210.75h-30.125c-8.284 0-15-6.716-15-15s6.716-15 15-15h30.125c8.284 0 15 6.716 15 15s-6.716 15-15 15z" fill="#08475e"/></g><g><path d="m45.125 150.5h-30.125c-8.284 0-15-6.716-15-15s6.716-15 15-15h30.125c8.284 0 15 6.716 15 15s-6.716 15-15 15z" fill="#08475e"/></g><g><path d="m497 391.5h-30.125c-8.284 0-15-6.716-15-15s6.716-15 15-15h30.125c8.284 0 15 6.716 15 15s-6.716 15-15 15z" fill="#08475e"/></g><g><path d="m497 331.25h-30.125c-8.284 0-15-6.716-15-15s6.716-15 15-15h30.125c8.284 0 15 6.716 15 15s-6.716 15-15 15z" fill="#08475e"/></g><g><path d="m497 271h-30.125c-8.284 0-15-6.716-15-15s6.716-15 15-15h30.125c8.284 0 15 6.716 15 15s-6.716 15-15 15z" fill="#08475e"/></g><g><path d="m497 210.75h-30.125c-8.284 0-15-6.716-15-15s6.716-15 15-15h30.125c8.284 0 15 6.716 15 15s-6.716 15-15 15z" fill="#08475e"/></g><g><path d="m497 150.5h-30.125c-8.284 0-15-6.716-15-15s6.716-15 15-15h30.125c8.284 0 15 6.716 15 15s-6.716 15-15 15z" fill="#08475e"/></g><g><path d="m427.5 481.875h-343c-29.982 0-54.375-24.393-54.375-54.375v-343c0-29.982 24.393-54.375 54.375-54.375h343c29.982 0 54.375 24.393 54.375 54.375v343c0 29.982-24.393 54.375-54.375 54.375z" fill="#fbf0f0"/></g><path d="m427.5 30.125h-171.5v451.75h171.5c29.982 0 54.375-24.393 54.375-54.375v-343c0-29.982-24.393-54.375-54.375-54.375z" fill="#e3dff4"/><g><path d="m406.625 421.625h-301.25c-8.284 0-15-6.716-15-15v-301.25c0-8.284 6.716-15 15-15h301.25c8.284 0 15 6.716 15 15v301.25c0 8.284-6.716 15-15 15z" fill="#0a617d"/></g><path d="m406.625 90.375h-150.625v331.25h150.625c8.284 0 15-6.716 15-15v-301.25c0-8.284-6.716-15-15-15z" fill="#08475e"/><g><path d="m310.202 361.375h-39.202l-15-15.375-15 15.375h-39.202c-8.284 0-15-6.716-15-15v-32.482c-17.301-17.894-27.102-41.929-27.102-66.964 0-53.103 43.202-96.304 96.304-96.304s96.304 43.201 96.304 96.304c0 25.035-9.8 49.07-27.101 66.964v32.482c-.001 8.284-6.717 15-15.001 15z" fill="#fff"/></g><path d="m310.202 361.375c8.284 0 15-6.716 15-15v-32.482c17.301-17.894 27.101-41.929 27.101-66.964 0-53.103-43.202-96.304-96.304-96.304v199.709l15 11.041z" fill="#fbf0f0"/><g><g><path d="m228.898 261.929c7.846 0 15.363-6.899 15-15-.364-8.127-6.591-15-15-15-7.846 0-15.363 6.899-15 15 .364 8.127 6.591 15 15 15z" fill="#08475e"/></g></g><g><g><path d="m283.101 261.929c7.846 0 15.363-6.899 15-15-.364-8.127-6.591-15-15-15-7.846 0-15.363 6.899-15 15 .364 8.127 6.591 15 15 15z" fill="#05303d"/></g></g><g><path d="m241 361.375v-43.983c0-8.284 6.716-15 15-15s15 6.716 15 15v43.983z" fill="#08475e"/></g><path d="m271 361.375v-43.983c0-8.284-6.716-15-15-15v58.983z" fill="#05303d"/></g></svg>