<svg id="Layer_1" enable-background="new 0 0 512 512" height="512" viewBox="0 0 512 512" width="512" xmlns="http://www.w3.org/2000/svg"><g><path d="m507.285 486.39-59.932-59.892c-2.813-2.811-6.626-4.39-10.603-4.39h-264.383l46.195-46.165c5.86-5.856 5.863-15.354.007-21.214-5.855-5.858-15.354-5.861-21.213-.007l-67.43 67.386h-114.926c-8.284 0-15 6.716-15 15s6.716 15 15 15h415.54l55.539 55.502c2.929 2.927 6.766 4.39 10.603 4.39 3.84 0 7.681-1.466 10.61-4.397 5.855-5.86 5.853-15.357-.007-21.213z" fill="#08475e"/><path d="m447.353 426.498c-2.813-2.811-6.626-4.39-10.603-4.39h-180.909v30h174.699l55.539 55.502c2.929 2.927 6.766 4.39 10.603 4.39 3.84 0 7.681-1.466 10.61-4.397 5.855-5.859 5.853-15.356-.007-21.213z" fill="#05303d"/><g><path d="m445.665 133.674c-3.995 0-7.979-1.586-10.932-4.726l-64.719-68.843h-198.179l-55.857 55.82c-2.813 2.811-6.626 4.39-10.603 4.39h-90.375c-8.284 0-15-6.716-15-15s6.716-15 15-15h84.165l55.857-55.82c2.813-2.811 6.626-4.39 10.603-4.39h210.875c4.139 0 8.094 1.71 10.929 4.726l69.162 73.568c5.674 6.036 5.381 15.529-.654 21.203-2.897 2.723-6.589 4.072-10.272 4.072z" fill="#08475e"/></g><path d="m387.429 34.831c-2.835-3.016-6.79-4.726-10.929-4.726h-120.659v30h114.173l64.719 68.843c2.952 3.14 6.937 4.726 10.932 4.726 3.684 0 7.375-1.349 10.271-4.071 6.036-5.674 6.329-15.167.654-21.203z" fill="#05303d"/><g><path d="m194.403 300.946h-58.88c-5.013 0-9.694-2.504-12.477-6.674l-55.82-83.642h-52.226c-8.284 0-15-6.716-15-15s6.716-15 15-15h60.25c5.013 0 9.694 2.504 12.477 6.674l55.82 83.642h50.857c8.284 0 15 6.716 15 15s-6.717 15-15.001 15z" fill="#08475e"/></g><path d="m475.192 333.673-78.305-52.169 82.744-133.74c4.359-7.045 2.181-16.289-4.864-20.647-7.044-4.359-16.29-2.182-20.648 4.864l-85.977 138.965h-51.892c-8.284 0-15 6.716-15 15s6.716 15 15 15h55.711l86.597 57.693c2.557 1.703 5.445 2.519 8.303 2.519 4.848-.001 9.607-2.348 12.497-6.686 4.594-6.894 2.728-16.205-4.166-20.799z" fill="#05303d"/><g><path d="m255.999 172.787c-27.675 0-50.19-22.505-50.19-50.167 0-8.284 6.716-15 15-15s15 6.716 15 15c0 11.12 9.058 20.167 20.19 20.167s20.189-9.047 20.189-20.166c0-8.284 6.716-15 15-15s15 6.716 15 15c0 27.662-22.515 50.166-50.189 50.166z" fill="#08475e"/></g><path d="m291.188 107.621c-8.284 0-15 6.716-15 15 0 11.119-9.057 20.166-20.189 20.166-.037 0-.073-.005-.111-.006v30.003c.037 0 .074.003.111.003 27.674 0 50.189-22.504 50.189-50.166 0-8.284-6.716-15-15-15z" fill="#05303d"/><g><path d="m286.18 272.99-60.361-.001c-8.284 0-15-6.716-15-15l-.001-70.096c0-24.872 20.244-45.106 45.126-45.106h.111c24.881 0 45.124 20.233 45.125 45.104v70.099c0 3.979-1.581 7.794-4.394 10.606-2.812 2.814-6.628 4.394-10.606 4.394z" fill="#0a617d"/></g><path d="m256.055 142.787h-.111c-.019 0-.037.001-.056.001v130.202h30.292c3.978 0 7.793-1.58 10.606-4.394 2.813-2.813 4.394-6.628 4.394-10.606v-70.099c-.001-24.87-20.244-45.104-45.125-45.104z" fill="#08475e"/><path d="m331.361 268.306c0-41.469-33.756-75.208-75.249-75.209h-.222c-20.099 0-38.995 7.822-53.208 22.025-14.215 14.207-22.044 33.096-22.044 53.188l.001 60.543c0 41.471 33.756 75.209 75.249 75.209h.222c20.099 0 38.995-7.822 53.208-22.025 14.215-14.206 22.044-33.095 22.044-53.187z" fill="#6bde1e"/><path d="m256.112 193.097h-.222c-.001 0-.002 0-.002 0l-.001 210.965h.222c20.099 0 38.995-7.822 53.208-22.025 14.215-14.206 22.044-33.095 22.044-53.187l-.001-60.544c.001-41.469-33.756-75.208-75.248-75.209z" fill="#00c364"/><g fill="#ff448e"><ellipse cx="466.875" cy="346.156" rx="45.125" ry="45.105"/><path d="m374.599 391.366c-24.882 0-45.125 20.234-45.125 45.105s20.243 45.104 45.125 45.104 45.125-20.233 45.125-45.104-20.244-45.105-45.125-45.105z"/><path d="m466.875 94.769c-24.882 0-45.125 20.233-45.125 45.104s20.243 45.105 45.125 45.105 45.125-20.234 45.125-45.105-20.243-45.104-45.125-45.104z"/><path d="m75.25 391.366c-24.882 0-45.125 20.234-45.125 45.105s20.243 45.104 45.125 45.104 45.125-20.233 45.125-45.104-20.243-45.105-45.125-45.105z"/><path d="m75.25 150.525c-24.882 0-45.125 20.234-45.125 45.105s20.243 45.104 45.125 45.104 45.125-20.233 45.125-45.104-20.243-45.105-45.125-45.105z"/><path d="m165.625 0c-24.882 0-45.125 20.234-45.125 45.105s20.243 45.104 45.125 45.104 45.125-20.233 45.125-45.104-20.243-45.105-45.125-45.105z"/></g><path d="m210.75 45.105c0-24.871-20.243-45.105-45.125-45.105v90.21c24.882 0 45.125-20.233 45.125-45.105z" fill="#c43970"/><path d="m120.375 195.315c0-24.871-20.243-45.105-45.125-45.105v90.21c24.882 0 45.125-20.233 45.125-45.105z" fill="#c43970"/><path d="m120.375 436.472c0-24.871-20.243-45.105-45.125-45.105v90.21c24.882-.001 45.125-20.234 45.125-45.105z" fill="#c43970"/><path d="m512 139.874c0-24.871-20.243-45.105-45.125-45.105v90.21c24.882 0 45.125-20.234 45.125-45.105z" fill="#c43970"/><path d="m512 346.157c0-24.871-20.243-45.105-45.125-45.105v90.21c24.882-.001 45.125-20.234 45.125-45.105z" fill="#c43970"/><path d="m419.724 436.472c0-24.871-20.243-45.105-45.125-45.105v90.21c24.881-.001 45.125-20.234 45.125-45.105z" fill="#c43970"/></g></svg>