<svg id="Layer_1" enable-background="new 0 0 511.059 511.059" height="512" viewBox="0 0 511.059 511.059" width="512" xmlns="http://www.w3.org/2000/svg"><g><g><path d="m405.23 313.444 104.271-57.062c-1.029-2.08-2.536-3.922-4.443-5.352l-89.828-67.366z" fill="#08475e"/></g><g><g><path d="m105.829 313.444-.401-5.2-.629-8.158-8.971-116.423-89.828 67.367c-1.907 1.43-3.414 3.272-4.443 5.352z" fill="#0a617d"/></g></g><g><path d="m425.23 15v298.444l-169.701 79.85-169.701-79.85v-298.444c0-8.284 6.716-15 15-15h309.402c8.284 0 15 6.716 15 15z" fill="#fbf0f0"/></g><g><path d="m405.631 308.244-150.101 75.05-150.101-75.051-103.845-51.922c-1.028 2.056-1.584 4.348-1.584 6.709v233.029c0 8.284 6.716 15 15 15h481.059c8.284 0 15-6.716 15-15v-233.029c0-2.361-.556-4.653-1.584-6.708z" fill="#ffe271"/></g><path d="m410.23 0h-154.7v393.294l169.7-79.85v-298.444c0-8.284-6.716-15-15-15z" fill="#e3dff4"/><path d="m405.631 308.244-150.101 75.05v127.765h240.529c8.284 0 15-6.716 15-15v-233.029c0-2.361-.556-4.653-1.584-6.708z" fill="#ffb44b"/><g><path d="m255.534 292.03c-1.369 0-2.738-.21-4.058-.632-24.261-7.745-43.537-22.513-57.293-43.896-14.375-22.345-21.973-51.017-21.973-82.916v-32.219c0-4.765 2.54-9.168 6.664-11.552 6.475-3.745 11.877-9.146 15.62-15.62 2.385-4.124 6.788-6.665 11.552-6.665h98.964c4.765 0 9.168 2.54 11.552 6.665 3.744 6.474 9.145 11.876 15.62 15.62 4.124 2.385 6.665 6.788 6.665 11.552v32.219c0 31.899-7.597 60.571-21.969 82.917-13.755 21.384-33.029 36.152-57.288 43.895-1.318.421-2.687.632-4.056.632z" fill="#fff"/></g><path d="m332.184 120.814c-6.475-3.745-11.876-9.146-15.62-15.62-2.385-4.124-6.788-6.665-11.552-6.665h-49.482v193.5h.005c1.369 0 2.738-.21 4.058-.632 24.259-7.744 43.533-22.512 57.288-43.896 14.372-22.346 21.969-51.018 21.969-82.917v-32.219c-.001-4.763-2.542-9.166-6.666-11.551z" fill="#efc"/><g><path d="m255.535 304.03c-1.539 0-3.078-.236-4.561-.71-27.271-8.705-48.938-25.306-64.399-49.341-16.158-25.116-24.698-57.345-24.698-93.2v-36.215c0-5.355 2.855-10.305 7.491-12.985 7.278-4.209 13.35-10.28 17.558-17.558 2.681-4.636 7.63-7.491 12.985-7.491h111.238c5.355 0 10.305 2.855 12.985 7.491 4.208 7.277 10.279 13.349 17.558 17.558 4.636 2.681 7.491 7.63 7.491 12.985v36.215c0 35.855-8.539 68.084-24.693 93.201-15.461 24.036-37.126 40.636-64.394 49.34-1.483.473-3.023.71-4.561.71zm-63.658-171.41v28.158c0 30.088 6.891 56.703 19.929 76.97 10.715 16.657 25.41 28.552 43.729 35.411 18.317-6.858 33.009-18.752 43.723-35.408 13.035-20.267 19.925-46.884 19.925-76.973v-28.158c-6.116-4.549-11.543-9.975-16.091-16.091h-95.125c-4.548 6.117-9.974 11.543-16.09 16.091z" fill="#6bde1e"/></g><g><path d="m245.63 220.03c-.703 0-1.409-.05-2.114-.149-4.125-.588-7.819-2.863-10.199-6.283l-16.699-24c-4.731-6.801-3.054-16.148 3.746-20.88 6.799-4.731 16.148-3.056 20.88 3.745l7.49 10.765 23.962-19.38c6.439-5.208 15.886-4.213 21.096 2.23 5.209 6.441 4.211 15.886-2.23 21.096l-36.499 29.52c-2.686 2.171-6.021 3.336-9.433 3.336z" fill="#6bde1e"/></g><g fill="#00c364"><path d="m272.696 163.847-17.166 13.883v38.584l36.031-29.141c6.441-5.21 7.439-14.654 2.23-21.096-5.21-6.443-14.656-7.438-21.095-2.23z"/><path d="m341.692 111.578c-7.278-4.209-13.35-10.28-17.558-17.558-2.681-4.636-7.63-7.491-12.985-7.491h-55.619v30h47.562c4.548 6.116 9.975 11.542 16.091 16.091v28.158c0 30.089-6.89 56.706-19.925 76.973-10.714 16.656-25.406 28.55-43.723 35.408-.002-.001-.003-.001-.005-.002v30.872h.005c1.539 0 3.078-.236 4.561-.71 27.268-8.704 48.933-25.304 64.394-49.34 16.154-25.117 24.693-57.346 24.693-93.201v-36.215c0-5.355-2.856-10.304-7.491-12.985z"/></g></g></svg>