<svg id="Layer_1" enable-background="new 0 0 512 512" height="512" viewBox="0 0 512 512" width="512" xmlns="http://www.w3.org/2000/svg"><g><g><path d="m256 60.125c-8.284 0-15-6.716-15-15v-30.125c0-8.284 6.716-15 15-15s15 6.716 15 15v30.125c0 8.284-6.716 15-15 15z" fill="#6bde1e"/></g><g><path d="m256 512c-8.284 0-15-6.716-15-15v-30.125c0-8.284 6.716-15 15-15s15 6.716 15 15v30.125c0 8.284-6.716 15-15 15z" fill="#6bde1e"/></g><path d="m271 497v-30.125c0-8.284-6.716-15-15-15v60.125c8.284 0 15-6.716 15-15z" fill="#00c364"/><path d="m271 45.125v-30.125c0-8.284-6.716-15-15-15v60.125c8.284 0 15-6.716 15-15z" fill="#00c364"/><g><path d="m183.878 72.847c-6.127 0-11.879-3.782-14.097-9.873l-10.304-28.309c-2.833-7.785 1.181-16.393 8.965-19.227 7.789-2.834 16.392 1.181 19.227 8.965l10.304 28.309c2.833 7.785-1.181 16.393-8.965 19.227-1.694.616-3.427.908-5.13.908z" fill="#6bde1e"/></g><g><path d="m120.46 109.46c-4.281 0-8.531-1.822-11.498-5.358l-19.364-23.078c-5.325-6.346-4.498-15.808 1.849-21.132 6.345-5.326 15.808-4.498 21.132 1.849l19.364 23.077c5.325 6.346 4.498 15.808-1.849 21.132-2.81 2.359-6.232 3.51-9.634 3.51z" fill="#6bde1e"/></g><g><path d="m73.363 165.565c-2.545 0-5.124-.648-7.486-2.013l-26.089-15.062c-7.175-4.142-9.633-13.315-5.49-20.49 4.142-7.175 13.315-9.635 20.49-5.49l26.089 15.063c7.175 4.142 9.633 13.315 5.49 20.49-2.778 4.811-7.82 7.502-13.004 7.502z" fill="#6bde1e"/></g><g><path d="m48.347 234.385c-.865 0-1.741-.075-2.622-.23l-29.668-5.231c-8.159-1.439-13.606-9.219-12.168-17.377 1.438-8.159 9.227-13.604 17.377-12.168l29.668 5.231c8.159 1.438 13.606 9.219 12.168 17.377-1.284 7.277-7.614 12.398-14.755 12.398z" fill="#6bde1e"/></g><g><path d="m18.644 312.853c-7.143 0-13.472-5.12-14.755-12.398-1.438-8.158 4.009-15.938 12.168-17.377l29.668-5.231c8.163-1.437 15.938 4.01 17.377 12.168s-4.009 15.938-12.168 17.377l-29.668 5.231c-.881.154-1.758.23-2.622.23z" fill="#6bde1e"/></g><g><path d="m47.302 391.503c-5.184 0-10.226-2.69-13.004-7.503-4.143-7.175-1.685-16.349 5.49-20.49l26.089-15.063c7.175-4.144 16.348-1.685 20.49 5.49s1.685 16.349-5.49 20.49l-26.089 15.063c-2.362 1.364-4.941 2.013-7.486 2.013z" fill="#6bde1e"/></g><g><path d="m101.08 455.617c-3.402 0-6.823-1.151-9.634-3.51-6.347-5.324-7.174-14.786-1.849-21.132l19.364-23.077c5.325-6.348 14.785-7.174 21.132-1.849 6.347 5.324 7.174 14.786 1.849 21.132l-19.364 23.077c-2.967 3.537-7.218 5.359-11.498 5.359z" fill="#6bde1e"/></g><g><path d="m173.572 497.47c-1.704 0-3.436-.292-5.13-.908-7.784-2.834-11.798-11.441-8.965-19.227l10.304-28.309c2.833-7.784 11.44-11.796 19.227-8.965 7.784 2.834 11.798 11.441 8.965 19.227l-10.304 28.309c-2.217 6.09-7.971 9.873-14.097 9.873z" fill="#6bde1e"/></g><g><path d="m338.428 497.47c-6.127 0-11.879-3.782-14.097-9.873l-10.304-28.309c-2.833-7.785 1.181-16.393 8.965-19.227 7.785-2.835 16.392 1.181 19.227 8.965l10.304 28.309c2.833 7.785-1.181 16.393-8.965 19.227-1.695.616-3.427.908-5.13.908z" fill="#00c364"/></g><g><path d="m410.92 455.617c-4.281 0-8.531-1.822-11.498-5.358l-19.364-23.077c-5.325-6.346-4.498-15.808 1.849-21.132 6.345-5.325 15.807-4.498 21.132 1.849l19.364 23.077c5.325 6.346 4.498 15.808-1.849 21.132-2.81 2.358-6.232 3.509-9.634 3.509z" fill="#00c364"/></g><g><path d="m464.698 391.503c-2.545 0-5.124-.648-7.486-2.013l-26.089-15.063c-7.175-4.142-9.633-13.315-5.49-20.49 4.143-7.174 13.315-9.635 20.49-5.49l26.089 15.063c7.175 4.142 9.633 13.315 5.49 20.49-2.778 4.812-7.82 7.503-13.004 7.503z" fill="#00c364"/></g><g><path d="m493.356 312.853c-.865 0-1.741-.075-2.622-.23l-29.668-5.231c-8.159-1.438-13.606-9.219-12.168-17.377 1.438-8.159 9.224-13.607 17.377-12.168l29.668 5.231c8.159 1.439 13.606 9.219 12.168 17.377-1.283 7.276-7.613 12.398-14.755 12.398z" fill="#00c364"/></g><g><path d="m463.653 234.385c-7.143 0-13.472-5.12-14.755-12.398-1.438-8.158 4.009-15.938 12.168-17.377l29.668-5.231c8.162-1.436 15.938 4.01 17.377 12.168s-4.009 15.938-12.168 17.377l-29.668 5.231c-.88.155-1.757.23-2.622.23z" fill="#00c364"/></g><g><path d="m438.637 165.565c-5.184 0-10.226-2.69-13.004-7.503-4.143-7.175-1.685-16.349 5.49-20.49l26.089-15.063c7.174-4.144 16.349-1.685 20.49 5.49 4.143 7.175 1.685 16.349-5.49 20.49l-26.089 15.063c-2.362 1.365-4.941 2.013-7.486 2.013z" fill="#00c364"/></g><g><path d="m391.54 109.46c-3.402 0-6.823-1.151-9.634-3.51-6.347-5.324-7.174-14.786-1.849-21.132l19.364-23.077c5.325-6.348 14.785-7.175 21.132-1.849 6.347 5.324 7.174 14.786 1.849 21.132l-19.364 23.077c-2.967 3.537-7.218 5.359-11.498 5.359z" fill="#00c364"/></g><g><path d="m328.122 72.847c-1.704 0-3.436-.292-5.13-.908-7.784-2.834-11.798-11.441-8.965-19.227l10.304-28.309c2.834-7.784 11.442-11.797 19.227-8.965 7.784 2.834 11.798 11.441 8.965 19.227l-10.304 28.309c-2.217 6.089-7.971 9.873-14.097 9.873z" fill="#00c364"/></g><g><path d="m256 481.875c-60.333 0-117.056-23.495-159.718-66.157s-66.157-99.385-66.157-159.718 23.495-117.056 66.157-159.718 99.385-66.157 159.718-66.157 117.056 23.495 159.718 66.157 66.157 99.385 66.157 159.718-23.495 117.056-66.157 159.718-99.385 66.157-159.718 66.157z" fill="#00c364"/></g><path d="m415.718 415.718c42.662-42.662 66.157-99.385 66.157-159.718s-23.495-117.056-66.157-159.718-99.385-66.157-159.718-66.157v451.75c60.333 0 117.056-23.495 159.718-66.157z" fill="#00a769"/><g><path d="m165.625 213.458c-24.882 0-45.125-20.243-45.125-45.125s20.243-45.125 45.125-45.125 45.125 20.243 45.125 45.125-20.243 45.125-45.125 45.125z" fill="#6bde1e"/></g><g><path d="m165.625 361.375c-24.882 0-45.125-20.243-45.125-45.125s20.243-45.125 45.125-45.125 45.125 20.243 45.125 45.125-20.243 45.125-45.125 45.125z" fill="#6bde1e"/></g><g><path d="m345.569 330.444c-24.882 0-45.125-20.243-45.125-45.125s20.243-45.125 45.125-45.125 45.125 20.243 45.125 45.125-20.243 45.125-45.125 45.125z" fill="#00c364"/></g><g><g><path d="m225 414.667c7.846 0 15.363-6.899 15-15-.364-8.127-6.591-15-15-15-7.846 0-15.363 6.899-15 15 .364 8.127 6.591 15 15 15z" fill="#6bde1e"/></g></g><g><g><path d="m298.194 134.528c7.846 0 15.363-6.899 15-15-.364-8.127-6.591-15-15-15-7.846 0-15.363 6.899-15 15 .364 8.127 6.591 15 15 15z" fill="#00c364"/></g></g><g><g><path d="m358.194 193.194c7.846 0 15.363-6.899 15-15-.364-8.127-6.591-15-15-15-7.846 0-15.363 6.899-15 15 .364 8.127 6.591 15 15 15z" fill="#00c364"/></g></g></g></svg>