<svg id="Layer_1" enable-background="new 0 0 512 512" height="512" viewBox="0 0 512 512" width="512" xmlns="http://www.w3.org/2000/svg"><g><g><g><path d="m256.01 512c-1.217 0-2.434-.148-3.624-.444-70.815-17.631-128.748-58.819-167.534-119.113-35.803-55.654-54.727-126.124-54.727-203.79v-113.403c0-8.284 6.716-15 15-15 24.951 0 45.25-20.299 45.25-45.25 0-8.284 6.716-15 15-15h301.25c8.284 0 15 6.716 15 15 0 24.951 20.299 45.25 45.25 45.25 8.284 0 15 6.716 15 15v113.403c0 77.668-18.92 148.138-54.716 203.789-38.782 60.294-96.711 101.482-167.524 119.113-1.191.297-2.407.445-3.625.445z" fill="#c43970"/></g></g><g><path d="m466.875 60.25c-24.951 0-45.25-20.299-45.25-45.25 0-8.284-6.716-15-15-15h-150.626v511.999c.004 0 .007.001.011.001 1.217 0 2.434-.148 3.624-.444 70.813-17.631 128.743-58.819 167.524-119.113 35.796-55.651 54.716-126.121 54.716-203.789v-113.404c.001-8.284-6.715-15-14.999-15z" fill="#912e60"/></g><g><g><path d="m256.01 449.669c-1.539 0-3.078-.237-4.561-.71-49.18-15.698-88.254-45.635-116.137-88.978-29.562-45.953-45.188-105.197-45.188-171.328v-69.469c0-5.355 2.855-10.305 7.492-12.986 16.045-9.277 29.43-22.662 38.707-38.707 2.681-4.636 7.63-7.492 12.986-7.492h213.381c5.355 0 10.305 2.855 12.985 7.492 9.278 16.045 22.663 29.43 38.708 38.708 4.636 2.681 7.492 7.63 7.492 12.985v69.469c0 66.135-15.623 125.38-45.179 171.331-27.879 43.342-66.949 73.278-116.125 88.975-1.483.474-3.022.71-4.561.71z" fill="#ff6e7e"/></g></g><g><path d="m414.383 106.199c-16.045-9.278-29.43-22.663-38.708-38.708-2.68-4.636-7.629-7.491-12.985-7.491h-106.691v389.669h.011c1.539 0 3.078-.237 4.561-.71 49.176-15.697 88.246-45.632 116.125-88.975 29.556-45.951 45.179-105.196 45.179-171.331v-69.469c0-5.355-2.855-10.304-7.492-12.985z" fill="#ff448e"/></g><path d="m301.125 225.875c0-24.882-20.243-45.125-45.125-45.125s-45.125 20.243-45.125 45.125c0 19.624 12.596 36.354 30.125 42.552v47.823c0 8.284 6.716 15 15 15s15-6.716 15-15v-47.823c17.529-6.198 30.125-22.928 30.125-42.552z" fill="#c43970"/><path d="m271 316.25v-47.823c17.529-6.198 30.125-22.927 30.125-42.552 0-24.882-20.243-45.125-45.125-45.125v150.5c8.284 0 15-6.716 15-15z" fill="#912e60"/><path d="m256 210.875c-8.284 0-15 6.716-15 15s6.716 15 15 15h120.875v-30z" fill="#33abfe"/><path d="m256 210.875v30h120.875v-30z" fill="#3f91e9"/><g><g><g><g><path d="m400.875 291.014c-24.813 0-45-20.187-45-45v-40.277c0-24.813 20.187-45 45-45s45 20.187 45 45v40.277c0 24.813-20.187 45-45 45zm0-100.278c-8.271 0-15 6.729-15 15v40.277c0 8.271 6.729 15 15 15s15-6.729 15-15v-40.277c0-8.271-6.729-15-15-15z" fill="#05303d"/></g></g></g></g></g></svg>