<svg id="Layer_1" enable-background="new 0 0 512 512" height="512" viewBox="0 0 512 512" width="512" xmlns="http://www.w3.org/2000/svg"><g><path d="m416.714 416.715s-11.337-109.455 64.286-160.714c-75.622-51.26-64.286-160.715-64.286-160.715h.001s-109.455 11.337-160.714-64.286c-51.26 75.622-160.715 64.286-160.715 64.286v-.001s11.337 109.455-64.286 160.714c75.622 51.26 64.286 160.715 64.286 160.715h-.001s109.455-11.337 160.714 64.286c51.26-75.622 160.715-64.286 160.715-64.286z" fill="#fff"/><g><path d="m416.714 95.286c-.045.005-109.465 11.321-160.713-64.286-.001.001-.002.003-.003.004v449.995l.001.001c51.259-75.621 160.711-64.286 160.715-64.286-.004-.045-11.321-109.464 64.286-160.713-75.621-51.259-64.286-160.711-64.286-160.715z" fill="#efc"/></g><path d="m497 241h-11.224c-25.699-18.922-42.642-48.01-50.378-86.556-4.655-23.199-4.495-43.461-4.086-52.545l5.706-5.706c5.858-5.857 5.858-15.355 0-21.213-5.857-5.857-15.355-5.857-21.213 0l-5.714 5.714c-20.559.933-98.51.558-139.091-54.474v-11.22c0-8.284-6.716-15-15-15s-15 6.716-15 15v11.221c-40.445 54.807-118.538 55.34-139.109 54.457l-5.697-5.697c-5.857-5.857-15.355-5.857-21.213 0s-5.858 15.355 0 21.213l5.707 5.707c.408 9.076.567 29.289-4.066 52.436-7.724 38.599-24.676 67.724-50.401 86.663h-11.221c-8.284 0-15 6.716-15 15s6.716 15 15 15h11.224c25.699 18.922 42.642 48.01 50.378 86.556 4.655 23.199 4.495 43.461 4.086 52.545l-5.706 5.706c-5.858 5.857-5.858 15.355 0 21.213 2.929 2.929 6.768 4.394 10.606 4.394s7.678-1.465 10.606-4.394l5.714-5.714c20.561-.933 98.511-.558 139.092 54.474v11.22c0 8.284 6.716 15 15 15s15-6.716 15-15v-11.221c40.445-54.808 118.54-55.339 139.109-54.456l5.697 5.697c2.929 2.929 6.768 4.394 10.606 4.394s7.678-1.465 10.606-4.394c5.858-5.857 5.858-15.355 0-21.213l-5.707-5.707c-.408-9.076-.567-29.289 4.066-52.436 7.725-38.599 24.677-67.724 50.401-86.663h11.222c8.284 0 15-6.716 15-15s-6.716-15.001-15-15.001zm-91.221-81.694c6.34 32.35 18.853 59.99 36.769 81.694h-55.298c-24.746-19.753-26.547-55.61-26.317-68.72l41.014-41.014c.683 8.496 1.863 17.993 3.832 28.04zm-134.779 4.754c13.507 8.25 28.088 12.603 40.891 14.835l-40.891 40.892zm-30 55.727-40.89-40.89c12.802-2.232 27.385-6.582 40.89-14.829zm-62.102-19.676 40.889 40.889h-55.72c8.248-13.504 12.599-28.088 14.831-40.889zm40.889 70.889-40.889 40.89c-2.232-12.801-6.583-27.385-14.83-40.89zm21.213 21.213v55.72c-13.505-8.248-28.088-12.598-40.89-14.83zm30 0 40.889 40.889c-12.801 2.232-27.384 6.582-40.889 14.83zm62.102 19.676-40.889-40.889h55.72c-8.248 13.504-12.599 28.088-14.831 40.889zm-40.889-70.889 40.889-40.89c2.232 12.801 6.583 27.385 14.83 40.89zm60.482-134.779c10.135 1.986 19.698 3.153 28.046 3.825l-41.048 41.048c-13.111.287-48.835-1.399-68.693-26.34v-55.303c21.704 17.917 49.344 30.429 81.695 36.77zm-193.389.001c32.35-6.34 59.99-18.853 81.694-36.769v55.298c-19.75 24.746-55.608 26.546-68.72 26.317l-41.014-41.014c8.497-.684 17.994-1.864 28.04-3.832zm-53.085 53.084c1.986-10.135 3.153-19.699 3.825-28.047l41.048 41.048c.287 13.11-1.399 48.836-26.341 68.694h-55.302c17.917-21.705 30.43-49.345 36.77-81.695zm0 193.388c-6.34-32.35-18.853-59.99-36.769-81.694h55.298c24.746 19.753 26.547 55.61 26.317 68.72l-41.014 41.014c-.683-8.496-1.863-17.993-3.832-28.04zm53.084 53.085c-10.135-1.986-19.698-3.153-28.046-3.825l41.046-41.047c13.11-.286 48.835 1.397 68.695 26.339v55.303c-21.704-17.917-49.344-30.429-81.695-36.77zm193.389-.001c-32.35 6.34-59.99 18.853-81.694 36.769v-55.297c19.751-24.746 55.611-26.544 68.721-26.316l41.012 41.013c-8.496.683-17.992 1.863-28.039 3.831zm53.085-53.083c-1.969 10.046-3.148 19.542-3.832 28.039l-41.041-41.041c-.287-13.11 1.399-48.836 26.341-68.694h55.301c-17.916 21.705-30.429 49.346-36.769 81.696z" fill="#6bde1e"/><path d="m497 241h-11.224c-25.699-18.922-42.642-48.01-50.378-86.556-4.655-23.199-4.495-43.461-4.086-52.545l5.706-5.706c5.858-5.857 5.858-15.355 0-21.213-5.857-5.857-15.355-5.857-21.213 0l-5.714 5.714c-20.559.933-98.51.558-139.091-54.474v-11.22c0-8.284-6.716-15-15-15-.001 0-.001 0-.002 0v512h.002c8.284 0 15-6.716 15-15v-11.221c40.445-54.808 118.54-55.339 139.109-54.456l5.697 5.697c2.929 2.929 6.768 4.394 10.606 4.394s7.678-1.465 10.606-4.394c5.858-5.857 5.858-15.355 0-21.213l-5.707-5.707c-.408-9.076-.567-29.289 4.066-52.436 7.725-38.599 24.677-67.724 50.401-86.663h11.222c8.284 0 15-6.716 15-15s-6.716-15.001-15-15.001zm-95.053-109.734c.683 8.497 1.863 17.993 3.832 28.04 6.34 32.35 18.853 59.99 36.769 81.694h-55.298c-24.746-19.753-26.547-55.61-26.317-68.72zm-130.947-61.815c21.704 17.917 49.344 30.429 81.695 36.77 10.135 1.986 19.698 3.153 28.046 3.825l-41.048 41.048c-13.111.287-48.835-1.399-68.693-26.34zm76.933 201.549c-8.248 13.504-12.599 28.088-14.831 40.889l-40.889-40.889zm-55.72-30 40.889-40.89c2.232 12.801 6.583 27.385 14.83 40.89zm-21.213-76.94c13.507 8.25 28.088 12.603 40.891 14.835l-40.891 40.892zm0 128.153 40.889 40.889c-12.801 2.232-27.384 6.582-40.889 14.83zm81.694 113.565c-32.35 6.34-59.99 18.853-81.694 36.769v-55.297c19.751-24.746 55.611-26.544 68.721-26.316l41.012 41.013c-8.496.683-17.992 1.863-28.039 3.831zm53.085-53.083c-1.969 10.046-3.148 19.542-3.832 28.039l-41.041-41.041c-.287-13.11 1.399-48.836 26.341-68.694h55.301c-17.916 21.705-30.429 49.346-36.769 81.696z" fill="#00c364"/></g></svg>