<svg id="Layer_1" enable-background="new 0 0 512 512" height="512" viewBox="0 0 512 512" width="512" xmlns="http://www.w3.org/2000/svg"><g><g><path d="m343.647 495.078h-179.261c-5.404 0-10.391-2.907-13.053-7.609-2.663-4.703-2.59-10.474.19-15.108.33-.553 33.714-57.052 33.714-111.791 0-8.284 6.716-15 15-15h107.558c8.284 0 15 6.716 15 15 0 54.964 33.378 111.229 33.715 111.791 2.78 4.635 2.854 10.405.19 15.108-2.662 4.702-7.648 7.609-13.053 7.609z" fill="#08475e"/></g><path d="m322.795 360.569c0-8.284-6.716-15-15-15h-53.778v149.509h89.631c5.404 0 10.391-2.907 13.053-7.609 2.663-4.703 2.59-10.474-.19-15.108-.338-.562-33.716-56.828-33.716-111.792z" fill="#05303d"/><g><path d="m497 375.569h-482c-8.284 0-15-6.716-15-15v-59.754c0-8.284 6.716-15 15-15h482c8.284 0 15 6.716 15 15v59.754c0 8.285-6.716 15-15 15z" fill="#0a617d"/></g><path d="m497 285.815h-242.983v89.754h242.983c8.284 0 15-6.716 15-15v-59.754c0-8.284-6.716-15-15-15z" fill="#08475e"/><g><path d="m0 300.815v-268.893c0-8.284 6.716-15 15-15h482c8.284 0 15 6.716 15 15v268.894h-512z" fill="#d7faff"/></g><path d="m497 16.922h-242.983v283.894h257.983v-268.894c0-8.284-6.716-15-15-15z" fill="#c7f3ff"/><g><path d="m355.549 236.062h-25.234c-27.801 0-53.618-13.801-69.061-36.918l-7.237-10.833-7.237 10.833c-15.442 23.117-41.26 36.918-69.061 36.918h-25.234c-45.663 0-82.813-37.149-82.813-82.813v-51.695c0-8.284 6.716-15 15-15h338.689c8.284 0 15 6.716 15 15v51.695c0 45.663-37.149 82.813-82.812 82.813z" fill="#08475e"/></g><path d="m423.361 86.554h-169.344v101.757l7.237 10.833c15.442 23.117 41.26 36.918 69.061 36.918h25.234c45.663 0 82.813-37.149 82.813-82.813v-51.695c-.001-8.284-6.716-15-15.001-15z" fill="#05303d"/><g><path d="m172.268 176.308h-17.924c-8.284 0-15-6.716-15-15s6.716-15 15-15h17.924c8.284 0 15 6.716 15 15s-6.716 15-15 15z" fill="#d7faff"/></g><g><path d="m352.057 176.308h-17.924c-8.284 0-15-6.716-15-15s6.716-15 15-15h17.924c8.284 0 15 6.716 15 15s-6.716 15-15 15z" fill="#c7f3ff"/></g></g></svg>