<svg id="Layer_1" enable-background="new 0 0 512 512" height="512" viewBox="0 0 512 512" width="512" xmlns="http://www.w3.org/2000/svg"><g><g><path d="m257.309 94.131c-43.633 0-79.131-35.498-79.131-79.131 0-8.284 6.716-15 15-15s15 6.716 15 15c0 27.091 22.04 49.131 49.131 49.131 27.092 0 49.132-22.04 49.132-49.131 0-8.284 6.716-15 15-15s15 6.716 15 15c0 43.633-35.498 79.131-79.132 79.131z" fill="#08475e"/></g><path d="m321.441 0c-8.284 0-15 6.716-15 15 0 27.091-22.04 49.131-49.132 49.131-.439 0-.873-.022-1.31-.033v30c.437.007.87.033 1.31.033 43.634 0 79.132-35.498 79.132-79.131 0-8.284-6.716-15-15-15z" fill="#05303d"/><path d="m257.75 40.077h-.881c-38.356 0-69.562 31.205-69.562 69.562v128.171c0 8.284 6.716 15 15 15h110.005c8.284 0 15-6.716 15-15v-128.171c0-38.357-31.206-69.562-69.562-69.562z" fill="#0a617d"/><path d="m257.75 40.077h-.881v212.733h55.443c8.284 0 15-6.716 15-15v-128.171c0-38.357-31.206-69.562-69.562-69.562z" fill="#08475e"/><g><path d="m477.319 336.912h-110.005c-8.284 0-15-6.716-15-15s6.716-15 15-15h110.005c8.284 0 15 6.716 15 15s-6.716 15-15 15z" fill="#08475e"/></g><g><path d="m477.333 475.899c-4.857 0-9.623-2.355-12.511-6.705l-32.064-48.299h-67.061c-8.284 0-15-6.716-15-15s6.716-15 15-15h75.106c5.025 0 9.717 2.517 12.497 6.704l36.516 55.002c4.582 6.902 2.701 16.211-4.2 20.793-2.553 1.694-5.434 2.505-8.283 2.505z" fill="#08475e"/></g><g><path d="m440.804 247.865h-76.108c-8.284 0-15-6.716-15-15s6.716-15 15-15h68.063l32.064-48.299c4.583-6.902 13.893-8.783 20.794-4.2 6.901 4.582 8.782 13.891 4.2 20.793l-36.516 55.002c-2.781 4.187-7.472 6.704-12.497 6.704z" fill="#08475e"/></g><g><g><g><path d="m144.685 336.912h-110.005c-8.284 0-15-6.716-15-15s6.716-15 15-15h110.005c8.284 0 15 6.716 15 15s-6.715 15-15 15z" fill="#0a617d"/></g></g></g><g><path d="m34.667 475.899c-2.85 0-5.73-.81-8.283-2.505-6.902-4.582-8.782-13.892-4.2-20.793l36.516-55.002c2.779-4.187 7.471-6.704 12.497-6.704h75.106c8.284 0 15 6.716 15 15s-6.716 15-15 15h-67.06l-32.066 48.299c-2.888 4.349-7.654 6.704-12.51 6.705z" fill="#0a617d"/></g><g><g><g><path d="m147.305 247.865h-76.108c-5.025 0-9.717-2.517-12.497-6.704l-36.516-55.002c-4.582-6.901-2.702-16.211 4.2-20.793 6.901-4.583 16.211-2.703 20.793 4.2l32.066 48.299h68.062c8.284 0 15 6.716 15 15s-6.716 15-15 15z" fill="#0a617d"/></g></g></g><path d="m258.191 131.824h-1.763c-68.442 0-124.124 55.682-124.124 124.124v131.929c0 68.442 55.682 124.124 124.124 124.124h1.763c68.441 0 124.123-55.682 124.123-124.124v-131.93c0-68.442-55.681-124.123-124.123-124.123z" fill="#6bde1e"/><path d="m258.191 131.824h-1.322v380.176h1.322c68.441 0 124.123-55.682 124.123-124.124v-131.929c0-68.442-55.681-124.123-124.123-124.123z" fill="#00c364"/></g></svg>