<svg id="Layer_1" enable-background="new 0 0 512 512" height="512" viewBox="0 0 512 512" width="512" xmlns="http://www.w3.org/2000/svg"><g><g><path d="m466.875 368.733c-4.142 0-107.509 37.267-210.876 37.267-103.366 0-206.732-37.267-210.874-37.267-8.284 0-15-6.716-15-15v-239.154c0-28.501 23.187-51.688 51.688-51.688h348.375c28.501 0 51.688 23.187 51.688 51.688v239.154c-.001 8.285-6.717 15-15.001 15z" fill="#d7faff"/></g><path d="m430.188 62.892h-174.188v343.108c103.367 0 206.733-37.267 210.875-37.267 8.284 0 15-6.716 15-15v-239.154c0-28.501-23.187-51.687-51.687-51.687z" fill="#c7f3ff"/><g><path d="m256 286.483c-24.882 0-45.125-20.243-45.125-45.125v-60.25c0-24.882 20.243-45.125 45.125-45.125s45.125 20.243 45.125 45.125v60.25c0 24.882-20.243 45.125-45.125 45.125zm0-120.5c-8.34 0-15.125 6.785-15.125 15.125v60.25c0 8.34 6.785 15.125 15.125 15.125s15.125-6.785 15.125-15.125v-60.25c0-8.339-6.785-15.125-15.125-15.125z" fill="#08475e"/></g><path d="m165.625 135.983c-8.284 0-15 6.716-15 15v45.25h-30.25v-45.25c0-8.284-6.716-15-15-15s-15 6.716-15 15v60.25c0 8.284 6.716 15 15 15h45.25v45.25c0 8.284 6.716 15 15 15s15-6.716 15-15v-120.5c0-8.284-6.716-15-15-15z" fill="#08475e"/><path d="m406.625 135.983c-8.284 0-15 6.716-15 15v45.25h-30.25v-45.25c0-8.284-6.716-15-15-15s-15 6.716-15 15v60.25c0 8.284 6.716 15 15 15h45.25v45.25c0 8.284 6.716 15 15 15s15-6.716 15-15v-120.5c0-8.284-6.716-15-15-15z" fill="#05303d"/><path d="m256 135.983v30c8.34 0 15.125 6.785 15.125 15.125v60.25c0 8.34-6.785 15.125-15.125 15.125v30c24.882 0 45.125-20.243 45.125-45.125v-60.25c0-24.881-20.243-45.125-45.125-45.125z" fill="#05303d"/><g><path d="m466.063 449.108h-420.125c-25.331 0-45.938-20.607-45.938-45.937v-49.438c0-8.284 6.716-15 15-15h180.75c4.546 0 8.847 2.062 11.694 5.605l23.926 29.783c1.077 1.342 2.683 2.111 4.404 2.111h40.451c1.722 0 3.327-.77 4.404-2.11l23.926-29.784c2.848-3.544 7.148-5.605 11.694-5.605h180.751c8.284 0 15 6.716 15 15v49.438c0 25.33-20.607 45.937-45.937 45.937z" fill="#08475e"/></g><path d="m497 338.733h-180.75c-4.546 0-8.847 2.062-11.694 5.605l-23.926 29.784c-1.077 1.341-2.683 2.11-4.404 2.11h-20.226v72.875h210.063c25.33 0 45.938-20.607 45.938-45.938v-49.438c-.001-8.282-6.717-14.998-15.001-14.998z" fill="#05303d"/></g></svg>