<svg id="Layer_1" enable-background="new 0 0 512.03 512.03" height="512" viewBox="0 0 512.03 512.03" width="512" xmlns="http://www.w3.org/2000/svg"><g><g><g><path d="m385.259 192.793h-258.658s-13.033-131.212 123.38-191.538c3.783-1.673 8.115-1.673 11.898 0 136.423 60.325 123.38 191.538 123.38 191.538z" fill="#0a789b"/></g></g><path d="m261.879 1.254c-1.865-.825-3.863-1.239-5.864-1.25v192.788h129.244s13.043-131.212-123.38-191.538z" fill="#0a617d"/><g><path d="m450.131 362.199v134.996c0 8.193-6.642 14.835-14.835 14.835h-358.562c-8.193 0-14.835-6.642-14.835-14.835v-134.996c0-22.174 6.262-43.39 17.477-61.538 11.226-18.159 27.404-33.251 47.224-43.156v-64.712s0-40.759 64.712-57.577l129.403.043c64.542 16.849 64.542 57.534 64.542 57.534l.17 64.712c39.654 19.82 64.704 60.356 64.704 104.694z" fill="#0a617d"/></g><path d="m385.429 257.505-.17-64.712s0-40.685-64.542-57.534l-64.702-.021v376.792h179.281c8.193 0 14.835-6.642 14.835-14.835v-134.996c0-44.338-25.05-84.874-64.702-104.694z" fill="#08475e"/><g><path d="m320.717 135.259c-.011 96.792-21.748 122.246-64.702 122.246-42.953 0-64.702-25.465-64.702-122.289 16.796-4.367 37.958-7.114 64.617-7.125 26.743.011 47.959 2.78 64.787 7.168z" fill="#08475e"/></g><path d="m256.015 257.505c42.953 0 64.691-25.455 64.702-122.246-16.81-4.383-37.999-7.151-64.702-7.167z" fill="#05303d"/><g><path d="m139.884 512v-132.475c0-8.284 6.716-15 15-15s15 6.716 15 15v132.475z" fill="#08475e"/></g><g><g><path d="m342.146 512v-132.475c0-8.284 6.716-15 15-15s15 6.716 15 15v132.475z" fill="#05303d"/></g></g></g></svg>