<svg id="Layer_1" enable-background="new 0 0 512.636 512.636" height="512" viewBox="0 0 512.636 512.636" width="512" xmlns="http://www.w3.org/2000/svg"><g><g><path d="m452.76 512.22h-90.447c-33.016 0-59.876-26.86-59.876-59.877v-15.349c0-8.284 6.716-15 15-15h180.201c8.284 0 15 6.716 15 15v15.349c-.002 33.016-26.862 59.877-59.878 59.877z" fill="#08475e"/></g><path d="m497.637 421.994h-89.782v90.226h44.905c33.016 0 59.877-26.86 59.877-59.877v-15.349c-.001-8.284-6.716-15-15-15z" fill="#05303d"/><g><g><path d="m302.436 436.994v-226.137c0-33.017 26.86-59.877 59.876-59.877h90.447c33.016 0 59.877 26.86 59.877 59.877v226.137z" fill="#ff448e"/></g></g><g><path d="m452.76 150.98h-44.905v286.014h104.782v-226.137c-.001-33.016-26.861-59.877-59.877-59.877z" fill="#c43970"/></g><g><path d="m150.324 512.22h-90.448c-33.016 0-59.876-26.861-59.876-59.877v-15.349c0-8.284 6.716-15 15-15h180.201c8.284 0 15 6.716 15 15v15.349c0 33.016-26.861 59.877-59.877 59.877z" fill="#08475e"/></g><path d="m195.201 421.994h-89.782v90.226h44.905c33.016 0 59.877-26.86 59.877-59.877v-15.349c0-8.284-6.716-15-15-15z" fill="#05303d"/><g><path d="m0 436.994v-226.137c0-33.017 26.86-59.877 59.876-59.877h90.447c33.016 0 59.877 26.86 59.877 59.877v226.137z" fill="#d7faff"/></g><path d="m150.324 150.98h-44.905v286.014h104.782v-226.137c0-33.016-26.861-59.877-59.877-59.877z" fill="#c7f3ff"/><path d="m144.765 324.628-41.239-27.122 40.845-27.059c4.194-2.778 6.716-7.474 6.716-12.505s-2.522-9.727-6.716-12.505l-59.79-39.608c-6.905-4.576-16.214-2.686-20.789 4.221-1.692 2.553-2.494 5.435-2.491 8.284h-.004v.097.042 158.115.019.161h.006c-.003 2.833.789 5.698 2.462 8.242 2.882 4.382 7.667 6.76 12.547 6.76 2.828-.001 5.689-.8 8.228-2.47l60.225-39.608c4.218-2.773 6.758-7.483 6.758-12.532s-2.54-9.759-6.758-12.532zm-53.468-55.007v-23.357l17.629 11.679zm0 79.329v-23.581l17.927 11.791z" fill="#7fe4f6"/><g fill="#58b9ee"><path d="m144.765 324.628-39.346-25.877v35.907l3.806 2.503-3.806 2.503v35.906l39.346-25.877c4.218-2.773 6.758-7.483 6.758-12.532s-2.54-9.76-6.758-12.533z"/><path d="m151.087 257.942c0-5.031-2.522-9.727-6.716-12.505l-38.953-25.804v35.986l3.508 2.324-3.508 2.324v35.986l38.953-25.805c4.194-2.779 6.716-7.474 6.716-12.506z"/></g><path d="m447.904 64.696c-6.044-5.664-15.537-5.354-21.202.69l-2.266 2.418v-52.387c0-8.284-6.716-15-15-15h-303.026c-8.284 0-15 6.716-15 15v90.338c0 8.284 6.716 15 15 15s15-6.716 15-15v-75.338h273.027v40.636l-6.736-6.336c-6.035-5.677-15.528-5.386-21.203.648-5.676 6.034-5.386 15.527.648 21.203l32.013 30.112c2.786 2.621 6.463 4.074 10.277 4.074.158 0 .316-.003.474-.008 3.981-.125 7.75-1.83 10.473-4.736l28.212-30.112c5.664-6.046 5.355-15.538-.691-21.202z" fill="#33abfe"/><g><path d="m364.324 301.487v-30.112c0-24.876 20.237-45.113 45.113-45.113 15.088 0 29.11 7.493 37.51 20.044 4.607 6.885 2.762 16.201-4.123 20.809-6.885 4.606-16.202 2.763-20.809-4.123-2.82-4.214-7.522-6.729-12.579-6.729-8.333 0-15.113 6.779-15.113 15.113v30.112h-29.999z" fill="#08475e"/></g><path d="m409.437 226.262c-.531 0-1.056.022-1.582.04v30.044c.52-.054 1.048-.084 1.582-.084 5.056 0 9.758 2.516 12.579 6.729 4.607 6.886 13.924 8.729 20.809 4.123 6.885-4.607 8.73-13.924 4.123-20.809-8.401-12.55-22.423-20.043-37.511-20.043z" fill="#05303d"/><path d="m426.702 65.387-2.266 2.418v-52.388c0-8.284-6.716-15-15-15h-152.801v30h137.801v40.636l-6.736-6.336c-6.035-5.677-15.528-5.386-21.203.648-5.676 6.034-5.386 15.527.648 21.203l32.013 30.112c2.786 2.621 6.463 4.074 10.277 4.074.158 0 .316-.003.474-.008 3.981-.125 7.75-1.83 10.473-4.736l28.212-30.112c5.664-6.046 5.355-15.538-.691-21.202-6.043-5.664-15.536-5.354-21.201.691z" fill="#3f91e9"/><g><path d="m439.549 376.713h-60.226c-8.284 0-15-6.716-15-15v-60.226c0-8.284 6.716-15 15-15h60.226c8.284 0 15 6.716 15 15v60.226c0 8.284-6.715 15-15 15z" fill="#fff"/></g><path d="m439.549 286.487h-31.695v90.226h31.695c8.284 0 15-6.716 15-15v-60.226c0-8.284-6.715-15-15-15z" fill="#e3dff4"/></g></svg>