<svg id="Layer_1" enable-background="new 0 0 512 512" height="512" viewBox="0 0 512 512" width="512" xmlns="http://www.w3.org/2000/svg"><g><g><path d="m450.585 315.965h-350.33c-55.281 0-100.255-44.974-100.255-100.254s44.974-100.255 100.255-100.255c10.123 0 20.13 1.527 29.695 4.49 7.803-59.108 58.521-104.88 119.727-104.88 46.981 0 89.249 27.191 109.065 68.904 5.471-.915 11.023-1.376 16.612-1.376 55.28 0 100.255 44.975 100.255 100.255 0 5.083-.382 10.138-1.141 15.128 22.21 9.407 37.532 31.47 37.532 56.573 0 33.864-27.551 61.415-61.415 61.415z" fill="#d7faff"/></g><path d="m474.469 197.978c.759-4.99 1.141-10.045 1.141-15.128 0-55.28-44.975-100.255-100.255-100.255-5.589 0-11.142.461-16.612 1.376-18.923-39.831-58.32-66.402-102.74-68.721v300.714h194.582c33.864 0 61.415-27.551 61.415-61.415 0-25.102-15.322-47.165-37.531-56.571z" fill="#c7f3ff"/><g><path d="m199.152 255.938c-8.284 0-15-6.716-15-15v-63.65c0-39.617 32.23-71.848 71.848-71.848s71.848 32.23 71.848 71.848c0 8.284-6.716 15-15 15s-15-6.716-15-15c0-23.075-18.772-41.848-41.848-41.848-23.075 0-41.848 18.772-41.848 41.848v63.65c0 8.284-6.715 15-15 15z" fill="#08475e"/></g><path d="m347.251 225.938h-182.498c-24.399 0-44.25 19.851-44.25 44.25v182.497c0 24.399 19.85 44.249 44.25 44.249h182.499c24.399 0 44.25-19.851 44.25-44.25v-182.496c-.001-24.4-19.852-44.25-44.251-44.25z" fill="#ff448e"/><path d="m347.251 225.938h-91.248v270.996h91.248c24.399 0 44.25-19.851 44.25-44.25v-182.496c0-24.4-19.851-44.25-44.25-44.25z" fill="#c43970"/><path d="m301.127 331.312c0-24.882-20.243-45.125-45.125-45.125s-45.125 20.243-45.125 45.125c0 19.624 12.596 36.354 30.125 42.551v47.822c0 8.284 6.716 15 15 15s15-6.716 15-15v-47.822c17.529-6.198 30.125-22.927 30.125-42.551z" fill="#08475e"/><g fill="#05303d"><path d="m271.003 421.685v-47.822c17.529-6.197 30.125-22.927 30.125-42.551 0-24.882-20.243-45.125-45.125-45.125v150.498c8.284 0 15-6.716 15-15z"/><path d="m256 105.439v30c23.075 0 41.848 18.772 41.848 41.848 0 8.284 6.716 15 15 15s15-6.716 15-15c0-39.617-32.231-71.848-71.848-71.848z"/></g></g></svg>