<svg id="Layer_1" enable-background="new 0 0 512 512" height="512" viewBox="0 0 512 512" width="512" xmlns="http://www.w3.org/2000/svg"><g><g><path d="m466.875 415.242c-4.142 0-107.509 37.267-210.876 37.267-103.366 0-206.732-37.267-210.874-37.267-8.284 0-15-6.716-15-15v-239.155c0-28.501 23.187-51.688 51.688-51.688h348.375c28.501 0 51.688 23.187 51.688 51.688v239.154c-.001 8.285-6.717 15.001-15.001 15.001z" fill="#d7faff"/></g><path d="m430.188 109.4h-174.188v343.108c103.367 0 206.733-37.267 210.875-37.267 8.284 0 15-6.716 15-15v-239.154c0-28.501-23.187-51.687-51.687-51.687z" fill="#c7f3ff"/><g><path d="m256 106.862c-8.284 0-15-6.716-15-15v-35.279c0-22.166 18.033-40.199 40.199-40.199h31.499c8.284 0 15 6.716 15 15s-6.716 15-15 15h-31.499c-5.624 0-10.199 4.575-10.199 10.199v35.279c0 8.284-6.716 15-15 15z" fill="#ffe271"/></g><path d="m312.698 16.383h-31.499c-9.535 0-18.301 3.344-25.2 8.911v81.567c8.284 0 15-6.716 15-15v-35.278c0-5.624 4.575-10.199 10.199-10.199h31.499c8.284 0 15-6.716 15-15s-6.715-15.001-14.999-15.001z" fill="#ffb44b"/><path d="m313.243 121.993v-30.131c0-8.284-6.716-15-15-15h-84.486c-8.284 0-15 6.716-15 15v30.131c-38.799 20.922-63.364 61.577-63.364 106.176 0 66.503 54.104 120.606 120.607 120.606s120.607-54.104 120.607-120.606c0-44.599-24.565-85.254-63.364-106.176z" fill="#0a617d"/><path d="m313.243 121.993v-30.131c0-8.284-6.716-15-15-15h-42.243v271.913c66.503 0 120.607-54.104 120.607-120.606 0-44.599-24.565-85.254-63.364-106.176z" fill="#08475e"/><g><path d="m466.063 495.617h-420.125c-25.331 0-45.938-20.608-45.938-45.938v-49.438c0-8.284 6.716-15 15-15h180.75c4.546 0 8.847 2.062 11.694 5.605l23.926 29.783c1.077 1.342 2.683 2.111 4.404 2.111h40.451c1.722 0 3.327-.77 4.404-2.11l23.926-29.784c2.848-3.544 7.148-5.605 11.694-5.605h180.751c8.284 0 15 6.716 15 15v49.438c0 25.33-20.607 45.938-45.937 45.938z" fill="#08475e"/></g><path d="m497 385.242h-180.75c-4.546 0-8.847 2.062-11.694 5.605l-23.926 29.784c-1.077 1.341-2.683 2.11-4.404 2.11h-20.226v72.875h210.063c25.33 0 45.938-20.607 45.938-45.938v-49.438c-.001-8.282-6.717-14.998-15.001-14.998z" fill="#05303d"/><path d="m277.213 221.383 11.402-11.402c5.858-5.857 5.858-15.355 0-21.213-5.857-5.857-15.355-5.857-21.213 0l-11.402 11.402-11.402-11.402c-5.857-5.857-15.355-5.857-21.213 0s-5.858 15.355 0 21.213l11.402 11.402-11.402 11.402c-5.858 5.857-5.858 15.355 0 21.213 2.929 2.929 6.768 4.394 10.606 4.394s7.678-1.465 10.606-4.394l11.403-11.402 11.402 11.402c2.929 2.929 6.768 4.394 10.606 4.394s7.678-1.465 10.606-4.394c5.858-5.857 5.858-15.355 0-21.213z" fill="#ff448e"/><path d="m288.615 188.768c-5.857-5.857-15.355-5.857-21.213 0l-11.402 11.402v42.427l11.402 11.402c2.929 2.929 6.768 4.394 10.606 4.394s7.678-1.465 10.606-4.394c5.858-5.857 5.858-15.355 0-21.213l-11.402-11.402 11.402-11.402c5.86-5.858 5.86-15.357.001-21.214z" fill="#c43970"/></g></svg>