<svg id="Layer_1" enable-background="new 0 0 512 512" height="512" viewBox="0 0 512 512" width="512" xmlns="http://www.w3.org/2000/svg"><g><g><g><path d="m466.875 415.242c-4.142 0-107.509 37.267-210.876 37.267-103.366 0-206.732-37.267-210.874-37.267-8.284 0-15-6.716-15-15v-211.736c0-28.501 23.187-51.688 51.688-51.688h348.375c28.501 0 51.688 23.187 51.688 51.688v211.736c-.001 8.284-6.717 15-15.001 15z" fill="#d7faff"/></g></g><g><path d="m430.188 136.818h-174.188v315.69c103.367 0 206.733-37.267 210.875-37.267 8.284 0 15-6.716 15-15v-211.735c0-28.501-23.187-51.688-51.687-51.688z" fill="#c7f3ff"/></g><g><g><path d="m466.063 495.617h-420.125c-25.331 0-45.938-20.608-45.938-45.938v-49.438c0-8.284 6.716-15 15-15h180.75c4.546 0 8.847 2.062 11.694 5.605l23.926 29.783c1.077 1.342 2.683 2.111 4.404 2.111h40.451c1.722 0 3.327-.77 4.404-2.11l23.926-29.784c2.848-3.544 7.148-5.605 11.694-5.605h180.751c8.284 0 15 6.716 15 15v49.438c0 25.33-20.607 45.938-45.937 45.938z" fill="#08475e"/></g></g><g><path d="m497 385.242h-180.75c-4.546 0-8.847 2.062-11.694 5.605l-23.926 29.784c-1.077 1.341-2.683 2.11-4.404 2.11h-20.226v72.875h210.063c25.33 0 45.938-20.607 45.938-45.938v-49.438c-.001-8.282-6.717-14.998-15.001-14.998z" fill="#05303d"/></g><path d="m176.231 261.777c-5.857-5.857-15.355-5.857-21.213 0l-4.519 4.519v-114.413c0-2.581-.666-5.119-1.934-7.367l-38.948-69.073-26.132 14.734 37.015 65.644v110.475l-4.519-4.519c-5.857-5.857-15.355-5.857-21.213 0s-5.858 15.355 0 21.213l30.125 30.125c2.929 2.929 6.768 4.394 10.606 4.394s7.678-1.465 10.606-4.394l30.125-30.125c5.86-5.858 5.86-15.356.001-21.213z" fill="#00c364"/><path d="m396.019 261.777-4.519 4.519v-110.475l37.015-65.644-26.133-14.734-38.948 69.073c-1.268 2.248-1.934 4.786-1.934 7.367v114.412l-4.519-4.519c-5.857-5.857-15.355-5.857-21.213 0s-5.858 15.355 0 21.213l30.125 30.125c2.929 2.929 6.768 4.394 10.606 4.394s7.678-1.465 10.606-4.394l30.125-30.125c5.858-5.857 5.858-15.355 0-21.213-5.856-5.857-15.354-5.857-21.211.001z" fill="#00a769"/><path d="m275.519 261.777-4.519 4.518v-110.175l40.178-65.463-25.568-15.693-29.61 48.244-29.609-48.244-25.568 15.693 40.177 65.463v110.176l-4.519-4.519c-5.857-5.857-15.355-5.857-21.213 0s-5.858 15.355 0 21.213l30.125 30.125c2.929 2.929 6.768 4.394 10.606 4.394s7.678-1.465 10.606-4.394l30.125-30.125c5.858-5.857 5.858-15.355 0-21.213-5.856-5.858-15.354-5.858-21.211 0z" fill="#00c364"/><path d="m266.606 313.115 30.125-30.125c5.858-5.857 5.858-15.355 0-21.213-5.857-5.857-15.355-5.857-21.213 0l-4.518 4.518v-110.175l40.178-65.463-25.568-15.693-29.61 48.244v194.301c3.839-.001 7.678-1.466 10.606-4.394z" fill="#00a769"/><g><path d="m75.25 106.633c-24.882 0-45.125-20.243-45.125-45.125s20.243-45.125 45.125-45.125 45.125 20.243 45.125 45.125-20.243 45.125-45.125 45.125z" fill="#6bde1e"/></g><g><path d="m436.75 106.633c-24.882 0-45.125-20.243-45.125-45.125s20.243-45.125 45.125-45.125 45.125 20.243 45.125 45.125-20.243 45.125-45.125 45.125z" fill="#6bde1e"/></g><g><path d="m195.75 106.633c-24.882 0-45.125-20.243-45.125-45.125s20.243-45.125 45.125-45.125 45.125 20.243 45.125 45.125-20.243 45.125-45.125 45.125z" fill="#6bde1e"/></g><g><path d="m316.25 106.633c-24.882 0-45.125-20.243-45.125-45.125s20.243-45.125 45.125-45.125 45.125 20.243 45.125 45.125-20.243 45.125-45.125 45.125z" fill="#6bde1e"/></g><g fill="#00c364"><path d="m120.375 61.508c0-24.882-20.243-45.125-45.125-45.125v90.25c24.882 0 45.125-20.243 45.125-45.125z"/><path d="m240.875 61.508c0-24.882-20.243-45.125-45.125-45.125v90.25c24.882 0 45.125-20.243 45.125-45.125z"/><path d="m361.375 61.508c0-24.882-20.243-45.125-45.125-45.125v90.25c24.882 0 45.125-20.243 45.125-45.125z"/><path d="m481.875 61.508c0-24.882-20.243-45.125-45.125-45.125v90.25c24.882 0 45.125-20.243 45.125-45.125z"/></g></g></svg>