<svg id="Layer_1" enable-background="new 0 0 512 512" height="512" viewBox="0 0 512 512" width="512" xmlns="http://www.w3.org/2000/svg"><g><g><path d="m497 512h-482c-8.284 0-15-6.716-15-15v-421.75c0-8.284 6.716-15 15-15h482c8.284 0 15 6.716 15 15v421.75c0 8.284-6.716 15-15 15z" fill="#d7faff"/></g><path d="m497 60.25h-241v451.75h241c8.284 0 15-6.716 15-15v-421.75c0-8.284-6.716-15-15-15z" fill="#c7f3ff"/><g><g><path d="m187.542 364.417h-120.5c-8.284 0-15-6.716-15-15v-36.787c-19.224-19.628-30.125-46.136-30.125-73.755 0-58.104 47.271-105.375 105.375-105.375s105.375 47.271 105.375 105.375c0 27.619-10.901 54.127-30.125 73.755v36.787c0 8.284-6.716 15-15 15z" fill="#fff"/></g><g><g><path d="m97.167 253.875c7.846 0 15.363-6.899 15-15-.364-8.127-6.591-15-15-15-7.846 0-15.363 6.899-15 15 .364 8.127 6.59 15 15 15z" fill="#08475e"/></g></g><g><g><path d="m157.417 253.875c7.846 0 15.363-6.899 15-15-.364-8.127-6.591-15-15-15-7.846 0-15.363 6.899-15 15 .364 8.127 6.59 15 15 15z" fill="#08475e"/></g></g><g><path d="m112.292 364.417v-47.217c0-8.284 6.716-15 15-15s15 6.716 15 15v47.217z" fill="#08475e"/></g><g><path d="m217.667 434.625h-180.75c-8.284 0-15-6.716-15-15s6.716-15 15-15h180.75c8.284 0 15 6.716 15 15s-6.716 15-15 15z" fill="#08475e"/></g></g><g><path d="m436.75 223.667h-90.375c-8.284 0-15-6.716-15-15s6.716-15 15-15h90.375c8.284 0 15 6.716 15 15s-6.716 15-15 15z" fill="#05303d"/></g><g><path d="m436.75 163.5h-90.375c-8.284 0-15-6.716-15-15s6.716-15 15-15h90.375c8.284 0 15 6.716 15 15s-6.716 15-15 15z" fill="#05303d"/></g><g><path d="m436.75 283.917h-90.375c-8.284 0-15-6.716-15-15s6.716-15 15-15h90.375c8.284 0 15 6.716 15 15s-6.716 15-15 15z" fill="#05303d"/></g><g><path d="m436.75 344.167h-90.375c-8.284 0-15-6.716-15-15s6.716-15 15-15h90.375c8.284 0 15 6.716 15 15s-6.716 15-15 15z" fill="#05303d"/></g><g><path d="m436.75 464.75h-90.375c-8.284 0-15-6.716-15-15v-60.333c0-8.284 6.716-15 15-15h90.375c8.284 0 15 6.716 15 15v60.333c0 8.284-6.716 15-15 15z" fill="#00c364"/></g><g><path d="m15 0c-8.28 0-15 6.72-15 15v75.25h421.75v-90.25z" fill="#0a617d"/></g><path d="m512 15v75.25h-90.25l-12.75-41.748 12.75-48.502h75.25c8.28 0 15 6.72 15 15z" fill="#c43970"/><path d="m256 0h165.75v90.25h-165.75z" fill="#08475e"/></g></svg>