<svg id="Layer_1" enable-background="new 0 0 512 512" height="512" viewBox="0 0 512 512" width="512" xmlns="http://www.w3.org/2000/svg"><g><g><path d="m363.81 512h-215.62c-33.026 0-59.895-26.868-59.895-59.895v-15.355c0-8.284 6.716-15 15-15h305.41c8.284 0 15 6.716 15 15v15.355c0 33.027-26.869 59.895-59.895 59.895z" fill="#08475e"/></g><path d="m408.705 421.75h-156.367v90.25h111.472c33.026 0 59.896-26.868 59.896-59.895v-15.355c-.001-8.284-6.717-15-15.001-15z" fill="#05303d"/><path d="m423.705 59.895c0-33.027-26.869-59.895-59.895-59.895h-215.62c-33.026 0-59.895 26.868-59.895 59.895v376.855h335.41z" fill="#d7faff"/><path d="m363.81 0h-111.472v436.75h171.368v-376.855c-.001-33.027-26.87-59.895-59.896-59.895z" fill="#c7f3ff"/><g><path d="m163.545 391.5c-2.743 0-5.478-.751-7.886-2.24-4.422-2.733-7.114-7.562-7.114-12.76v-276.719c0-21.798 17.733-39.531 39.531-39.531h131.688c21.798 0 39.531 17.733 39.531 39.531v222.063c0 21.798-17.733 39.531-39.531 39.531h-92.427l-57.084 28.541c-2.117 1.059-4.416 1.584-6.708 1.584z" fill="#ff448e"/></g><path d="m319.764 60.25h-67.426v301.125h67.426c21.798 0 39.531-17.733 39.531-39.531v-222.063c0-21.798-17.733-39.531-39.531-39.531z" fill="#c43970"/><g><path d="m208.807 195.833v-30.112c0-24.876 20.237-45.113 45.113-45.113 15.088 0 29.11 7.493 37.51 20.044 4.607 6.885 2.762 16.201-4.123 20.809-6.885 4.606-16.202 2.763-20.809-4.123-2.82-4.214-7.522-6.729-12.579-6.729-8.333 0-15.113 6.779-15.113 15.113v30.112h-29.999z" fill="#08475e"/></g><path d="m253.92 120.608c-.531 0-1.056.022-1.582.04v30.044c.52-.054 1.048-.084 1.582-.084 5.056 0 9.758 2.516 12.579 6.729 4.607 6.886 13.924 8.729 20.809 4.123 6.885-4.607 8.73-13.924 4.123-20.809-8.401-12.55-22.423-20.043-37.511-20.043z" fill="#05303d"/><g><path d="m284.033 271.059h-60.226c-8.284 0-15-6.716-15-15v-60.226c0-8.284 6.716-15 15-15h60.226c8.284 0 15 6.716 15 15v60.226c0 8.284-6.716 15-15 15z" fill="#fff"/></g><path d="m284.033 180.833h-31.695v90.226h31.695c8.284 0 15-6.716 15-15v-60.226c0-8.284-6.716-15-15-15z" fill="#e3dff4"/></g></svg>