<svg id="Layer_1" enable-background="new 0 0 512 512" height="512" viewBox="0 0 512 512" width="512" xmlns="http://www.w3.org/2000/svg"><g><g><g><path d="m497 512h-482c-8.284 0-15-6.716-15-15v-421.75c0-8.284 6.716-15 15-15h482c8.284 0 15 6.716 15 15v421.75c0 8.284-6.716 15-15 15z" fill="#d7faff"/></g></g><g><path d="m497 60.25h-241v451.75h241c8.284 0 15-6.716 15-15v-421.75c0-8.284-6.716-15-15-15z" fill="#c7f3ff"/></g><g><path d="m512 15v75.25h-90.25l-12.75-41.748 12.75-48.502h75.25c8.28 0 15 6.72 15 15z" fill="#c43970"/></g><g><g><path d="m15 0c-8.28 0-15 6.72-15 15v75.25h421.75v-90.25z" fill="#0a617d"/></g></g><g><path d="m256 0h165.75v90.25h-165.75z" fill="#08475e"/></g><g><path d="m414.648 261.881h-317.296c-7.271 0-13.166-5.895-13.166-13.166v-105.765c0-7.271 5.895-13.166 13.166-13.166h317.295c7.271 0 13.166 5.895 13.166 13.166v105.765c0 7.272-5.894 13.166-13.165 13.166z" fill="#fbf0f0"/></g><path d="m414.648 129.785h-158.648v132.097h158.648c7.271 0 13.166-5.895 13.166-13.166v-105.766c-.001-7.271-5.895-13.165-13.166-13.165z" fill="#e3dff4"/><g><g><path d="m135.5 210.917c7.846 0 15.363-6.899 15-15-.364-8.127-6.591-15-15-15-7.846 0-15.363 6.899-15 15 .364 8.127 6.591 15 15 15z" fill="#0a617d"/></g></g><g><g><path d="m195.75 210.917c7.846 0 15.363-6.899 15-15-.364-8.127-6.591-15-15-15-7.846 0-15.363 6.899-15 15 .364 8.127 6.591 15 15 15z" fill="#0a617d"/></g></g><g><g><path d="m316.25 210.917c7.846 0 15.363-6.899 15-15-.364-8.127-6.591-15-15-15-7.846 0-15.363 6.899-15 15 .364 8.127 6.591 15 15 15z" fill="#05303d"/></g></g><g><g><path d="m376.5 210.917c7.846 0 15.363-6.899 15-15-.364-8.127-6.591-15-15-15-7.846 0-15.363 6.899-15 15 .364 8.127 6.591 15 15 15z" fill="#05303d"/></g></g><g><path d="m436.75 271.083h-361.5c-8.284 0-15-6.716-15-15v-120.5c0-8.284 6.716-15 15-15h361.5c8.284 0 15 6.716 15 15v120.5c0 8.284-6.716 15-15 15zm-346.5-30h331.5v-90.5h-331.5z" fill="#0a617d"/></g><path d="m436.75 120.583h-180.75v30h165.75v90.5h-165.75v30h180.75c8.284 0 15-6.716 15-15v-120.5c0-8.284-6.716-15-15-15z" fill="#05303d"/><path d="m419.344 428.798-150.625-240.917c-2.741-4.385-7.548-7.048-12.719-7.048s-9.978 2.663-12.719 7.048l-150.625 240.917c-2.891 4.624-3.045 10.453-.401 15.223s7.667 7.729 13.12 7.729h301.25c5.453 0 10.477-2.96 13.12-7.729s2.489-10.599-.401-15.223z" fill="#ffe271"/><path d="m406.625 451.75c5.453 0 10.477-2.96 13.12-7.729s2.489-10.599-.401-15.223l-150.625-240.917c-2.741-4.385-7.548-7.048-12.719-7.048v270.917z" fill="#ffb44b"/><g><path d="m256 343.953c-8.284 0-15-6.716-15-15v-35.953c0-8.284 6.716-15 15-15s15 6.716 15 15v35.953c0 8.284-6.716 15-15 15z" fill="#08475e"/></g><g><g><path d="m256 392.937c7.846 0 15.363-6.899 15-15-.364-8.127-6.591-15-15-15-7.846 0-15.363 6.899-15 15 .364 8.127 6.591 15 15 15z" fill="#08475e"/></g></g><g fill="#05303d"><path d="m271 377.937c-.364-8.127-6.591-15-15-15v30c7.846 0 15.363-6.899 15-15z"/><path d="m271 328.953v-35.953c0-8.284-6.716-15-15-15v65.953c8.284 0 15-6.716 15-15z"/></g></g></svg>