<svg id="Layer_1" enable-background="new 0 0 512 512" height="512" viewBox="0 0 512 512" width="512" xmlns="http://www.w3.org/2000/svg"><g><g><path d="m410.929 443.143h-309.858c-8.284 0-15-6.716-15-15v-258.215c0-93.699 76.23-169.928 169.929-169.928s169.929 76.229 169.929 169.928v258.215c0 8.284-6.716 15-15 15z" fill="#fbf0f0"/></g><path d="m410.929 443.143c8.284 0 15-6.716 15-15v-258.215c0-93.699-76.23-169.928-169.929-169.928v443.143z" fill="#e3dff4"/><g><path d="m241 227.7h30v209.05h-30z" fill="#c43970"/></g><path d="m256 227.7h15v209.05h-15z" fill="#912e60"/><g><g><path d="m479.786 512h-447.572c-8.284 0-15-6.716-15-15v-8.607c0-41.493 33.757-75.25 75.25-75.25h327.072c41.493 0 75.25 33.757 75.25 75.25v8.607c0 8.284-6.716 15-15 15z" fill="#0a617d"/></g></g><path d="m354.261 167.928c-4.423-2.733-9.945-2.981-14.594-.657l-83.667 41.833-83.667-41.833c-4.651-2.326-10.174-2.076-14.594.657-4.423 2.733-7.114 7.561-7.114 12.76v90.375c0 5.199 2.691 10.027 7.114 12.76 2.409 1.489 5.144 2.24 7.887 2.24 2.292 0 4.591-.525 6.707-1.583l83.667-41.834 83.667 41.833c2.117 1.059 4.415 1.583 6.707 1.583 2.743 0 5.479-.751 7.887-2.24 4.423-2.733 7.114-7.561 7.114-12.76v-90.375c0-5.198-2.691-10.026-7.114-12.759z" fill="#ff448e"/><path d="m419.536 413.143h-163.536v98.857h223.786c8.284 0 15-6.716 15-15v-8.607c0-41.493-33.757-75.25-75.25-75.25z" fill="#08475e"/><path d="m339.667 284.479c2.117 1.059 4.415 1.583 6.707 1.583 2.743 0 5.479-.751 7.887-2.24 4.423-2.733 7.114-7.561 7.114-12.76v-90.375c0-5.199-2.691-10.027-7.114-12.76s-9.945-2.981-14.594-.657l-83.667 41.834v33.541z" fill="#c43970"/></g></svg>