<svg id="Layer_1" enable-background="new 0 0 512 512" height="512" viewBox="0 0 512 512" width="512" xmlns="http://www.w3.org/2000/svg"><g><g><path d="m240.938 512c-33.188 0-60.188-27-60.188-60.188v-158.812c0-8.284 6.716-15 15-15s15 6.716 15 15v158.813c0 16.646 13.542 30.188 30.188 30.188s30.188-13.542 30.188-30.188c0-8.284 6.716-15 15-15s15 6.716 15 15c-.001 33.187-27.001 60.187-60.188 60.187z" fill="#3f91e9"/></g><g><path d="m286.124 308.001c-1.45 0-2.917-.211-4.357-.648-3.93-1.192-7.087-3.897-8.913-7.36-7.424-10.164-19.222-16.188-31.847-16.188-13.187 0-25.443 6.556-32.789 17.536-3.674 5.489-10.506 7.93-16.826 6.013-3.93-1.192-7.087-3.897-8.913-7.36-7.424-10.164-19.222-16.188-31.847-16.188-13.187 0-25.443 6.556-32.789 17.536-3.673 5.489-10.507 7.93-16.826 6.013-3.93-1.192-7.087-3.897-8.913-7.36-7.424-10.164-19.222-16.188-31.847-16.188-13.187 0-25.443 6.556-32.789 17.536-3.673 5.489-10.507 7.93-16.826 6.013-6.321-1.922-10.642-7.751-10.642-14.356v-.615c0-107.937 87.813-195.75 195.75-195.75s195.75 87.813 195.75 195.75v.408c0 6.593-4.305 12.413-10.609 14.343-6.303 1.932-13.129-.482-16.82-5.945-7.354-10.887-19.575-17.387-32.688-17.387-13.187 0-25.443 6.556-32.789 17.536-2.837 4.239-7.557 6.661-12.47 6.661z" fill="#08475e"/></g><path d="m208.218 301.34c7.346-10.98 19.603-17.536 32.789-17.536 12.625 0 24.423 6.024 31.847 16.188 1.826 3.463 4.983 6.168 8.913 7.36 1.44.438 2.907.648 4.357.648 4.913 0 9.633-2.422 12.469-6.661 7.346-10.98 19.603-17.536 32.789-17.536 13.113 0 25.334 6.5 32.688 17.387 3.691 5.463 10.518 7.877 16.82 5.945 6.305-1.93 10.609-7.75 10.609-14.343v-.408c0-107.937-87.813-195.75-195.75-195.75v211.354c4.913-.001 9.633-2.41 12.469-6.648z" fill="#05303d"/><path d="m195.755 202.5c-23.872-7.62-42.802-22.114-56.345-43.166-14.598-22.692-22.314-52.113-22.314-85.085v-36.215c9.547-5.52 17.514-13.488 23.034-23.034h111.238c5.52 9.546 13.488 17.514 23.034 23.034v36.215c0 32.973-7.714 62.396-22.309 85.087-13.54 21.051-32.467 35.544-56.338 43.164z" fill="#fff"/><path d="m251.369 15h-55.619v187.498c.002.001.004.001.005.002 23.871-7.62 42.797-22.113 56.338-43.165 14.595-22.69 22.309-52.113 22.309-85.087v-36.214c-9.545-5.52-17.513-13.488-23.033-23.034z" fill="#d5ffab"/><path d="m195.755 217.5c-1.539 0-3.078-.236-4.562-.71-27.269-8.705-48.936-25.305-64.398-49.341-16.157-25.116-24.698-57.345-24.698-93.2v-36.215c0-5.355 2.855-10.305 7.491-12.985 7.278-4.209 13.35-10.28 17.558-17.558 2.68-4.636 7.629-7.491 12.985-7.491h111.238c5.355 0 10.305 2.855 12.985 7.491 4.208 7.277 10.279 13.349 17.558 17.558 4.636 2.681 7.491 7.63 7.491 12.985v36.215c0 35.855-8.539 68.084-24.693 93.201-15.461 24.036-37.126 40.636-64.395 49.34-1.482.474-3.021.71-4.56.71zm-63.658-171.409v28.158c0 30.088 6.892 56.703 19.929 76.97 10.716 16.657 25.411 28.552 43.729 35.411 18.317-6.858 33.01-18.752 43.724-35.408 13.035-20.267 19.925-46.884 19.925-76.973v-28.158c-6.116-4.549-11.543-9.975-16.091-16.091h-95.125c-4.548 6.116-9.975 11.542-16.091 16.091z" fill="#6bde1e"/><g><path d="m185.85 133.5c-.703 0-1.409-.05-2.114-.149-4.125-.588-7.819-2.864-10.198-6.284l-16.698-24c-4.731-6.8-3.055-16.148 3.746-20.879s16.149-3.055 20.879 3.746l7.49 10.764 23.962-19.38c6.439-5.207 15.886-4.212 21.096 2.23 5.209 6.441 4.211 15.886-2.23 21.096l-36.499 29.52c-2.687 2.171-6.022 3.336-9.434 3.336z" fill="#6bde1e"/></g><g fill="#00c364"><path d="m281.912 25.049c-7.278-4.209-13.35-10.28-17.558-17.558-2.68-4.636-7.629-7.491-12.985-7.491h-55.619v30h47.563c4.548 6.116 9.975 11.542 16.091 16.091v28.158c0 30.089-6.89 56.706-19.925 76.973-10.714 16.656-25.406 28.55-43.724 35.408-.002 0-.003-.001-.005-.002v30.872h.005c1.539 0 3.078-.236 4.561-.71 27.269-8.704 48.934-25.304 64.395-49.34 16.154-25.117 24.693-57.346 24.693-93.201v-36.215c-.001-5.355-2.856-10.305-7.492-12.985z"/><path d="m212.916 77.317-17.166 13.884v38.584l36.031-29.141c6.441-5.21 7.439-14.654 2.23-21.096-5.209-6.443-14.656-7.438-21.095-2.231z"/></g></g></svg>