<svg id="Layer_1" enable-background="new 0 0 516 516" height="512" viewBox="0 0 516 516" width="512" xmlns="http://www.w3.org/2000/svg"><g><g><g><path d="m346.375 514h-180.75c-5.404 0-10.391-2.907-13.053-7.609-2.663-4.703-2.59-10.474.19-15.108.333-.558 34.013-57.554 34.013-112.783 0-8.284 6.716-15 15-15h108.449c8.284 0 15 6.716 15 15 0 55.229 33.68 112.225 34.02 112.794 2.77 4.635 2.838 10.406.174 15.102s-7.644 7.604-13.043 7.604z" fill="#08475e"/></g></g><path d="m359.418 506.396c2.664-4.696 2.596-10.467-.174-15.102-.34-.569-34.02-57.565-34.02-112.794 0-8.284-6.716-15-15-15h-52.224v150.5h88.375c5.399 0 10.379-2.908 13.043-7.604z" fill="#05303d"/><g><path d="m501 393.5h-486c-8.284 0-15-6.716-15-15v-60.25c0-8.284 6.716-15 15-15h486c8.284 0 15 6.716 15 15v60.25c0 8.284-6.716 15-15 15z" fill="#0a617d"/></g><path d="m501 303.25h-243v90.25h243c8.284 0 15-6.716 15-15v-60.25c0-8.284-6.716-15-15-15z" fill="#08475e"/><g><path d="m0 318.25v-241c0-8.284 6.716-15 15-15h486c8.284 0 15 6.716 15 15v241z" fill="#6bde1e"/></g><path d="m501 62.25h-243v256h258v-241c0-8.284-6.716-15-15-15z" fill="#00c364"/><path d="m429.147 249.68-160.667-241c-2.781-4.174-7.464-6.68-12.48-6.68s-9.699 2.506-12.48 6.68l-160.667 241c-3.068 4.603-3.354 10.521-.744 15.398 2.609 4.877 7.692 7.922 13.225 7.922h321.334c5.532 0 10.615-3.045 13.225-7.922 2.609-4.877 2.323-10.796-.746-15.398z" fill="#ffe271"/><path d="m268.48 8.68c-2.407-3.612-6.241-5.972-10.48-6.542v270.862h158.667c5.532 0 10.615-3.045 13.225-7.922s2.324-10.795-.744-15.398z" fill="#ffb44b"/><g><path d="m258 167.563c-8.284 0-15-6.716-15-15v-45.188c0-8.284 6.716-15 15-15s15 6.716 15 15v45.188c0 8.284-6.716 15-15 15z" fill="#08475e"/></g><g><g><path d="m258 212.75c7.846 0 15.363-6.899 15-15-.364-8.127-6.591-15-15-15-7.846 0-15.363 6.899-15 15 .364 8.127 6.591 15 15 15z" fill="#08475e"/></g></g><g fill="#05303d"><path d="m273 152.563v-45.188c0-8.284-6.716-15-15-15v75.188c8.284 0 15-6.716 15-15z"/><path d="m273 197.75c-.364-8.127-6.591-15-15-15v30c7.846 0 15.363-6.899 15-15z"/></g></g></svg>