<svg id="Layer_1" enable-background="new 0 0 511.059 511.059" height="512" viewBox="0 0 511.059 511.059" width="512" xmlns="http://www.w3.org/2000/svg"><g><g><g><g><path d="m405.23 313.444 104.271-57.062c-1.029-2.08-2.536-3.922-4.443-5.352l-89.828-67.366z" fill="#08475e"/></g></g></g><g><g><path d="m105.829 313.444-.401-5.2-.629-8.158-8.971-116.423-89.828 67.367c-1.907 1.43-3.414 3.272-4.443 5.352z" fill="#0a617d"/></g></g><g><g><path d="m425.23 15v298.444l-169.701 79.85-169.701-79.85v-298.444c0-8.284 6.716-15 15-15h309.402c8.284 0 15 6.716 15 15z" fill="#ff448e"/></g></g><g><path d="m410.23 0h-154.7v393.294l169.7-79.85v-298.444c0-8.284-6.716-15-15-15z" fill="#c43970"/></g><g><g><path d="m405.631 308.244-150.101 75.05-150.101-75.051-103.845-51.922c-1.028 2.056-1.584 4.348-1.584 6.709v233.029c0 8.284 6.716 15 15 15h481.059c8.284 0 15-6.716 15-15v-233.029c0-2.361-.556-4.653-1.584-6.708z" fill="#ffe271"/></g></g><g><path d="m405.631 308.244-150.101 75.05v127.765h240.529c8.284 0 15-6.716 15-15v-233.029c0-2.361-.556-4.653-1.584-6.708z" fill="#ffb44b"/></g><g><path d="m315.78 290.696h-45.25l-15-28.667-15 28.667h-45.25c-8.284 0-15-6.716-15-15v-36.787c-19.225-19.628-30.125-46.135-30.125-73.755 0-58.104 47.271-105.375 105.375-105.375s105.375 47.271 105.375 105.375c0 27.62-10.9 54.127-30.125 73.755v36.787c0 8.284-6.716 15-15 15z" fill="#fff"/></g><path d="m255.53 59.78v220.75l15 10.166h45.25c8.284 0 15-6.716 15-15v-36.787c19.225-19.628 30.125-46.135 30.125-73.755 0-58.103-47.271-105.374-105.375-105.374z" fill="#e3dff4"/><g><g><path d="m225.405 180.155c7.846 0 15.363-6.899 15-15-.364-8.127-6.591-15-15-15-7.846 0-15.363 6.899-15 15 .364 8.127 6.59 15 15 15z" fill="#08475e"/></g></g><g><g><path d="m285.655 180.155c7.846 0 15.363-6.899 15-15-.364-8.127-6.591-15-15-15-7.846 0-15.363 6.899-15 15 .364 8.127 6.59 15 15 15z" fill="#05303d"/></g></g><g><path d="m240.53 290.696v-47.216c0-8.284 6.716-15 15-15s15 6.716 15 15v47.216z" fill="#08475e"/></g><path d="m255.53 228.48v62.216h15v-47.216c0-8.284-6.716-15-15-15z" fill="#05303d"/></g></svg>