<svg id="Layer_1" enable-background="new 0 0 512 512" height="512" viewBox="0 0 512 512" width="512" xmlns="http://www.w3.org/2000/svg"><g><g><path d="m187.983 220.719h-172.983c-8.284 0-15 6.716-15 15v81l85.333 48 112.65-48z" fill="#ff6e7e"/></g><path d="m0 316.719h85.333l11 48-11 58-85.333-10z" fill="#ff448e"/><path d="m256 316.719h-170.667v106h170.667l25-58z" fill="#c43970"/><path d="m411.667 316.719h-155.667v106l170.667-10v-81c0-8.285-6.716-15-15-15z" fill="#912e60"/><path d="m170.667 412.719h-170.667v81c0 8.284 6.716 15 15 15h155.667l21-42.438z" fill="#ff6e7e"/><path d="m341.333 412.719h-170.666v96h170.666l22.256-48z" fill="#ff448e"/><path d="m324.857 63.854c-5.756-4.212-13.682-3.788-18.956 1.014-5.582 5.082-11.212 7.576-15.846 7.018-3.969-.475-6.569-3.193-8.052-5.39-7.281-10.787-10.618-35.566-11.01-48.64-.161-5.687-3.526-10.793-8.688-13.185s-11.233-1.656-15.676 1.897c-1.155.925-28.629 23.063-56.313 59.052-37.228 48.396-56.905 98.994-56.905 146.322 0 67.596 54.993 122.589 122.589 122.589s122.589-54.993 122.589-122.589c0-107.535-51.537-146.482-53.732-148.088z" fill="#ffb44b"/><path d="m324.857 63.854c-5.756-4.212-13.682-3.788-18.956 1.014-5.582 5.082-11.212 7.576-15.846 7.018-3.969-.475-6.569-3.193-8.052-5.39-7.281-10.787-10.618-35.566-11.01-48.64-.161-5.687-3.526-10.793-8.688-13.185-2.014-.933-4.166-1.384-6.306-1.383v331.244c67.596 0 122.589-54.993 122.589-122.589.001-107.536-51.536-146.483-53.731-148.089z" fill="#ff7e42"/><path d="m292.343 205.137c-11.529-23.183-22.87-42.895-23.347-43.722-2.678-4.646-7.633-7.509-12.996-7.509s-10.317 2.863-12.996 7.509c-.477.828-11.818 20.539-23.347 43.722-21.943 44.125-24.481 60.268-24.481 68.57 0 33.539 27.285 60.824 60.824 60.824s60.824-27.285 60.824-60.824c0-8.302-2.538-24.444-24.481-68.57z" fill="#ffe271"/><path d="m316.824 273.708c0-8.303-2.538-24.445-24.481-68.57-11.529-23.183-22.87-42.895-23.347-43.722-2.678-4.646-7.633-7.509-12.996-7.509v180.625c33.539-.001 60.824-27.286 60.824-60.824z" fill="#ffb44b"/><path d="m255.999 412.719v96h85.334l22.256-48-22.256-48z" fill="#c43970"/><path d="m497 412.719h-155.667v96h155.667c8.284 0 15-6.716 15-15v-66c0-8.285-6.716-15-15-15z" fill="#ff448e"/></g></svg>