<svg id="Layer_1" enable-background="new 0 0 512.006 512.006" height="512" viewBox="0 0 512.006 512.006" width="512" xmlns="http://www.w3.org/2000/svg"><g><g><path d="m411.607 235.796c-3.979 0-7.794-1.581-10.606-4.394l-120.429-120.431c-5.858-5.858-5.858-15.355 0-21.213l85.363-85.365c2.813-2.812 6.629-4.393 10.607-4.393s7.794 1.581 10.606 4.394l120.429 120.432c5.858 5.858 5.858 15.355 0 21.213l-85.363 85.365c-2.813 2.812-6.628 4.392-10.607 4.392z" fill="#fbf0f0"/></g><path d="m401.001 231.403c2.813 2.813 6.628 4.394 10.606 4.394s7.794-1.581 10.606-4.394l85.363-85.365c5.858-5.858 5.858-15.355 0-21.213l-60.18-60.182-106.576 106.578z" fill="#e3dff4"/><g><path d="m374.352 109.94c-3.839 0-7.678-1.464-10.606-4.393-5.858-5.858-5.858-15.355 0-21.213l16.766-16.766c5.857-5.858 15.355-5.858 21.213 0s5.858 15.355 0 21.213l-16.766 16.766c-2.93 2.929-6.769 4.393-10.607 4.393z" fill="#0a617d"/></g><g><g><path d="m417.032 152.623c-3.839 0-7.678-1.464-10.606-4.393-5.858-5.858-5.858-15.355 0-21.213l16.766-16.766c5.857-5.858 15.355-5.858 21.213 0s5.858 15.355 0 21.213l-16.766 16.766c-2.929 2.928-6.768 4.393-10.607 4.393z" fill="#08475e"/></g></g><g><path d="m135.786 512.006c-36.195 0-70.223-14.095-95.816-39.688l-.313-.314c-52.829-52.831-52.829-138.792 0-191.623l215.766-215.772c2.813-2.813 6.628-4.394 10.607-4.394s7.794 1.581 10.606 4.394l170.726 170.729c5.858 5.858 5.858 15.355 0 21.213l-215.76 215.766c-25.593 25.594-59.621 39.689-95.816 39.689z" fill="#00c364"/></g><path d="m39.97 472.317c25.593 25.594 59.621 39.688 95.816 39.688s70.223-14.095 95.816-39.688l215.76-215.766c5.858-5.858 5.858-15.355 0-21.213l-85.329-85.331-322.186 322.187z" fill="#00a769"/><g><path d="m303.612 258.553c-13.406 0-26.01-5.221-35.489-14.701-19.569-19.569-19.569-51.41 0-70.979 5.857-5.858 15.355-5.858 21.213 0s5.858 15.355 0 21.213c-7.872 7.872-7.872 20.682 0 28.554 3.813 3.813 8.884 5.914 14.276 5.914s10.463-2.1 14.276-5.914c5.857-5.858 15.355-5.858 21.213 0s5.858 15.355 0 21.213c-9.479 9.48-22.082 14.7-35.489 14.7z" fill="#08475e"/></g><path d="m303.612 258.553c13.406 0 26.01-5.221 35.489-14.701 5.858-5.858 5.858-15.355 0-21.213-5.857-5.857-15.355-5.858-21.213 0-3.813 3.813-8.884 5.914-14.276 5.914-5.377 0-10.433-2.09-14.242-5.883l-21.214 21.214c9.476 9.46 22.065 14.669 35.456 14.669z" fill="#05303d"/><g><path d="m229.17 340.488c-3.978 0-7.793-1.581-10.606-4.394l-42.682-42.682c-5.858-5.858-5.858-15.355 0-21.213l49.598-49.599c8.522-8.523 19.855-13.217 31.909-13.217s23.386 4.694 31.908 13.217l.046.046c17.626 17.627 17.626 46.254.034 63.848l-49.6 49.6c-2.813 2.814-6.628 4.394-10.607 4.394z" fill="#0a617d"/></g><path d="m218.564 336.095c2.813 2.813 6.628 4.394 10.606 4.394 3.979 0 7.793-1.581 10.606-4.394l49.6-49.6c17.583-17.585 17.591-46.193-.009-63.822l-92.113 92.113z" fill="#08475e"/><path d="m253.818 258.318-.156-.157c-14.213-14.213-33.111-22.042-53.212-22.042s-38.998 7.828-53.211 22.042l-42.839 42.839c-29.338 29.339-29.338 77.078.017 106.434l.157.157c14.211 14.204 33.101 22.025 53.195 22.025 20.101 0 38.998-7.828 53.211-22.042l42.838-42.839c29.339-29.339 29.339-77.078 0-106.417z" fill="#6bde1e"/><path d="m104.574 407.591c14.211 14.204 33.101 22.025 53.195 22.025 20.101 0 38.998-7.828 53.211-22.042l42.838-42.839c29.338-29.339 29.338-77.078 0-106.417l-.048-.048-149.258 149.259z" fill="#00c364"/></g></svg>