<svg id="Layer_1" enable-background="new 0 0 512 512" height="512" viewBox="0 0 512 512" width="512" xmlns="http://www.w3.org/2000/svg"><g><g><path d="m497 466.813h-482c-8.284 0-15-6.716-15-15v-391.625c0-8.284 6.716-15 15-15h122.489c3.992 0 7.82 1.592 10.636 4.423l55.521 55.827h293.354c8.284 0 15 6.716 15 15v331.375c0 8.284-6.716 15-15 15z" fill="#ffe271"/></g><path d="m497 105.438h-239.674v361.375h239.674c8.284 0 15-6.716 15-15v-331.375c0-8.285-6.716-15-15-15z" fill="#ffb44b"/><g><path d="m287.285 265.218h-59.918c-8.284 0-15-6.716-15-15v-30.291c0-24.791 20.169-44.959 44.959-44.959s44.959 20.169 44.959 44.959v30.291c0 8.284-6.716 15-15 15zm-44.918-20h29.918v-25.291c0-8.249-6.711-14.959-14.959-14.959s-14.959 6.711-14.959 14.959z" fill="#08475e"/></g><path d="m272.285 219.927v25.291h-14.959v20h29.959c8.284 0 15-6.716 15-15v-30.291c0-24.791-20.169-44.959-44.959-44.959v30c8.248 0 14.959 6.711 14.959 14.959z" fill="#05303d"/><g><path d="m299.822 385.718h-84.992c-17.878 0-32.423-14.544-32.423-32.422v-85.656c0-17.878 14.545-32.422 32.423-32.422h84.992c17.878 0 32.422 14.544 32.422 32.422v85.655c0 17.878-14.544 32.423-32.422 32.423z" fill="#fff"/></g><path d="m299.822 235.218h-42.496v150.5h42.496c17.878 0 32.422-14.544 32.422-32.422v-85.656c0-17.878-14.544-32.422-32.422-32.422z" fill="#e3dff4"/><g><path d="m257.326 335.968c-8.284 0-15-6.716-15-15v-21c0-8.284 6.716-15 15-15s15 6.716 15 15v21c0 8.284-6.716 15-15 15z" fill="#08475e"/></g><path d="m272.326 320.968v-21c0-8.284-6.716-15-15-15v51c8.284 0 15-6.716 15-15z" fill="#05303d"/></g></svg>